<?xml version="1.0" encoding="utf-8" standalone="no"?>
<!DOCTYPE svg PUBLIC "-//W3C//DTD SVG 1.1//EN"
  "http://www.w3.org/Graphics/SVG/1.1/DTD/svg11.dtd">
<svg xmlns:xlink="http://www.w3.org/1999/xlink" width="460.8pt" height="345.6pt" viewBox="0 0 460.8 345.6" xmlns="http://www.w3.org/2000/svg" version="1.1">
 <metadata>
  <rdf:RDF xmlns:dc="http://purl.org/dc/elements/1.1/" xmlns:cc="http://creativecommons.org/ns#" xmlns:rdf="http://www.w3.org/1999/02/22-rdf-syntax-ns#">
   <cc:Work>
    <dc:type rdf:resource="http://purl.org/dc/dcmitype/StillImage"/>
    <dc:date>2024-04-26T18:17:35.350766</dc:date>
    <dc:format>image/svg+xml</dc:format>
    <dc:creator>
     <cc:Agent>
      <dc:title>Matplotlib v3.7.1, https://matplotlib.org/</dc:title>
     </cc:Agent>
    </dc:creator>
   </cc:Work>
  </rdf:RDF>
 </metadata>
 <defs>
  <style type="text/css">*{stroke-linejoin: round; stroke-linecap: butt}</style>
 </defs>
 <g id="figure_1">
  <g id="patch_1">
   <path d="M 0 345.6 
L 460.8 345.6 
L 460.8 0 
L 0 0 
z
" style="fill: #ffffff"/>
  </g>
  <g id="axes_1">
   <g id="patch_2">
    <path d="M 57.6 307.584 
L 414.72 307.584 
L 414.72 41.472 
L 57.6 41.472 
z
" style="fill: #ffffff"/>
   </g>
   <g id="PolyCollection_1">
    <defs>
     <path id="mbde775c586" d="M 73.832727 -96.788028 
L 73.832727 -65.424546 
L 81.751131 -65.06928 
L 89.669534 -80.889293 
L 97.587938 -67.861585 
L 105.506341 -75.610107 
L 113.424745 -74.25523 
L 121.343149 -73.561455 
L 129.261552 -83.521508 
L 137.179956 -75.303288 
L 145.098359 -87.539457 
L 153.016763 -80.940622 
L 160.935166 -97.771409 
L 168.85357 -81.113713 
L 176.771973 -80.422026 
L 184.690377 -82.670486 
L 192.60878 -72.041093 
L 200.527184 -110.591654 
L 208.445588 -105.355447 
L 216.363991 -106.147705 
L 224.282395 -93.500537 
L 232.200798 -113.558195 
L 240.119202 -148.944874 
L 248.037605 -132.790751 
L 255.956009 -128.637032 
L 263.874412 -111.956655 
L 271.792816 -106.724688 
L 279.71122 -112.576729 
L 287.629623 -126.595526 
L 295.548027 -102.058495 
L 303.46643 -114.483488 
L 311.384834 -157.793914 
L 319.303237 -91.68013 
L 327.221641 -121.966472 
L 335.140044 -116.11688 
L 343.058448 -101.96927 
L 350.976851 -124.072816 
L 358.895255 -109.156734 
L 366.813659 -113.946726 
L 374.732062 -124.428267 
L 382.650466 -152.273952 
L 390.568869 -129.120054 
L 398.487273 -102.465046 
L 398.487273 -250.953665 
L 398.487273 -250.953665 
L 390.568869 -241.196879 
L 382.650466 -230.734799 
L 374.732062 -292.032 
L 366.813659 -215.09505 
L 358.895255 -202.002404 
L 350.976851 -252.038618 
L 343.058448 -191.898201 
L 335.140044 -236.449623 
L 327.221641 -232.545565 
L 319.303237 -140.923302 
L 311.384834 -222.211109 
L 303.46643 -211.078052 
L 295.548027 -192.144881 
L 287.629623 -240.177583 
L 279.71122 -283.980171 
L 271.792816 -183.357023 
L 263.874412 -200.537781 
L 255.956009 -224.96714 
L 248.037605 -219.363008 
L 240.119202 -274.297171 
L 232.200798 -164.868754 
L 224.282395 -148.647773 
L 216.363991 -157.120401 
L 208.445588 -163.724324 
L 200.527184 -278.172841 
L 192.60878 -142.020142 
L 184.690377 -195.416481 
L 176.771973 -131.261351 
L 168.85357 -137.968313 
L 160.935166 -140.936723 
L 153.016763 -132.818419 
L 145.098359 -137.893482 
L 137.179956 -140.429804 
L 129.261552 -163.767748 
L 121.343149 -111.02104 
L 113.424745 -110.559044 
L 105.506341 -126.83022 
L 97.587938 -86.72534 
L 89.669534 -127.862555 
L 81.751131 -95.035279 
L 73.832727 -96.788028 
z
" style="stroke: #1f77b4; stroke-opacity: 0.2"/>
    </defs>
    <g clip-path="url(#pc6324090d1)">
     <use xlink:href="#mbde775c586" x="0" y="345.6" style="fill: #1f77b4; fill-opacity: 0.2; stroke: #1f77b4; stroke-opacity: 0.2"/>
    </g>
   </g>
   <g id="PolyCollection_2">
    <defs>
     <path id="mb362df6464" d="M 73.832727 -65.541352 
L 73.832727 -56.066386 
L 81.751131 -59.820725 
L 89.669534 -56.410409 
L 97.587938 -56.356522 
L 105.506341 -57.245002 
L 113.424745 -61.615217 
L 121.343149 -55.740637 
L 129.261552 -60.795522 
L 137.179956 -65.893308 
L 145.098359 -62.742805 
L 153.016763 -65.601461 
L 160.935166 -59.373083 
L 168.85357 -59.363491 
L 176.771973 -59.519294 
L 184.690377 -69.133158 
L 192.60878 -62.891946 
L 200.527184 -62.763542 
L 208.445588 -82.268194 
L 216.363991 -60.397775 
L 224.282395 -65.761966 
L 232.200798 -72.448571 
L 240.119202 -67.902896 
L 248.037605 -64.459315 
L 255.956009 -73.989913 
L 263.874412 -77.540287 
L 271.792816 -77.160043 
L 279.71122 -73.044178 
L 287.629623 -64.668129 
L 295.548027 -67.17779 
L 303.46643 -73.184068 
L 311.384834 -68.521417 
L 319.303237 -74.971832 
L 327.221641 -61.164081 
L 335.140044 -59.185589 
L 343.058448 -62.020829 
L 350.976851 -65.002547 
L 358.895255 -71.137012 
L 366.813659 -71.42481 
L 374.732062 -69.281706 
L 382.650466 -87.533164 
L 390.568869 -83.907678 
L 398.487273 -82.759085 
L 398.487273 -127.710299 
L 398.487273 -127.710299 
L 390.568869 -126.414459 
L 382.650466 -118.514474 
L 374.732062 -102.744118 
L 366.813659 -105.435242 
L 358.895255 -105.766025 
L 350.976851 -89.533225 
L 343.058448 -81.895376 
L 335.140044 -77.469756 
L 327.221641 -84.190788 
L 319.303237 -103.171789 
L 311.384834 -93.17681 
L 303.46643 -99.263813 
L 295.548027 -93.484608 
L 287.629623 -94.104334 
L 279.71122 -95.618952 
L 271.792816 -108.300564 
L 263.874412 -115.601453 
L 255.956009 -106.590714 
L 248.037605 -89.601889 
L 240.119202 -87.044671 
L 232.200798 -95.646964 
L 224.282395 -85.763625 
L 216.363991 -80.227519 
L 208.445588 -106.885567 
L 200.527184 -85.064562 
L 192.60878 -86.92179 
L 184.690377 -97.881046 
L 176.771973 -74.126918 
L 168.85357 -78.606347 
L 160.935166 -83.316552 
L 153.016763 -81.010131 
L 145.098359 -85.21774 
L 137.179956 -83.272005 
L 129.261552 -76.511837 
L 121.343149 -66.292795 
L 113.424745 -75.336051 
L 105.506341 -74.378532 
L 97.587938 -65.470511 
L 89.669534 -69.979348 
L 81.751131 -73.111293 
L 73.832727 -65.541352 
z
" style="stroke: #ff7f0e; stroke-opacity: 0.2"/>
    </defs>
    <g clip-path="url(#pc6324090d1)">
     <use xlink:href="#mb362df6464" x="0" y="345.6" style="fill: #ff7f0e; fill-opacity: 0.2; stroke: #ff7f0e; stroke-opacity: 0.2"/>
    </g>
   </g>
   <g id="PolyCollection_3">
    <defs>
     <path id="mdc6f2d417d" d="M 73.832727 -55.727808 
L 73.832727 -52.000868 
L 81.751131 -52.413749 
L 89.669534 -52.455178 
L 97.587938 -54.069749 
L 105.506341 -53.711004 
L 113.424745 -53.260399 
L 121.343149 -53.229309 
L 129.261552 -54.147571 
L 137.179956 -58.692768 
L 145.098359 -56.260838 
L 153.016763 -52.436869 
L 160.935166 -55.08724 
L 168.85357 -55.607441 
L 176.771973 -56.698207 
L 184.690377 -58.612004 
L 192.60878 -54.515557 
L 200.527184 -57.584377 
L 208.445588 -55.694383 
L 216.363991 -55.666408 
L 224.282395 -54.045063 
L 232.200798 -57.242354 
L 240.119202 -59.336009 
L 248.037605 -56.64573 
L 255.956009 -56.383406 
L 263.874412 -57.9009 
L 271.792816 -60.258498 
L 279.71122 -59.206907 
L 287.629623 -59.076243 
L 295.548027 -57.373709 
L 303.46643 -56.514297 
L 311.384834 -57.232782 
L 319.303237 -55.933539 
L 327.221641 -55.701336 
L 335.140044 -56.755858 
L 343.058448 -56.105759 
L 350.976851 -57.440142 
L 358.895255 -59.991749 
L 366.813659 -62.303828 
L 374.732062 -57.641364 
L 382.650466 -58.312151 
L 390.568869 -55.13234 
L 398.487273 -62.675533 
L 398.487273 -84.688574 
L 398.487273 -84.688574 
L 390.568869 -65.163098 
L 382.650466 -71.517136 
L 374.732062 -64.391861 
L 366.813659 -77.674807 
L 358.895255 -76.459056 
L 350.976851 -72.077177 
L 343.058448 -67.967268 
L 335.140044 -70.235871 
L 327.221641 -67.327966 
L 319.303237 -67.029233 
L 311.384834 -68.187976 
L 303.46643 -66.321028 
L 295.548027 -65.596217 
L 287.629623 -79.50963 
L 279.71122 -77.907427 
L 271.792816 -77.815905 
L 263.874412 -65.91319 
L 255.956009 -67.80496 
L 248.037605 -68.624484 
L 240.119202 -70.867783 
L 232.200798 -64.872261 
L 224.282395 -64.613331 
L 216.363991 -63.429016 
L 208.445588 -62.737195 
L 200.527184 -67.224425 
L 192.60878 -62.573552 
L 184.690377 -68.82191 
L 176.771973 -62.620896 
L 168.85357 -63.453333 
L 160.935166 -62.163587 
L 153.016763 -59.470201 
L 145.098359 -62.766585 
L 137.179956 -74.01364 
L 129.261552 -61.552116 
L 121.343149 -58.370471 
L 113.424745 -68.463767 
L 105.506341 -65.465872 
L 97.587938 -58.704876 
L 89.669534 -59.004816 
L 81.751131 -55.494736 
L 73.832727 -55.727808 
z
" style="stroke: #2ca02c; stroke-opacity: 0.2"/>
    </defs>
    <g clip-path="url(#pc6324090d1)">
     <use xlink:href="#mdc6f2d417d" x="0" y="345.6" style="fill: #2ca02c; fill-opacity: 0.2; stroke: #2ca02c; stroke-opacity: 0.2"/>
    </g>
   </g>
   <g id="PolyCollection_4">
    <defs>
     <path id="m4d7dc77066" d="M 73.832727 -54.716295 
L 73.832727 -51.702623 
L 81.751131 -51.960902 
L 89.669534 -52.252522 
L 97.587938 -50.908159 
L 105.506341 -53.386777 
L 113.424745 -52.456494 
L 121.343149 -51.453647 
L 129.261552 -51.871082 
L 137.179956 -54.148788 
L 145.098359 -54.969685 
L 153.016763 -54.612453 
L 160.935166 -54.479585 
L 168.85357 -53.05179 
L 176.771973 -53.979148 
L 184.690377 -53.562325 
L 192.60878 -55.588748 
L 200.527184 -55.857008 
L 208.445588 -55.635366 
L 216.363991 -55.288158 
L 224.282395 -56.558343 
L 232.200798 -54.166517 
L 240.119202 -57.806318 
L 248.037605 -56.88915 
L 255.956009 -54.827898 
L 263.874412 -56.29903 
L 271.792816 -58.536232 
L 279.71122 -62.725502 
L 287.629623 -55.594474 
L 295.548027 -56.360299 
L 303.46643 -57.051086 
L 311.384834 -55.013767 
L 319.303237 -56.103218 
L 327.221641 -53.331948 
L 335.140044 -56.237374 
L 343.058448 -58.520908 
L 350.976851 -57.634989 
L 358.895255 -57.50041 
L 366.813659 -61.716396 
L 374.732062 -57.807855 
L 382.650466 -58.927059 
L 390.568869 -54.080357 
L 398.487273 -58.278601 
L 398.487273 -75.431647 
L 398.487273 -75.431647 
L 390.568869 -64.318279 
L 382.650466 -70.123346 
L 374.732062 -71.496544 
L 366.813659 -71.902985 
L 358.895255 -73.047352 
L 350.976851 -65.975177 
L 343.058448 -68.2424 
L 335.140044 -66.445139 
L 327.221641 -57.597773 
L 319.303237 -64.348826 
L 311.384834 -66.459125 
L 303.46643 -65.979718 
L 295.548027 -65.037037 
L 287.629623 -61.829565 
L 279.71122 -72.989485 
L 271.792816 -67.26036 
L 263.874412 -64.073976 
L 255.956009 -69.200791 
L 248.037605 -68.480725 
L 240.119202 -68.22845 
L 232.200798 -62.09542 
L 224.282395 -65.450717 
L 216.363991 -66.323671 
L 208.445588 -63.582003 
L 200.527184 -62.600301 
L 192.60878 -61.425869 
L 184.690377 -58.099208 
L 176.771973 -61.86073 
L 168.85357 -56.535852 
L 160.935166 -58.659611 
L 153.016763 -62.139641 
L 145.098359 -63.630615 
L 137.179956 -57.353912 
L 129.261552 -54.474644 
L 121.343149 -54.190636 
L 113.424745 -56.780787 
L 105.506341 -63.472629 
L 97.587938 -52.799239 
L 89.669534 -55.407636 
L 81.751131 -55.77428 
L 73.832727 -54.716295 
z
" style="stroke: #d62728; stroke-opacity: 0.2"/>
    </defs>
    <g clip-path="url(#pc6324090d1)">
     <use xlink:href="#m4d7dc77066" x="0" y="345.6" style="fill: #d62728; fill-opacity: 0.2; stroke: #d62728; stroke-opacity: 0.2"/>
    </g>
   </g>
   <g id="PolyCollection_5">
    <defs>
     <path id="m7d34150814" d="M 73.832727 -51.6768 
L 73.832727 -50.415567 
L 81.751131 -50.794893 
L 89.669534 -51.004735 
L 97.587938 -50.112 
L 105.506341 -50.428692 
L 113.424745 -51.361663 
L 121.343149 -50.523638 
L 129.261552 -51.19804 
L 137.179956 -50.833409 
L 145.098359 -51.236363 
L 153.016763 -51.869605 
L 160.935166 -51.293793 
L 168.85357 -51.570004 
L 176.771973 -51.775252 
L 184.690377 -51.501445 
L 192.60878 -52.476215 
L 200.527184 -51.10443 
L 208.445588 -51.446625 
L 216.363991 -52.495012 
L 224.282395 -52.185121 
L 232.200798 -52.462925 
L 240.119202 -52.355962 
L 248.037605 -52.555215 
L 255.956009 -51.832184 
L 263.874412 -52.277913 
L 271.792816 -51.321811 
L 279.71122 -51.358143 
L 287.629623 -52.574805 
L 295.548027 -52.811676 
L 303.46643 -50.875489 
L 311.384834 -52.027347 
L 319.303237 -52.271731 
L 327.221641 -52.56755 
L 335.140044 -52.577926 
L 343.058448 -53.667243 
L 350.976851 -52.795949 
L 358.895255 -53.928916 
L 366.813659 -53.701963 
L 374.732062 -53.061008 
L 382.650466 -52.661462 
L 390.568869 -52.747236 
L 398.487273 -54.86902 
L 398.487273 -62.935995 
L 398.487273 -62.935995 
L 390.568869 -58.410249 
L 382.650466 -59.835544 
L 374.732062 -57.165881 
L 366.813659 -59.334857 
L 358.895255 -58.824539 
L 350.976851 -60.073852 
L 343.058448 -59.467006 
L 335.140044 -55.353865 
L 327.221641 -56.688914 
L 319.303237 -55.04414 
L 311.384834 -57.085082 
L 303.46643 -54.313936 
L 295.548027 -57.822641 
L 287.629623 -56.290987 
L 279.71122 -60.37598 
L 271.792816 -56.470637 
L 263.874412 -57.246398 
L 255.956009 -55.872909 
L 248.037605 -56.919142 
L 240.119202 -54.5255 
L 232.200798 -56.290645 
L 224.282395 -56.4662 
L 216.363991 -54.95693 
L 208.445588 -54.215957 
L 200.527184 -53.614197 
L 192.60878 -55.445621 
L 184.690377 -53.947677 
L 176.771973 -54.086558 
L 168.85357 -54.976132 
L 160.935166 -55.089938 
L 153.016763 -53.339198 
L 145.098359 -52.701243 
L 137.179956 -53.105027 
L 129.261552 -53.254303 
L 121.343149 -52.5682 
L 113.424745 -54.139939 
L 105.506341 -52.309489 
L 97.587938 -51.949769 
L 89.669534 -52.142501 
L 81.751131 -52.575364 
L 73.832727 -51.6768 
z
" style="stroke: #9467bd; stroke-opacity: 0.2"/>
    </defs>
    <g clip-path="url(#pc6324090d1)">
     <use xlink:href="#m7d34150814" x="0" y="345.6" style="fill: #9467bd; fill-opacity: 0.2; stroke: #9467bd; stroke-opacity: 0.2"/>
    </g>
   </g>
   <g id="matplotlib.axis_1">
    <g id="xtick_1">
     <g id="line2d_1">
      <defs>
       <path id="medaf5dc281" d="M 0 0 
L 0 3.5 
" style="stroke: #000000; stroke-width: 0.8"/>
      </defs>
      <g>
       <use xlink:href="#medaf5dc281" x="81.751131" y="307.584" style="stroke: #000000; stroke-width: 0.8"/>
      </g>
     </g>
     <g id="text_1">
      <!-- 10 -->
      <g transform="translate(75.388631 322.182437) scale(0.1 -0.1)">
       <defs>
        <path id="DejaVuSans-31" d="M 794 531 
L 1825 531 
L 1825 4091 
L 703 3866 
L 703 4441 
L 1819 4666 
L 2450 4666 
L 2450 531 
L 3481 531 
L 3481 0 
L 794 0 
L 794 531 
z
" transform="scale(0.015625)"/>
        <path id="DejaVuSans-30" d="M 2034 4250 
Q 1547 4250 1301 3770 
Q 1056 3291 1056 2328 
Q 1056 1369 1301 889 
Q 1547 409 2034 409 
Q 2525 409 2770 889 
Q 3016 1369 3016 2328 
Q 3016 3291 2770 3770 
Q 2525 4250 2034 4250 
z
M 2034 4750 
Q 2819 4750 3233 4129 
Q 3647 3509 3647 2328 
Q 3647 1150 3233 529 
Q 2819 -91 2034 -91 
Q 1250 -91 836 529 
Q 422 1150 422 2328 
Q 422 3509 836 4129 
Q 1250 4750 2034 4750 
z
" transform="scale(0.015625)"/>
       </defs>
       <use xlink:href="#DejaVuSans-31"/>
       <use xlink:href="#DejaVuSans-30" x="63.623047"/>
      </g>
     </g>
    </g>
    <g id="xtick_2">
     <g id="line2d_2">
      <g>
       <use xlink:href="#medaf5dc281" x="160.935166" y="307.584" style="stroke: #000000; stroke-width: 0.8"/>
      </g>
     </g>
     <g id="text_2">
      <!-- 20 -->
      <g transform="translate(154.572666 322.182437) scale(0.1 -0.1)">
       <defs>
        <path id="DejaVuSans-32" d="M 1228 531 
L 3431 531 
L 3431 0 
L 469 0 
L 469 531 
Q 828 903 1448 1529 
Q 2069 2156 2228 2338 
Q 2531 2678 2651 2914 
Q 2772 3150 2772 3378 
Q 2772 3750 2511 3984 
Q 2250 4219 1831 4219 
Q 1534 4219 1204 4116 
Q 875 4013 500 3803 
L 500 4441 
Q 881 4594 1212 4672 
Q 1544 4750 1819 4750 
Q 2544 4750 2975 4387 
Q 3406 4025 3406 3419 
Q 3406 3131 3298 2873 
Q 3191 2616 2906 2266 
Q 2828 2175 2409 1742 
Q 1991 1309 1228 531 
z
" transform="scale(0.015625)"/>
       </defs>
       <use xlink:href="#DejaVuSans-32"/>
       <use xlink:href="#DejaVuSans-30" x="63.623047"/>
      </g>
     </g>
    </g>
    <g id="xtick_3">
     <g id="line2d_3">
      <g>
       <use xlink:href="#medaf5dc281" x="240.119202" y="307.584" style="stroke: #000000; stroke-width: 0.8"/>
      </g>
     </g>
     <g id="text_3">
      <!-- 30 -->
      <g transform="translate(233.756702 322.182437) scale(0.1 -0.1)">
       <defs>
        <path id="DejaVuSans-33" d="M 2597 2516 
Q 3050 2419 3304 2112 
Q 3559 1806 3559 1356 
Q 3559 666 3084 287 
Q 2609 -91 1734 -91 
Q 1441 -91 1130 -33 
Q 819 25 488 141 
L 488 750 
Q 750 597 1062 519 
Q 1375 441 1716 441 
Q 2309 441 2620 675 
Q 2931 909 2931 1356 
Q 2931 1769 2642 2001 
Q 2353 2234 1838 2234 
L 1294 2234 
L 1294 2753 
L 1863 2753 
Q 2328 2753 2575 2939 
Q 2822 3125 2822 3475 
Q 2822 3834 2567 4026 
Q 2313 4219 1838 4219 
Q 1578 4219 1281 4162 
Q 984 4106 628 3988 
L 628 4550 
Q 988 4650 1302 4700 
Q 1616 4750 1894 4750 
Q 2613 4750 3031 4423 
Q 3450 4097 3450 3541 
Q 3450 3153 3228 2886 
Q 3006 2619 2597 2516 
z
" transform="scale(0.015625)"/>
       </defs>
       <use xlink:href="#DejaVuSans-33"/>
       <use xlink:href="#DejaVuSans-30" x="63.623047"/>
      </g>
     </g>
    </g>
    <g id="xtick_4">
     <g id="line2d_4">
      <g>
       <use xlink:href="#medaf5dc281" x="319.303237" y="307.584" style="stroke: #000000; stroke-width: 0.8"/>
      </g>
     </g>
     <g id="text_4">
      <!-- 40 -->
      <g transform="translate(312.940737 322.182437) scale(0.1 -0.1)">
       <defs>
        <path id="DejaVuSans-34" d="M 2419 4116 
L 825 1625 
L 2419 1625 
L 2419 4116 
z
M 2253 4666 
L 3047 4666 
L 3047 1625 
L 3713 1625 
L 3713 1100 
L 3047 1100 
L 3047 0 
L 2419 0 
L 2419 1100 
L 313 1100 
L 313 1709 
L 2253 4666 
z
" transform="scale(0.015625)"/>
       </defs>
       <use xlink:href="#DejaVuSans-34"/>
       <use xlink:href="#DejaVuSans-30" x="63.623047"/>
      </g>
     </g>
    </g>
    <g id="xtick_5">
     <g id="line2d_5">
      <g>
       <use xlink:href="#medaf5dc281" x="398.487273" y="307.584" style="stroke: #000000; stroke-width: 0.8"/>
      </g>
     </g>
     <g id="text_5">
      <!-- 50 -->
      <g transform="translate(392.124773 322.182437) scale(0.1 -0.1)">
       <defs>
        <path id="DejaVuSans-35" d="M 691 4666 
L 3169 4666 
L 3169 4134 
L 1269 4134 
L 1269 2991 
Q 1406 3038 1543 3061 
Q 1681 3084 1819 3084 
Q 2600 3084 3056 2656 
Q 3513 2228 3513 1497 
Q 3513 744 3044 326 
Q 2575 -91 1722 -91 
Q 1428 -91 1123 -41 
Q 819 9 494 109 
L 494 744 
Q 775 591 1075 516 
Q 1375 441 1709 441 
Q 2250 441 2565 725 
Q 2881 1009 2881 1497 
Q 2881 1984 2565 2268 
Q 2250 2553 1709 2553 
Q 1456 2553 1204 2497 
Q 953 2441 691 2322 
L 691 4666 
z
" transform="scale(0.015625)"/>
       </defs>
       <use xlink:href="#DejaVuSans-35"/>
       <use xlink:href="#DejaVuSans-30" x="63.623047"/>
      </g>
     </g>
    </g>
    <g id="text_6">
     <!-- Graph size || Number heavy atoms -->
     <g transform="translate(148.942031 335.904313) scale(0.1 -0.1)">
      <defs>
       <path id="DejaVuSans-47" d="M 3809 666 
L 3809 1919 
L 2778 1919 
L 2778 2438 
L 4434 2438 
L 4434 434 
Q 4069 175 3628 42 
Q 3188 -91 2688 -91 
Q 1594 -91 976 548 
Q 359 1188 359 2328 
Q 359 3472 976 4111 
Q 1594 4750 2688 4750 
Q 3144 4750 3555 4637 
Q 3966 4525 4313 4306 
L 4313 3634 
Q 3963 3931 3569 4081 
Q 3175 4231 2741 4231 
Q 1884 4231 1454 3753 
Q 1025 3275 1025 2328 
Q 1025 1384 1454 906 
Q 1884 428 2741 428 
Q 3075 428 3337 486 
Q 3600 544 3809 666 
z
" transform="scale(0.015625)"/>
       <path id="DejaVuSans-72" d="M 2631 2963 
Q 2534 3019 2420 3045 
Q 2306 3072 2169 3072 
Q 1681 3072 1420 2755 
Q 1159 2438 1159 1844 
L 1159 0 
L 581 0 
L 581 3500 
L 1159 3500 
L 1159 2956 
Q 1341 3275 1631 3429 
Q 1922 3584 2338 3584 
Q 2397 3584 2469 3576 
Q 2541 3569 2628 3553 
L 2631 2963 
z
" transform="scale(0.015625)"/>
       <path id="DejaVuSans-61" d="M 2194 1759 
Q 1497 1759 1228 1600 
Q 959 1441 959 1056 
Q 959 750 1161 570 
Q 1363 391 1709 391 
Q 2188 391 2477 730 
Q 2766 1069 2766 1631 
L 2766 1759 
L 2194 1759 
z
M 3341 1997 
L 3341 0 
L 2766 0 
L 2766 531 
Q 2569 213 2275 61 
Q 1981 -91 1556 -91 
Q 1019 -91 701 211 
Q 384 513 384 1019 
Q 384 1609 779 1909 
Q 1175 2209 1959 2209 
L 2766 2209 
L 2766 2266 
Q 2766 2663 2505 2880 
Q 2244 3097 1772 3097 
Q 1472 3097 1187 3025 
Q 903 2953 641 2809 
L 641 3341 
Q 956 3463 1253 3523 
Q 1550 3584 1831 3584 
Q 2591 3584 2966 3190 
Q 3341 2797 3341 1997 
z
" transform="scale(0.015625)"/>
       <path id="DejaVuSans-70" d="M 1159 525 
L 1159 -1331 
L 581 -1331 
L 581 3500 
L 1159 3500 
L 1159 2969 
Q 1341 3281 1617 3432 
Q 1894 3584 2278 3584 
Q 2916 3584 3314 3078 
Q 3713 2572 3713 1747 
Q 3713 922 3314 415 
Q 2916 -91 2278 -91 
Q 1894 -91 1617 61 
Q 1341 213 1159 525 
z
M 3116 1747 
Q 3116 2381 2855 2742 
Q 2594 3103 2138 3103 
Q 1681 3103 1420 2742 
Q 1159 2381 1159 1747 
Q 1159 1113 1420 752 
Q 1681 391 2138 391 
Q 2594 391 2855 752 
Q 3116 1113 3116 1747 
z
" transform="scale(0.015625)"/>
       <path id="DejaVuSans-68" d="M 3513 2113 
L 3513 0 
L 2938 0 
L 2938 2094 
Q 2938 2591 2744 2837 
Q 2550 3084 2163 3084 
Q 1697 3084 1428 2787 
Q 1159 2491 1159 1978 
L 1159 0 
L 581 0 
L 581 4863 
L 1159 4863 
L 1159 2956 
Q 1366 3272 1645 3428 
Q 1925 3584 2291 3584 
Q 2894 3584 3203 3211 
Q 3513 2838 3513 2113 
z
" transform="scale(0.015625)"/>
       <path id="DejaVuSans-20" transform="scale(0.015625)"/>
       <path id="DejaVuSans-73" d="M 2834 3397 
L 2834 2853 
Q 2591 2978 2328 3040 
Q 2066 3103 1784 3103 
Q 1356 3103 1142 2972 
Q 928 2841 928 2578 
Q 928 2378 1081 2264 
Q 1234 2150 1697 2047 
L 1894 2003 
Q 2506 1872 2764 1633 
Q 3022 1394 3022 966 
Q 3022 478 2636 193 
Q 2250 -91 1575 -91 
Q 1294 -91 989 -36 
Q 684 19 347 128 
L 347 722 
Q 666 556 975 473 
Q 1284 391 1588 391 
Q 1994 391 2212 530 
Q 2431 669 2431 922 
Q 2431 1156 2273 1281 
Q 2116 1406 1581 1522 
L 1381 1569 
Q 847 1681 609 1914 
Q 372 2147 372 2553 
Q 372 3047 722 3315 
Q 1072 3584 1716 3584 
Q 2034 3584 2315 3537 
Q 2597 3491 2834 3397 
z
" transform="scale(0.015625)"/>
       <path id="DejaVuSans-69" d="M 603 3500 
L 1178 3500 
L 1178 0 
L 603 0 
L 603 3500 
z
M 603 4863 
L 1178 4863 
L 1178 4134 
L 603 4134 
L 603 4863 
z
" transform="scale(0.015625)"/>
       <path id="DejaVuSans-7a" d="M 353 3500 
L 3084 3500 
L 3084 2975 
L 922 459 
L 3084 459 
L 3084 0 
L 275 0 
L 275 525 
L 2438 3041 
L 353 3041 
L 353 3500 
z
" transform="scale(0.015625)"/>
       <path id="DejaVuSans-65" d="M 3597 1894 
L 3597 1613 
L 953 1613 
Q 991 1019 1311 708 
Q 1631 397 2203 397 
Q 2534 397 2845 478 
Q 3156 559 3463 722 
L 3463 178 
Q 3153 47 2828 -22 
Q 2503 -91 2169 -91 
Q 1331 -91 842 396 
Q 353 884 353 1716 
Q 353 2575 817 3079 
Q 1281 3584 2069 3584 
Q 2775 3584 3186 3129 
Q 3597 2675 3597 1894 
z
M 3022 2063 
Q 3016 2534 2758 2815 
Q 2500 3097 2075 3097 
Q 1594 3097 1305 2825 
Q 1016 2553 972 2059 
L 3022 2063 
z
" transform="scale(0.015625)"/>
       <path id="DejaVuSans-7c" d="M 1344 4891 
L 1344 -1509 
L 813 -1509 
L 813 4891 
L 1344 4891 
z
" transform="scale(0.015625)"/>
       <path id="DejaVuSans-4e" d="M 628 4666 
L 1478 4666 
L 3547 763 
L 3547 4666 
L 4159 4666 
L 4159 0 
L 3309 0 
L 1241 3903 
L 1241 0 
L 628 0 
L 628 4666 
z
" transform="scale(0.015625)"/>
       <path id="DejaVuSans-75" d="M 544 1381 
L 544 3500 
L 1119 3500 
L 1119 1403 
Q 1119 906 1312 657 
Q 1506 409 1894 409 
Q 2359 409 2629 706 
Q 2900 1003 2900 1516 
L 2900 3500 
L 3475 3500 
L 3475 0 
L 2900 0 
L 2900 538 
Q 2691 219 2414 64 
Q 2138 -91 1772 -91 
Q 1169 -91 856 284 
Q 544 659 544 1381 
z
M 1991 3584 
L 1991 3584 
z
" transform="scale(0.015625)"/>
       <path id="DejaVuSans-6d" d="M 3328 2828 
Q 3544 3216 3844 3400 
Q 4144 3584 4550 3584 
Q 5097 3584 5394 3201 
Q 5691 2819 5691 2113 
L 5691 0 
L 5113 0 
L 5113 2094 
Q 5113 2597 4934 2840 
Q 4756 3084 4391 3084 
Q 3944 3084 3684 2787 
Q 3425 2491 3425 1978 
L 3425 0 
L 2847 0 
L 2847 2094 
Q 2847 2600 2669 2842 
Q 2491 3084 2119 3084 
Q 1678 3084 1418 2786 
Q 1159 2488 1159 1978 
L 1159 0 
L 581 0 
L 581 3500 
L 1159 3500 
L 1159 2956 
Q 1356 3278 1631 3431 
Q 1906 3584 2284 3584 
Q 2666 3584 2933 3390 
Q 3200 3197 3328 2828 
z
" transform="scale(0.015625)"/>
       <path id="DejaVuSans-62" d="M 3116 1747 
Q 3116 2381 2855 2742 
Q 2594 3103 2138 3103 
Q 1681 3103 1420 2742 
Q 1159 2381 1159 1747 
Q 1159 1113 1420 752 
Q 1681 391 2138 391 
Q 2594 391 2855 752 
Q 3116 1113 3116 1747 
z
M 1159 2969 
Q 1341 3281 1617 3432 
Q 1894 3584 2278 3584 
Q 2916 3584 3314 3078 
Q 3713 2572 3713 1747 
Q 3713 922 3314 415 
Q 2916 -91 2278 -91 
Q 1894 -91 1617 61 
Q 1341 213 1159 525 
L 1159 0 
L 581 0 
L 581 4863 
L 1159 4863 
L 1159 2969 
z
" transform="scale(0.015625)"/>
       <path id="DejaVuSans-76" d="M 191 3500 
L 800 3500 
L 1894 563 
L 2988 3500 
L 3597 3500 
L 2284 0 
L 1503 0 
L 191 3500 
z
" transform="scale(0.015625)"/>
       <path id="DejaVuSans-79" d="M 2059 -325 
Q 1816 -950 1584 -1140 
Q 1353 -1331 966 -1331 
L 506 -1331 
L 506 -850 
L 844 -850 
Q 1081 -850 1212 -737 
Q 1344 -625 1503 -206 
L 1606 56 
L 191 3500 
L 800 3500 
L 1894 763 
L 2988 3500 
L 3597 3500 
L 2059 -325 
z
" transform="scale(0.015625)"/>
       <path id="DejaVuSans-74" d="M 1172 4494 
L 1172 3500 
L 2356 3500 
L 2356 3053 
L 1172 3053 
L 1172 1153 
Q 1172 725 1289 603 
Q 1406 481 1766 481 
L 2356 481 
L 2356 0 
L 1766 0 
Q 1100 0 847 248 
Q 594 497 594 1153 
L 594 3053 
L 172 3053 
L 172 3500 
L 594 3500 
L 594 4494 
L 1172 4494 
z
" transform="scale(0.015625)"/>
       <path id="DejaVuSans-6f" d="M 1959 3097 
Q 1497 3097 1228 2736 
Q 959 2375 959 1747 
Q 959 1119 1226 758 
Q 1494 397 1959 397 
Q 2419 397 2687 759 
Q 2956 1122 2956 1747 
Q 2956 2369 2687 2733 
Q 2419 3097 1959 3097 
z
M 1959 3584 
Q 2709 3584 3137 3096 
Q 3566 2609 3566 1747 
Q 3566 888 3137 398 
Q 2709 -91 1959 -91 
Q 1206 -91 779 398 
Q 353 888 353 1747 
Q 353 2609 779 3096 
Q 1206 3584 1959 3584 
z
" transform="scale(0.015625)"/>
      </defs>
      <use xlink:href="#DejaVuSans-47"/>
      <use xlink:href="#DejaVuSans-72" x="77.490234"/>
      <use xlink:href="#DejaVuSans-61" x="118.603516"/>
      <use xlink:href="#DejaVuSans-70" x="179.882812"/>
      <use xlink:href="#DejaVuSans-68" x="243.359375"/>
      <use xlink:href="#DejaVuSans-20" x="306.738281"/>
      <use xlink:href="#DejaVuSans-73" x="338.525391"/>
      <use xlink:href="#DejaVuSans-69" x="390.625"/>
      <use xlink:href="#DejaVuSans-7a" x="418.408203"/>
      <use xlink:href="#DejaVuSans-65" x="470.898438"/>
      <use xlink:href="#DejaVuSans-20" x="532.421875"/>
      <use xlink:href="#DejaVuSans-7c" x="564.208984"/>
      <use xlink:href="#DejaVuSans-7c" x="597.900391"/>
      <use xlink:href="#DejaVuSans-20" x="631.591797"/>
      <use xlink:href="#DejaVuSans-4e" x="663.378906"/>
      <use xlink:href="#DejaVuSans-75" x="738.183594"/>
      <use xlink:href="#DejaVuSans-6d" x="801.5625"/>
      <use xlink:href="#DejaVuSans-62" x="898.974609"/>
      <use xlink:href="#DejaVuSans-65" x="962.451172"/>
      <use xlink:href="#DejaVuSans-72" x="1023.974609"/>
      <use xlink:href="#DejaVuSans-20" x="1065.087891"/>
      <use xlink:href="#DejaVuSans-68" x="1096.875"/>
      <use xlink:href="#DejaVuSans-65" x="1160.253906"/>
      <use xlink:href="#DejaVuSans-61" x="1221.777344"/>
      <use xlink:href="#DejaVuSans-76" x="1283.056641"/>
      <use xlink:href="#DejaVuSans-79" x="1342.236328"/>
      <use xlink:href="#DejaVuSans-20" x="1401.416016"/>
      <use xlink:href="#DejaVuSans-61" x="1433.203125"/>
      <use xlink:href="#DejaVuSans-74" x="1494.482422"/>
      <use xlink:href="#DejaVuSans-6f" x="1533.691406"/>
      <use xlink:href="#DejaVuSans-6d" x="1594.873047"/>
      <use xlink:href="#DejaVuSans-73" x="1692.285156"/>
     </g>
    </g>
   </g>
   <g id="matplotlib.axis_2">
    <g id="ytick_1">
     <g id="line2d_6">
      <defs>
       <path id="maeefc592d5" d="M 0 0 
L -3.5 0 
" style="stroke: #000000; stroke-width: 0.8"/>
      </defs>
      <g>
       <use xlink:href="#maeefc592d5" x="57.6" y="295.967008" style="stroke: #000000; stroke-width: 0.8"/>
      </g>
     </g>
     <g id="text_7">
      <!-- 0.0 -->
      <g transform="translate(34.696875 299.766227) scale(0.1 -0.1)">
       <defs>
        <path id="DejaVuSans-2e" d="M 684 794 
L 1344 794 
L 1344 0 
L 684 0 
L 684 794 
z
" transform="scale(0.015625)"/>
       </defs>
       <use xlink:href="#DejaVuSans-30"/>
       <use xlink:href="#DejaVuSans-2e" x="63.623047"/>
       <use xlink:href="#DejaVuSans-30" x="95.410156"/>
      </g>
     </g>
    </g>
    <g id="ytick_2">
     <g id="line2d_7">
      <g>
       <use xlink:href="#maeefc592d5" x="57.6" y="251.278753" style="stroke: #000000; stroke-width: 0.8"/>
      </g>
     </g>
     <g id="text_8">
      <!-- 0.1 -->
      <g transform="translate(34.696875 255.077972) scale(0.1 -0.1)">
       <use xlink:href="#DejaVuSans-30"/>
       <use xlink:href="#DejaVuSans-2e" x="63.623047"/>
       <use xlink:href="#DejaVuSans-31" x="95.410156"/>
      </g>
     </g>
    </g>
    <g id="ytick_3">
     <g id="line2d_8">
      <g>
       <use xlink:href="#maeefc592d5" x="57.6" y="206.590498" style="stroke: #000000; stroke-width: 0.8"/>
      </g>
     </g>
     <g id="text_9">
      <!-- 0.2 -->
      <g transform="translate(34.696875 210.389717) scale(0.1 -0.1)">
       <use xlink:href="#DejaVuSans-30"/>
       <use xlink:href="#DejaVuSans-2e" x="63.623047"/>
       <use xlink:href="#DejaVuSans-32" x="95.410156"/>
      </g>
     </g>
    </g>
    <g id="ytick_4">
     <g id="line2d_9">
      <g>
       <use xlink:href="#maeefc592d5" x="57.6" y="161.902243" style="stroke: #000000; stroke-width: 0.8"/>
      </g>
     </g>
     <g id="text_10">
      <!-- 0.3 -->
      <g transform="translate(34.696875 165.701462) scale(0.1 -0.1)">
       <use xlink:href="#DejaVuSans-30"/>
       <use xlink:href="#DejaVuSans-2e" x="63.623047"/>
       <use xlink:href="#DejaVuSans-33" x="95.410156"/>
      </g>
     </g>
    </g>
    <g id="ytick_5">
     <g id="line2d_10">
      <g>
       <use xlink:href="#maeefc592d5" x="57.6" y="117.213988" style="stroke: #000000; stroke-width: 0.8"/>
      </g>
     </g>
     <g id="text_11">
      <!-- 0.4 -->
      <g transform="translate(34.696875 121.013207) scale(0.1 -0.1)">
       <use xlink:href="#DejaVuSans-30"/>
       <use xlink:href="#DejaVuSans-2e" x="63.623047"/>
       <use xlink:href="#DejaVuSans-34" x="95.410156"/>
      </g>
     </g>
    </g>
    <g id="ytick_6">
     <g id="line2d_11">
      <g>
       <use xlink:href="#maeefc592d5" x="57.6" y="72.525733" style="stroke: #000000; stroke-width: 0.8"/>
      </g>
     </g>
     <g id="text_12">
      <!-- 0.5 -->
      <g transform="translate(34.696875 76.324952) scale(0.1 -0.1)">
       <use xlink:href="#DejaVuSans-30"/>
       <use xlink:href="#DejaVuSans-2e" x="63.623047"/>
       <use xlink:href="#DejaVuSans-35" x="95.410156"/>
      </g>
     </g>
    </g>
    <g id="text_13">
     <!-- Absolute error Σ(Myerson) -->
     <g transform="translate(28.617187 239.960812) rotate(-90) scale(0.1 -0.1)">
      <defs>
       <path id="DejaVuSans-41" d="M 2188 4044 
L 1331 1722 
L 3047 1722 
L 2188 4044 
z
M 1831 4666 
L 2547 4666 
L 4325 0 
L 3669 0 
L 3244 1197 
L 1141 1197 
L 716 0 
L 50 0 
L 1831 4666 
z
" transform="scale(0.015625)"/>
       <path id="DejaVuSans-6c" d="M 603 4863 
L 1178 4863 
L 1178 0 
L 603 0 
L 603 4863 
z
" transform="scale(0.015625)"/>
       <path id="DejaVuSans-3a3" d="M 1353 531 
L 3634 531 
L 3634 0 
L 628 0 
L 628 531 
L 2125 2481 
L 628 4134 
L 628 4666 
L 3578 4666 
L 3578 4134 
L 1353 4134 
L 2850 2494 
L 1353 531 
z
" transform="scale(0.015625)"/>
       <path id="DejaVuSans-28" d="M 1984 4856 
Q 1566 4138 1362 3434 
Q 1159 2731 1159 2009 
Q 1159 1288 1364 580 
Q 1569 -128 1984 -844 
L 1484 -844 
Q 1016 -109 783 600 
Q 550 1309 550 2009 
Q 550 2706 781 3412 
Q 1013 4119 1484 4856 
L 1984 4856 
z
" transform="scale(0.015625)"/>
       <path id="DejaVuSans-4d" d="M 628 4666 
L 1569 4666 
L 2759 1491 
L 3956 4666 
L 4897 4666 
L 4897 0 
L 4281 0 
L 4281 4097 
L 3078 897 
L 2444 897 
L 1241 4097 
L 1241 0 
L 628 0 
L 628 4666 
z
" transform="scale(0.015625)"/>
       <path id="DejaVuSans-6e" d="M 3513 2113 
L 3513 0 
L 2938 0 
L 2938 2094 
Q 2938 2591 2744 2837 
Q 2550 3084 2163 3084 
Q 1697 3084 1428 2787 
Q 1159 2491 1159 1978 
L 1159 0 
L 581 0 
L 581 3500 
L 1159 3500 
L 1159 2956 
Q 1366 3272 1645 3428 
Q 1925 3584 2291 3584 
Q 2894 3584 3203 3211 
Q 3513 2838 3513 2113 
z
" transform="scale(0.015625)"/>
       <path id="DejaVuSans-29" d="M 513 4856 
L 1013 4856 
Q 1481 4119 1714 3412 
Q 1947 2706 1947 2009 
Q 1947 1309 1714 600 
Q 1481 -109 1013 -844 
L 513 -844 
Q 928 -128 1133 580 
Q 1338 1288 1338 2009 
Q 1338 2731 1133 3434 
Q 928 4138 513 4856 
z
" transform="scale(0.015625)"/>
      </defs>
      <use xlink:href="#DejaVuSans-41"/>
      <use xlink:href="#DejaVuSans-62" x="68.408203"/>
      <use xlink:href="#DejaVuSans-73" x="131.884766"/>
      <use xlink:href="#DejaVuSans-6f" x="183.984375"/>
      <use xlink:href="#DejaVuSans-6c" x="245.166016"/>
      <use xlink:href="#DejaVuSans-75" x="272.949219"/>
      <use xlink:href="#DejaVuSans-74" x="336.328125"/>
      <use xlink:href="#DejaVuSans-65" x="375.537109"/>
      <use xlink:href="#DejaVuSans-20" x="437.060547"/>
      <use xlink:href="#DejaVuSans-65" x="468.847656"/>
      <use xlink:href="#DejaVuSans-72" x="530.371094"/>
      <use xlink:href="#DejaVuSans-72" x="569.734375"/>
      <use xlink:href="#DejaVuSans-6f" x="608.597656"/>
      <use xlink:href="#DejaVuSans-72" x="669.779297"/>
      <use xlink:href="#DejaVuSans-20" x="710.892578"/>
      <use xlink:href="#DejaVuSans-3a3" x="742.679688"/>
      <use xlink:href="#DejaVuSans-28" x="805.863281"/>
      <use xlink:href="#DejaVuSans-4d" x="844.876953"/>
      <use xlink:href="#DejaVuSans-79" x="931.15625"/>
      <use xlink:href="#DejaVuSans-65" x="990.335938"/>
      <use xlink:href="#DejaVuSans-72" x="1051.859375"/>
      <use xlink:href="#DejaVuSans-73" x="1092.972656"/>
      <use xlink:href="#DejaVuSans-6f" x="1145.072266"/>
      <use xlink:href="#DejaVuSans-6e" x="1206.253906"/>
      <use xlink:href="#DejaVuSans-29" x="1269.632812"/>
     </g>
    </g>
   </g>
   <g id="line2d_12">
    <path d="M 73.832727 266.282162 
L 81.751131 266.960419 
L 89.669534 242.469629 
L 97.587938 268.180217 
L 105.506341 245.49386 
L 113.424745 253.650301 
L 121.343149 254.171312 
L 129.261552 225.824651 
L 137.179956 238.552032 
L 145.098359 234.568448 
L 153.016763 239.74713 
L 160.935166 223.456698 
L 168.85357 237.638824 
L 176.771973 244.379117 
L 184.690377 214.284541 
L 192.60878 244.841385 
L 200.527184 170.830454 
L 208.445588 208.629099 
L 216.363991 215.536752 
L 224.282395 223.658629 
L 232.200798 206.413889 
L 240.119202 139.813699 
L 248.037605 168.639715 
L 255.956009 179.502701 
L 263.874412 191.090182 
L 271.792816 200.33025 
L 279.71122 159.221667 
L 287.629623 163.814131 
L 295.548027 202.077726 
L 303.46643 188.36415 
L 311.384834 159.591525 
L 319.303237 230.148136 
L 327.221641 171.882921 
L 335.140044 172.838688 
L 343.058448 198.265873 
L 350.976851 160.881335 
L 358.895255 191.495818 
L 366.813659 185.952879 
L 374.732062 143.804592 
L 382.650466 157.345552 
L 390.568869 157.861924 
L 398.487273 176.855747 
" clip-path="url(#pc6324090d1)" style="fill: none; stroke: #1f77b4; stroke-width: 1.5; stroke-linecap: square"/>
   </g>
   <g id="line2d_13">
    <path d="M 73.832727 284.718737 
L 81.751131 279.570621 
L 89.669534 282.877025 
L 97.587938 284.61971 
L 105.506341 280.966014 
L 113.424745 277.090019 
L 121.343149 284.428644 
L 129.261552 277.303611 
L 137.179956 270.929701 
L 145.098359 272.244122 
L 153.016763 272.875649 
L 160.935166 274.427045 
L 168.85357 278.274254 
L 176.771973 278.818266 
L 184.690377 262.830644 
L 192.60878 272.329708 
L 200.527184 271.901486 
L 208.445588 250.870464 
L 216.363991 276.304066 
L 224.282395 270.74996 
L 232.200798 261.781271 
L 240.119202 268.371907 
L 248.037605 268.975307 
L 255.956009 256.81106 
L 263.874412 250.658106 
L 271.792816 253.755289 
L 279.71122 262.169507 
L 287.629623 267.725965 
L 295.548027 266.297222 
L 303.46643 260.607972 
L 311.384834 264.446774 
L 319.303237 256.624349 
L 327.221641 273.6621 
L 335.140044 277.597187 
L 343.058448 274.105493 
L 350.976851 268.858874 
L 358.895255 258.483263 
L 366.813659 257.5877 
L 374.732062 259.006896 
L 382.650466 240.88278 
L 390.568869 239.623772 
L 398.487273 243.877427 
" clip-path="url(#pc6324090d1)" style="fill: none; stroke: #ff7f0e; stroke-width: 1.5; stroke-linecap: square"/>
   </g>
   <g id="line2d_14">
    <path d="M 73.832727 291.849198 
L 81.751131 291.765847 
L 89.669534 290.400431 
L 97.587938 289.201643 
L 105.506341 286.651406 
L 113.424745 286.484014 
L 121.343149 290.113264 
L 129.261552 288.030216 
L 137.179956 279.791653 
L 145.098359 286.227589 
L 153.016763 289.98847 
L 160.935166 287.340576 
L 168.85357 286.004357 
L 176.771973 285.826918 
L 184.690377 282.560523 
L 192.60878 287.479302 
L 200.527184 283.285239 
L 208.445588 286.835764 
L 216.363991 286.112249 
L 224.282395 286.91622 
L 232.200798 284.755814 
L 240.119202 280.631937 
L 248.037605 283.357735 
L 255.956009 283.733064 
L 263.874412 283.557784 
L 271.792816 277.392322 
L 279.71122 277.581352 
L 287.629623 277.438936 
L 295.548027 284.100191 
L 303.46643 284.346475 
L 311.384834 282.825666 
L 319.303237 284.861169 
L 327.221641 284.256142 
L 335.140044 282.43916 
L 343.058448 284.077467 
L 350.976851 281.020938 
L 358.895255 277.52771 
L 366.813659 276.216351 
L 374.732062 284.735504 
L 382.650466 281.046276 
L 390.568869 285.665794 
L 398.487273 272.727221 
" clip-path="url(#pc6324090d1)" style="fill: none; stroke: #2ca02c; stroke-width: 1.5; stroke-linecap: square"/>
   </g>
   <g id="line2d_15">
    <path d="M 73.832727 292.51561 
L 81.751131 291.934442 
L 89.669534 291.833062 
L 97.587938 293.742822 
L 105.506341 287.716083 
L 113.424745 291.243988 
L 121.343149 292.756649 
L 129.261552 292.457732 
L 137.179956 289.864727 
L 145.098359 286.574086 
L 153.016763 287.443566 
L 160.935166 289.195486 
L 168.85357 290.766716 
L 176.771973 287.712622 
L 184.690377 290.132331 
L 192.60878 287.422652 
L 200.527184 286.513444 
L 208.445588 285.921054 
L 216.363991 285.191263 
L 224.282395 284.833562 
L 232.200798 287.807834 
L 240.119202 282.457755 
L 248.037605 283.499307 
L 255.956009 284.031231 
L 263.874412 285.302638 
L 271.792816 282.987305 
L 279.71122 277.987963 
L 287.629623 286.771016 
L 295.548027 284.85848 
L 303.46643 284.222767 
L 311.384834 285.23308 
L 319.303237 285.175755 
L 327.221641 290.136114 
L 335.140044 284.888534 
L 343.058448 282.165161 
L 350.976851 283.682905 
L 358.895255 281.46262 
L 366.813659 278.779612 
L 374.732062 282.062455 
L 382.650466 281.140567 
L 390.568869 286.570067 
L 398.487273 279.075125 
" clip-path="url(#pc6324090d1)" style="fill: none; stroke: #d62728; stroke-width: 1.5; stroke-linecap: square"/>
   </g>
   <g id="line2d_16">
    <path d="M 73.832727 294.577675 
L 81.751131 294.024021 
L 89.669534 294.081523 
L 97.587938 294.700094 
L 105.506341 294.333741 
L 113.424745 292.994738 
L 121.343149 294.217062 
L 129.261552 293.42949 
L 137.179956 293.616244 
L 145.098359 293.634522 
L 153.016763 293.021949 
L 160.935166 292.570806 
L 168.85357 292.45567 
L 176.771973 292.607423 
L 184.690377 292.909447 
L 192.60878 291.731991 
L 200.527184 293.398281 
L 208.445588 292.888053 
L 216.363991 291.89517 
L 224.282395 291.436657 
L 232.200798 291.188534 
L 240.119202 292.191168 
L 248.037605 290.877982 
L 255.956009 291.768047 
L 263.874412 290.942524 
L 271.792816 292.104726 
L 279.71122 290.368684 
L 287.629623 291.244442 
L 295.548027 290.428574 
L 303.46643 293.346037 
L 311.384834 291.398996 
L 319.303237 292.155203 
L 327.221641 291.173083 
L 335.140044 291.673821 
L 343.058448 289.156796 
L 350.976851 289.741382 
L 358.895255 289.181866 
L 366.813659 289.052744 
L 374.732062 290.569195 
L 382.650466 289.866704 
L 390.568869 290.248529 
L 398.487273 286.771529 
" clip-path="url(#pc6324090d1)" style="fill: none; stroke: #9467bd; stroke-width: 1.5; stroke-linecap: square"/>
   </g>
   <g id="line2d_17"/>
   <g id="line2d_18"/>
   <g id="line2d_19"/>
   <g id="line2d_20"/>
   <g id="line2d_21"/>
   <g id="patch_3">
    <path d="M 57.6 307.584 
L 57.6 41.472 
" style="fill: none; stroke: #000000; stroke-width: 0.8; stroke-linejoin: miter; stroke-linecap: square"/>
   </g>
   <g id="patch_4">
    <path d="M 414.72 307.584 
L 414.72 41.472 
" style="fill: none; stroke: #000000; stroke-width: 0.8; stroke-linejoin: miter; stroke-linecap: square"/>
   </g>
   <g id="patch_5">
    <path d="M 57.6 307.584 
L 414.72 307.584 
" style="fill: none; stroke: #000000; stroke-width: 0.8; stroke-linejoin: miter; stroke-linecap: square"/>
   </g>
   <g id="patch_6">
    <path d="M 57.6 41.472 
L 414.72 41.472 
" style="fill: none; stroke: #000000; stroke-width: 0.8; stroke-linejoin: miter; stroke-linecap: square"/>
   </g>
   <g id="legend_1">
    <g id="patch_7">
     <path d="M 350.27 137.54075 
L 407.72 137.54075 
Q 409.72 137.54075 409.72 135.54075 
L 409.72 48.472 
Q 409.72 46.472 407.72 46.472 
L 350.27 46.472 
Q 348.27 46.472 348.27 48.472 
L 348.27 135.54075 
Q 348.27 137.54075 350.27 137.54075 
z
" style="fill: #ffffff; opacity: 0.8; stroke: #cccccc; stroke-linejoin: miter"/>
    </g>
    <g id="text_14">
     <!-- Samples -->
     <g transform="translate(357.641875 58.070438) scale(0.1 -0.1)">
      <defs>
       <path id="DejaVuSans-53" d="M 3425 4513 
L 3425 3897 
Q 3066 4069 2747 4153 
Q 2428 4238 2131 4238 
Q 1616 4238 1336 4038 
Q 1056 3838 1056 3469 
Q 1056 3159 1242 3001 
Q 1428 2844 1947 2747 
L 2328 2669 
Q 3034 2534 3370 2195 
Q 3706 1856 3706 1288 
Q 3706 609 3251 259 
Q 2797 -91 1919 -91 
Q 1588 -91 1214 -16 
Q 841 59 441 206 
L 441 856 
Q 825 641 1194 531 
Q 1563 422 1919 422 
Q 2459 422 2753 634 
Q 3047 847 3047 1241 
Q 3047 1584 2836 1778 
Q 2625 1972 2144 2069 
L 1759 2144 
Q 1053 2284 737 2584 
Q 422 2884 422 3419 
Q 422 4038 858 4394 
Q 1294 4750 2059 4750 
Q 2388 4750 2728 4690 
Q 3069 4631 3425 4513 
z
" transform="scale(0.015625)"/>
      </defs>
      <use xlink:href="#DejaVuSans-53"/>
      <use xlink:href="#DejaVuSans-61" x="63.476562"/>
      <use xlink:href="#DejaVuSans-6d" x="124.755859"/>
      <use xlink:href="#DejaVuSans-70" x="222.167969"/>
      <use xlink:href="#DejaVuSans-6c" x="285.644531"/>
      <use xlink:href="#DejaVuSans-65" x="313.427734"/>
      <use xlink:href="#DejaVuSans-73" x="374.951172"/>
     </g>
    </g>
    <g id="line2d_22">
     <path d="M 352.27 69.248563 
L 362.27 69.248563 
L 372.27 69.248563 
" style="fill: none; stroke: #1f77b4; stroke-width: 1.5; stroke-linecap: square"/>
    </g>
    <g id="text_15">
     <!-- 10 -->
     <g transform="translate(380.27 72.748563) scale(0.1 -0.1)">
      <use xlink:href="#DejaVuSans-31"/>
      <use xlink:href="#DejaVuSans-30" x="63.623047"/>
     </g>
    </g>
    <g id="line2d_23">
     <path d="M 352.27 83.926688 
L 362.27 83.926688 
L 372.27 83.926688 
" style="fill: none; stroke: #ff7f0e; stroke-width: 1.5; stroke-linecap: square"/>
    </g>
    <g id="text_16">
     <!-- 100 -->
     <g transform="translate(380.27 87.426688) scale(0.1 -0.1)">
      <use xlink:href="#DejaVuSans-31"/>
      <use xlink:href="#DejaVuSans-30" x="63.623047"/>
      <use xlink:href="#DejaVuSans-30" x="127.246094"/>
     </g>
    </g>
    <g id="line2d_24">
     <path d="M 352.27 98.604813 
L 362.27 98.604813 
L 372.27 98.604813 
" style="fill: none; stroke: #2ca02c; stroke-width: 1.5; stroke-linecap: square"/>
    </g>
    <g id="text_17">
     <!-- 500 -->
     <g transform="translate(380.27 102.104813) scale(0.1 -0.1)">
      <use xlink:href="#DejaVuSans-35"/>
      <use xlink:href="#DejaVuSans-30" x="63.623047"/>
      <use xlink:href="#DejaVuSans-30" x="127.246094"/>
     </g>
    </g>
    <g id="line2d_25">
     <path d="M 352.27 113.282938 
L 362.27 113.282938 
L 372.27 113.282938 
" style="fill: none; stroke: #d62728; stroke-width: 1.5; stroke-linecap: square"/>
    </g>
    <g id="text_18">
     <!-- 1000 -->
     <g transform="translate(380.27 116.782938) scale(0.1 -0.1)">
      <use xlink:href="#DejaVuSans-31"/>
      <use xlink:href="#DejaVuSans-30" x="63.623047"/>
      <use xlink:href="#DejaVuSans-30" x="127.246094"/>
      <use xlink:href="#DejaVuSans-30" x="190.869141"/>
     </g>
    </g>
    <g id="line2d_26">
     <path d="M 352.27 127.961063 
L 362.27 127.961063 
L 372.27 127.961063 
" style="fill: none; stroke: #9467bd; stroke-width: 1.5; stroke-linecap: square"/>
    </g>
    <g id="text_19">
     <!-- 5000 -->
     <g transform="translate(380.27 131.461063) scale(0.1 -0.1)">
      <use xlink:href="#DejaVuSans-35"/>
      <use xlink:href="#DejaVuSans-30" x="63.623047"/>
      <use xlink:href="#DejaVuSans-30" x="127.246094"/>
      <use xlink:href="#DejaVuSans-30" x="190.869141"/>
     </g>
    </g>
   </g>
  </g>
 </g>
 <defs>
  <clipPath id="pc6324090d1">
   <rect x="57.6" y="41.472" width="357.12" height="266.112"/>
  </clipPath>
 </defs>
</svg>
