<?xml version="1.0" encoding="utf-8" standalone="no"?>
<!DOCTYPE svg PUBLIC "-//W3C//DTD SVG 1.1//EN"
  "http://www.w3.org/Graphics/SVG/1.1/DTD/svg11.dtd">
<svg xmlns:xlink="http://www.w3.org/1999/xlink" width="460.8pt" height="345.6pt" viewBox="0 0 460.8 345.6" xmlns="http://www.w3.org/2000/svg" version="1.1">
 <metadata>
  <rdf:RDF xmlns:dc="http://purl.org/dc/elements/1.1/" xmlns:cc="http://creativecommons.org/ns#" xmlns:rdf="http://www.w3.org/1999/02/22-rdf-syntax-ns#">
   <cc:Work>
    <dc:type rdf:resource="http://purl.org/dc/dcmitype/StillImage"/>
    <dc:date>2024-04-26T18:17:42.080213</dc:date>
    <dc:format>image/svg+xml</dc:format>
    <dc:creator>
     <cc:Agent>
      <dc:title>Matplotlib v3.7.1, https://matplotlib.org/</dc:title>
     </cc:Agent>
    </dc:creator>
   </cc:Work>
  </rdf:RDF>
 </metadata>
 <defs>
  <style type="text/css">*{stroke-linejoin: round; stroke-linecap: butt}</style>
 </defs>
 <g id="figure_1">
  <g id="patch_1">
   <path d="M 0 345.6 
L 460.8 345.6 
L 460.8 0 
L 0 0 
z
" style="fill: #ffffff"/>
  </g>
  <g id="axes_1">
   <g id="patch_2">
    <path d="M 57.6 307.584 
L 414.72 307.584 
L 414.72 41.472 
L 57.6 41.472 
z
" style="fill: #ffffff"/>
   </g>
   <g id="PolyCollection_1">
    <defs>
     <path id="md90b0081aa" d="M 73.832727 -43.445889 
L 73.832727 -43.368995 
L 81.751131 -43.406194 
L 89.669534 -43.437216 
L 97.587938 -43.466667 
L 105.506341 -43.504461 
L 113.424745 -43.579744 
L 121.343149 -43.671511 
L 129.261552 -43.619796 
L 137.179956 -43.700945 
L 145.098359 -43.726837 
L 153.016763 -43.818655 
L 160.935166 -43.823266 
L 168.85357 -43.930829 
L 176.771973 -44.014155 
L 184.690377 -43.951695 
L 192.60878 -43.978754 
L 200.527184 -44.056472 
L 208.445588 -44.125982 
L 216.363991 -44.153867 
L 224.282395 -44.246717 
L 232.200798 -44.355966 
L 240.119202 -44.263785 
L 248.037605 -44.342867 
L 255.956009 -44.409003 
L 263.874412 -44.523609 
L 271.792816 -44.420857 
L 279.71122 -44.554067 
L 287.629623 -44.578755 
L 295.548027 -44.697468 
L 303.46643 -44.669457 
L 311.384834 -44.774857 
L 319.303237 -44.828145 
L 327.221641 -44.863716 
L 335.140044 -44.911083 
L 343.058448 -45.013891 
L 350.976851 -45.075941 
L 358.895255 -45.056818 
L 366.813659 -45.1578 
L 374.732062 -45.296614 
L 382.650466 -45.338263 
L 390.568869 -45.288179 
L 398.487273 -45.487701 
L 398.487273 -45.727427 
L 398.487273 -45.727427 
L 390.568869 -45.729027 
L 382.650466 -45.636176 
L 374.732062 -45.57964 
L 366.813659 -45.434529 
L 358.895255 -45.532021 
L 350.976851 -45.383735 
L 343.058448 -45.187693 
L 335.140044 -45.217604 
L 327.221641 -45.239403 
L 319.303237 -45.044618 
L 311.384834 -45.021469 
L 303.46643 -44.867437 
L 295.548027 -44.919567 
L 287.629623 -44.91888 
L 279.71122 -44.745159 
L 271.792816 -44.701373 
L 263.874412 -45.012907 
L 255.956009 -44.762285 
L 248.037605 -44.74689 
L 240.119202 -44.439498 
L 232.200798 -44.601209 
L 224.282395 -44.576092 
L 216.363991 -44.234784 
L 208.445588 -44.298419 
L 200.527184 -44.422547 
L 192.60878 -44.236757 
L 184.690377 -44.100791 
L 176.771973 -44.113463 
L 168.85357 -44.020778 
L 160.935166 -43.960987 
L 153.016763 -43.98862 
L 145.098359 -43.840983 
L 137.179956 -43.857316 
L 129.261552 -43.739928 
L 121.343149 -43.762366 
L 113.424745 -43.71022 
L 105.506341 -43.648069 
L 97.587938 -43.516374 
L 89.669534 -43.469882 
L 81.751131 -43.530816 
L 73.832727 -43.445889 
z
" style="stroke: #1f77b4; stroke-opacity: 0.2"/>
    </defs>
    <g clip-path="url(#pa28c0c7dff)">
     <use xlink:href="#md90b0081aa" x="0" y="345.6" style="fill: #1f77b4; fill-opacity: 0.2; stroke: #1f77b4; stroke-opacity: 0.2"/>
    </g>
   </g>
   <g id="PolyCollection_2">
    <defs>
     <path id="m54ab118214" d="M 73.832727 -43.700368 
L 73.832727 -43.596295 
L 81.751131 -43.798328 
L 89.669534 -44.013565 
L 97.587938 -44.057268 
L 105.506341 -44.365612 
L 113.424745 -44.483892 
L 121.343149 -44.8765 
L 129.261552 -45.170529 
L 137.179956 -45.364994 
L 145.098359 -45.311058 
L 153.016763 -45.396541 
L 160.935166 -45.785761 
L 168.85357 -46.159953 
L 176.771973 -46.421841 
L 184.690377 -46.383613 
L 192.60878 -46.734284 
L 200.527184 -46.922959 
L 208.445588 -47.415603 
L 216.363991 -47.305614 
L 224.282395 -47.63088 
L 232.200798 -48.153173 
L 240.119202 -47.715752 
L 248.037605 -48.130441 
L 255.956009 -48.517857 
L 263.874412 -48.79857 
L 271.792816 -49.198668 
L 279.71122 -49.147545 
L 287.629623 -49.553255 
L 295.548027 -49.772036 
L 303.46643 -49.647186 
L 311.384834 -50.140541 
L 319.303237 -50.367873 
L 327.221641 -50.45931 
L 335.140044 -50.926748 
L 343.058448 -51.211314 
L 350.976851 -51.501304 
L 358.895255 -51.554293 
L 366.813659 -51.764676 
L 374.732062 -52.529627 
L 382.650466 -52.752236 
L 390.568869 -52.671348 
L 398.487273 -52.031174 
L 398.487273 -53.146687 
L 398.487273 -53.146687 
L 390.568869 -53.32672 
L 382.650466 -53.942137 
L 374.732062 -53.171073 
L 366.813659 -52.703817 
L 358.895255 -53.532646 
L 350.976851 -52.925719 
L 343.058448 -52.256476 
L 335.140044 -51.632161 
L 327.221641 -51.04874 
L 319.303237 -51.085869 
L 311.384834 -50.887082 
L 303.46643 -50.611995 
L 295.548027 -51.291762 
L 287.629623 -50.37393 
L 279.71122 -49.657617 
L 271.792816 -50.130205 
L 263.874412 -50.347251 
L 255.956009 -50.902558 
L 248.037605 -49.137656 
L 240.119202 -48.292793 
L 232.200798 -49.026154 
L 224.282395 -48.673127 
L 216.363991 -48.165119 
L 208.445588 -48.148483 
L 200.527184 -47.927166 
L 192.60878 -47.453082 
L 184.690377 -46.980649 
L 176.771973 -47.20217 
L 168.85357 -46.766066 
L 160.935166 -46.210361 
L 153.016763 -46.300541 
L 145.098359 -45.83003 
L 137.179956 -45.893977 
L 129.261552 -45.605904 
L 121.343149 -45.299398 
L 113.424745 -44.861724 
L 105.506341 -44.701019 
L 97.587938 -44.304905 
L 89.669534 -44.247814 
L 81.751131 -44.06684 
L 73.832727 -43.700368 
z
" style="stroke: #ff7f0e; stroke-opacity: 0.2"/>
    </defs>
    <g clip-path="url(#pa28c0c7dff)">
     <use xlink:href="#m54ab118214" x="0" y="345.6" style="fill: #ff7f0e; fill-opacity: 0.2; stroke: #ff7f0e; stroke-opacity: 0.2"/>
    </g>
   </g>
   <g id="PolyCollection_3">
    <defs>
     <path id="m44a1f95df7" d="M 73.832727 -43.902083 
L 73.832727 -43.783101 
L 81.751131 -44.100269 
L 89.669534 -44.510194 
L 97.587938 -44.66327 
L 105.506341 -45.458624 
L 113.424745 -45.778334 
L 121.343149 -46.937101 
L 129.261552 -47.974144 
L 137.179956 -48.372644 
L 145.098359 -48.828602 
L 153.016763 -48.358223 
L 160.935166 -50.694413 
L 168.85357 -50.64768 
L 176.771973 -51.208572 
L 184.690377 -52.155032 
L 192.60878 -52.824919 
L 200.527184 -54.354288 
L 208.445588 -55.979398 
L 216.363991 -55.691772 
L 224.282395 -56.158365 
L 232.200798 -58.555784 
L 240.119202 -58.13367 
L 248.037605 -58.775735 
L 255.956009 -61.107613 
L 263.874412 -61.658978 
L 271.792816 -63.575952 
L 279.71122 -62.879661 
L 287.629623 -64.228313 
L 295.548027 -65.788294 
L 303.46643 -65.493487 
L 311.384834 -66.157667 
L 319.303237 -68.365247 
L 327.221641 -68.52868 
L 335.140044 -69.533585 
L 343.058448 -70.766135 
L 350.976851 -71.999321 
L 358.895255 -70.087657 
L 366.813659 -73.068545 
L 374.732062 -75.88503 
L 382.650466 -77.158505 
L 390.568869 -77.591249 
L 398.487273 -74.148809 
L 398.487273 -79.496012 
L 398.487273 -79.496012 
L 390.568869 -82.151264 
L 382.650466 -82.565542 
L 374.732062 -78.461764 
L 366.813659 -78.370585 
L 358.895255 -74.072467 
L 350.976851 -77.642686 
L 343.058448 -73.888054 
L 335.140044 -74.371791 
L 327.221641 -70.680959 
L 319.303237 -71.969176 
L 311.384834 -69.004272 
L 303.46643 -68.584763 
L 295.548027 -70.978529 
L 287.629623 -65.64476 
L 279.71122 -66.241318 
L 271.792816 -66.591858 
L 263.874412 -63.402716 
L 255.956009 -65.71164 
L 248.037605 -62.379515 
L 240.119202 -61.234373 
L 232.200798 -62.880582 
L 224.282395 -61.001755 
L 216.363991 -60.060717 
L 208.445588 -59.054391 
L 200.527184 -56.636631 
L 192.60878 -55.291149 
L 184.690377 -54.666282 
L 176.771973 -54.772582 
L 168.85357 -53.937801 
L 160.935166 -52.170561 
L 153.016763 -51.241377 
L 145.098359 -50.05754 
L 137.179956 -49.770688 
L 129.261552 -49.06423 
L 121.343149 -47.717936 
L 113.424745 -46.654172 
L 105.506341 -46.136327 
L 97.587938 -45.058935 
L 89.669534 -44.877085 
L 81.751131 -44.44093 
L 73.832727 -43.902083 
z
" style="stroke: #2ca02c; stroke-opacity: 0.2"/>
    </defs>
    <g clip-path="url(#pa28c0c7dff)">
     <use xlink:href="#m44a1f95df7" x="0" y="345.6" style="fill: #2ca02c; fill-opacity: 0.2; stroke: #2ca02c; stroke-opacity: 0.2"/>
    </g>
   </g>
   <g id="PolyCollection_4">
    <defs>
     <path id="mb1e325666a" d="M 73.832727 -44.096001 
L 73.832727 -43.98551 
L 81.751131 -44.31906 
L 89.669534 -44.791256 
L 97.587938 -45.028636 
L 105.506341 -46.141567 
L 113.424745 -46.726301 
L 121.343149 -47.954715 
L 129.261552 -49.684529 
L 137.179956 -50.441901 
L 145.098359 -50.945597 
L 153.016763 -50.952819 
L 160.935166 -54.104152 
L 168.85357 -54.349106 
L 176.771973 -55.628288 
L 184.690377 -57.539348 
L 192.60878 -57.823263 
L 200.527184 -61.01534 
L 208.445588 -63.376032 
L 216.363991 -62.845574 
L 224.282395 -63.752315 
L 232.200798 -68.311442 
L 240.119202 -68.230818 
L 248.037605 -68.055285 
L 255.956009 -71.845594 
L 263.874412 -73.300048 
L 271.792816 -76.968164 
L 279.71122 -77.980022 
L 287.629623 -77.878727 
L 295.548027 -80.864354 
L 303.46643 -81.074111 
L 311.384834 -82.504605 
L 319.303237 -86.798287 
L 327.221641 -88.163693 
L 335.140044 -88.669985 
L 343.058448 -89.248016 
L 350.976851 -91.489398 
L 358.895255 -90.653067 
L 366.813659 -93.516696 
L 374.732062 -102.338337 
L 382.650466 -103.298128 
L 390.568869 -102.625781 
L 398.487273 -96.245686 
L 398.487273 -105.52026 
L 398.487273 -105.52026 
L 390.568869 -113.090186 
L 382.650466 -116.517125 
L 374.732062 -111.388666 
L 366.813659 -103.848997 
L 358.895255 -97.024717 
L 350.976851 -102.603768 
L 343.058448 -96.691535 
L 335.140044 -97.596726 
L 327.221641 -95.924883 
L 319.303237 -95.321542 
L 311.384834 -89.511677 
L 303.46643 -87.97864 
L 295.548027 -89.888521 
L 287.629623 -81.407763 
L 279.71122 -85.81181 
L 271.792816 -83.368291 
L 263.874412 -77.120952 
L 255.956009 -80.659818 
L 248.037605 -72.278348 
L 240.119202 -73.159399 
L 232.200798 -76.253104 
L 224.282395 -68.438562 
L 216.363991 -72.512295 
L 208.445588 -70.012037 
L 200.527184 -63.320894 
L 192.60878 -62.013315 
L 184.690377 -62.812368 
L 176.771973 -60.206879 
L 168.85357 -59.845771 
L 160.935166 -56.965036 
L 153.016763 -54.217199 
L 145.098359 -53.130058 
L 137.179956 -52.479583 
L 129.261552 -51.30954 
L 121.343149 -49.149452 
L 113.424745 -47.691966 
L 105.506341 -47.059375 
L 97.587938 -45.486467 
L 89.669534 -45.190529 
L 81.751131 -44.644136 
L 73.832727 -44.096001 
z
" style="stroke: #d62728; stroke-opacity: 0.2"/>
    </defs>
    <g clip-path="url(#pa28c0c7dff)">
     <use xlink:href="#mb1e325666a" x="0" y="345.6" style="fill: #d62728; fill-opacity: 0.2; stroke: #d62728; stroke-opacity: 0.2"/>
    </g>
   </g>
   <g id="PolyCollection_5">
    <defs>
     <path id="mde02081c1f" d="M 73.832727 -45.671859 
L 73.832727 -45.560728 
L 81.751131 -46.032362 
L 89.669534 -46.718121 
L 97.587938 -47.198444 
L 105.506341 -48.712736 
L 113.424745 -50.090072 
L 121.343149 -52.950655 
L 129.261552 -56.434944 
L 137.179956 -59.527294 
L 145.098359 -61.342511 
L 153.016763 -62.902091 
L 160.935166 -70.355079 
L 168.85357 -75.118308 
L 176.771973 -76.225246 
L 184.690377 -82.944031 
L 192.60878 -85.06966 
L 200.527184 -94.489175 
L 208.445588 -100.964336 
L 216.363991 -103.842835 
L 224.282395 -107.221088 
L 232.200798 -122.102194 
L 240.119202 -121.134094 
L 248.037605 -121.02693 
L 255.956009 -134.331584 
L 263.874412 -140.159745 
L 271.792816 -156.801934 
L 279.71122 -153.782181 
L 287.629623 -160.609949 
L 295.548027 -170.084695 
L 303.46643 -175.271455 
L 311.384834 -175.463956 
L 319.303237 -193.317616 
L 327.221641 -195.937716 
L 335.140044 -205.747774 
L 343.058448 -204.917759 
L 350.976851 -217.844335 
L 358.895255 -206.07727 
L 366.813659 -224.007435 
L 374.732062 -254.052112 
L 382.650466 -268.364267 
L 390.568869 -261.666743 
L 398.487273 -239.600348 
L 398.487273 -275.551927 
L 398.487273 -275.551927 
L 390.568869 -330.581228 
L 382.650466 -336.902703 
L 374.732062 -275.691385 
L 366.813659 -283.238075 
L 358.895255 -233.616046 
L 350.976851 -276.105887 
L 343.058448 -247.393527 
L 335.140044 -256.65549 
L 327.221641 -218.553511 
L 319.303237 -218.481952 
L 311.384834 -196.366979 
L 303.46643 -204.911514 
L 295.548027 -196.777543 
L 287.629623 -184.469314 
L 279.71122 -177.551765 
L 271.792816 -187.961046 
L 263.874412 -161.405427 
L 255.956009 -160.339459 
L 248.037605 -148.358738 
L 240.119202 -144.794335 
L 232.200798 -148.004204 
L 224.282395 -129.198403 
L 216.363991 -134.766948 
L 208.445588 -125.662286 
L 200.527184 -103.519644 
L 192.60878 -95.964567 
L 184.690377 -98.048888 
L 176.771973 -86.523475 
L 168.85357 -90.126005 
L 160.935166 -78.627988 
L 153.016763 -70.13961 
L 145.098359 -66.543502 
L 137.179956 -63.504297 
L 129.261552 -58.912093 
L 121.343149 -55.001644 
L 113.424745 -51.279024 
L 105.506341 -49.763259 
L 97.587938 -47.640856 
L 89.669534 -47.118808 
L 81.751131 -46.407237 
L 73.832727 -45.671859 
z
" style="stroke: #9467bd; stroke-opacity: 0.2"/>
    </defs>
    <g clip-path="url(#pa28c0c7dff)">
     <use xlink:href="#mde02081c1f" x="0" y="345.6" style="fill: #9467bd; fill-opacity: 0.2; stroke: #9467bd; stroke-opacity: 0.2"/>
    </g>
   </g>
   <g id="PolyCollection_6">
    <path d="M 73.832727 301.867877 
L 73.832727 301.963075 
L 81.751131 301.808369 
L 89.669534 301.269877 
L 97.587938 301.009221 
L 105.506341 299.813406 
L 113.424745 298.382882 
L 121.343149 294.841102 
L 129.261552 288.502099 
L 137.179956 279.311621 
L 145.098359 260.387461 
L 153.016763 222.891373 
L 160.935166 133.585918 
L 168.85357 -39.401181 
L 176.771973 -400.392989 
L 184.690377 -1153.768937 
L 192.60878 -2644.117178 
L 200.527184 -5791.555587 
L 208.445588 -12363.413775 
L 208.445588 -12944.620797 
L 208.445588 -12944.620797 
L 200.527184 -5888.393237 
L 192.60878 -2700.505572 
L 184.690377 -1243.709112 
L 176.771973 -447.821928 
L 168.85357 -85.128075 
L 160.935166 120.090723 
L 153.016763 210.309411 
L 145.098359 254.298633 
L 137.179956 275.446548 
L 129.261552 285.709709 
L 121.343149 293.234019 
L 113.424745 297.287424 
L 105.506341 298.95165 
L 97.587938 300.562246 
L 89.669534 300.877661 
L 81.751131 301.628143 
L 73.832727 301.867877 
z
" clip-path="url(#pa28c0c7dff)" style="fill: #8c564b; fill-opacity: 0.2; stroke: #8c564b; stroke-opacity: 0.2"/>
   </g>
   <g id="matplotlib.axis_1">
    <g id="xtick_1">
     <g id="line2d_1">
      <defs>
       <path id="ma6d545cf22" d="M 0 0 
L 0 3.5 
" style="stroke: #000000; stroke-width: 0.8"/>
      </defs>
      <g>
       <use xlink:href="#ma6d545cf22" x="81.751131" y="307.584" style="stroke: #000000; stroke-width: 0.8"/>
      </g>
     </g>
     <g id="text_1">
      <!-- 10 -->
      <g transform="translate(75.388631 322.182437) scale(0.1 -0.1)">
       <defs>
        <path id="DejaVuSans-31" d="M 794 531 
L 1825 531 
L 1825 4091 
L 703 3866 
L 703 4441 
L 1819 4666 
L 2450 4666 
L 2450 531 
L 3481 531 
L 3481 0 
L 794 0 
L 794 531 
z
" transform="scale(0.015625)"/>
        <path id="DejaVuSans-30" d="M 2034 4250 
Q 1547 4250 1301 3770 
Q 1056 3291 1056 2328 
Q 1056 1369 1301 889 
Q 1547 409 2034 409 
Q 2525 409 2770 889 
Q 3016 1369 3016 2328 
Q 3016 3291 2770 3770 
Q 2525 4250 2034 4250 
z
M 2034 4750 
Q 2819 4750 3233 4129 
Q 3647 3509 3647 2328 
Q 3647 1150 3233 529 
Q 2819 -91 2034 -91 
Q 1250 -91 836 529 
Q 422 1150 422 2328 
Q 422 3509 836 4129 
Q 1250 4750 2034 4750 
z
" transform="scale(0.015625)"/>
       </defs>
       <use xlink:href="#DejaVuSans-31"/>
       <use xlink:href="#DejaVuSans-30" x="63.623047"/>
      </g>
     </g>
    </g>
    <g id="xtick_2">
     <g id="line2d_2">
      <g>
       <use xlink:href="#ma6d545cf22" x="160.935166" y="307.584" style="stroke: #000000; stroke-width: 0.8"/>
      </g>
     </g>
     <g id="text_2">
      <!-- 20 -->
      <g transform="translate(154.572666 322.182437) scale(0.1 -0.1)">
       <defs>
        <path id="DejaVuSans-32" d="M 1228 531 
L 3431 531 
L 3431 0 
L 469 0 
L 469 531 
Q 828 903 1448 1529 
Q 2069 2156 2228 2338 
Q 2531 2678 2651 2914 
Q 2772 3150 2772 3378 
Q 2772 3750 2511 3984 
Q 2250 4219 1831 4219 
Q 1534 4219 1204 4116 
Q 875 4013 500 3803 
L 500 4441 
Q 881 4594 1212 4672 
Q 1544 4750 1819 4750 
Q 2544 4750 2975 4387 
Q 3406 4025 3406 3419 
Q 3406 3131 3298 2873 
Q 3191 2616 2906 2266 
Q 2828 2175 2409 1742 
Q 1991 1309 1228 531 
z
" transform="scale(0.015625)"/>
       </defs>
       <use xlink:href="#DejaVuSans-32"/>
       <use xlink:href="#DejaVuSans-30" x="63.623047"/>
      </g>
     </g>
    </g>
    <g id="xtick_3">
     <g id="line2d_3">
      <g>
       <use xlink:href="#ma6d545cf22" x="240.119202" y="307.584" style="stroke: #000000; stroke-width: 0.8"/>
      </g>
     </g>
     <g id="text_3">
      <!-- 30 -->
      <g transform="translate(233.756702 322.182437) scale(0.1 -0.1)">
       <defs>
        <path id="DejaVuSans-33" d="M 2597 2516 
Q 3050 2419 3304 2112 
Q 3559 1806 3559 1356 
Q 3559 666 3084 287 
Q 2609 -91 1734 -91 
Q 1441 -91 1130 -33 
Q 819 25 488 141 
L 488 750 
Q 750 597 1062 519 
Q 1375 441 1716 441 
Q 2309 441 2620 675 
Q 2931 909 2931 1356 
Q 2931 1769 2642 2001 
Q 2353 2234 1838 2234 
L 1294 2234 
L 1294 2753 
L 1863 2753 
Q 2328 2753 2575 2939 
Q 2822 3125 2822 3475 
Q 2822 3834 2567 4026 
Q 2313 4219 1838 4219 
Q 1578 4219 1281 4162 
Q 984 4106 628 3988 
L 628 4550 
Q 988 4650 1302 4700 
Q 1616 4750 1894 4750 
Q 2613 4750 3031 4423 
Q 3450 4097 3450 3541 
Q 3450 3153 3228 2886 
Q 3006 2619 2597 2516 
z
" transform="scale(0.015625)"/>
       </defs>
       <use xlink:href="#DejaVuSans-33"/>
       <use xlink:href="#DejaVuSans-30" x="63.623047"/>
      </g>
     </g>
    </g>
    <g id="xtick_4">
     <g id="line2d_4">
      <g>
       <use xlink:href="#ma6d545cf22" x="319.303237" y="307.584" style="stroke: #000000; stroke-width: 0.8"/>
      </g>
     </g>
     <g id="text_4">
      <!-- 40 -->
      <g transform="translate(312.940737 322.182437) scale(0.1 -0.1)">
       <defs>
        <path id="DejaVuSans-34" d="M 2419 4116 
L 825 1625 
L 2419 1625 
L 2419 4116 
z
M 2253 4666 
L 3047 4666 
L 3047 1625 
L 3713 1625 
L 3713 1100 
L 3047 1100 
L 3047 0 
L 2419 0 
L 2419 1100 
L 313 1100 
L 313 1709 
L 2253 4666 
z
" transform="scale(0.015625)"/>
       </defs>
       <use xlink:href="#DejaVuSans-34"/>
       <use xlink:href="#DejaVuSans-30" x="63.623047"/>
      </g>
     </g>
    </g>
    <g id="xtick_5">
     <g id="line2d_5">
      <g>
       <use xlink:href="#ma6d545cf22" x="398.487273" y="307.584" style="stroke: #000000; stroke-width: 0.8"/>
      </g>
     </g>
     <g id="text_5">
      <!-- 50 -->
      <g transform="translate(392.124773 322.182437) scale(0.1 -0.1)">
       <defs>
        <path id="DejaVuSans-35" d="M 691 4666 
L 3169 4666 
L 3169 4134 
L 1269 4134 
L 1269 2991 
Q 1406 3038 1543 3061 
Q 1681 3084 1819 3084 
Q 2600 3084 3056 2656 
Q 3513 2228 3513 1497 
Q 3513 744 3044 326 
Q 2575 -91 1722 -91 
Q 1428 -91 1123 -41 
Q 819 9 494 109 
L 494 744 
Q 775 591 1075 516 
Q 1375 441 1709 441 
Q 2250 441 2565 725 
Q 2881 1009 2881 1497 
Q 2881 1984 2565 2268 
Q 2250 2553 1709 2553 
Q 1456 2553 1204 2497 
Q 953 2441 691 2322 
L 691 4666 
z
" transform="scale(0.015625)"/>
       </defs>
       <use xlink:href="#DejaVuSans-35"/>
       <use xlink:href="#DejaVuSans-30" x="63.623047"/>
      </g>
     </g>
    </g>
    <g id="text_6">
     <!-- Graph size || Number heavy atoms -->
     <g transform="translate(148.942031 335.904313) scale(0.1 -0.1)">
      <defs>
       <path id="DejaVuSans-47" d="M 3809 666 
L 3809 1919 
L 2778 1919 
L 2778 2438 
L 4434 2438 
L 4434 434 
Q 4069 175 3628 42 
Q 3188 -91 2688 -91 
Q 1594 -91 976 548 
Q 359 1188 359 2328 
Q 359 3472 976 4111 
Q 1594 4750 2688 4750 
Q 3144 4750 3555 4637 
Q 3966 4525 4313 4306 
L 4313 3634 
Q 3963 3931 3569 4081 
Q 3175 4231 2741 4231 
Q 1884 4231 1454 3753 
Q 1025 3275 1025 2328 
Q 1025 1384 1454 906 
Q 1884 428 2741 428 
Q 3075 428 3337 486 
Q 3600 544 3809 666 
z
" transform="scale(0.015625)"/>
       <path id="DejaVuSans-72" d="M 2631 2963 
Q 2534 3019 2420 3045 
Q 2306 3072 2169 3072 
Q 1681 3072 1420 2755 
Q 1159 2438 1159 1844 
L 1159 0 
L 581 0 
L 581 3500 
L 1159 3500 
L 1159 2956 
Q 1341 3275 1631 3429 
Q 1922 3584 2338 3584 
Q 2397 3584 2469 3576 
Q 2541 3569 2628 3553 
L 2631 2963 
z
" transform="scale(0.015625)"/>
       <path id="DejaVuSans-61" d="M 2194 1759 
Q 1497 1759 1228 1600 
Q 959 1441 959 1056 
Q 959 750 1161 570 
Q 1363 391 1709 391 
Q 2188 391 2477 730 
Q 2766 1069 2766 1631 
L 2766 1759 
L 2194 1759 
z
M 3341 1997 
L 3341 0 
L 2766 0 
L 2766 531 
Q 2569 213 2275 61 
Q 1981 -91 1556 -91 
Q 1019 -91 701 211 
Q 384 513 384 1019 
Q 384 1609 779 1909 
Q 1175 2209 1959 2209 
L 2766 2209 
L 2766 2266 
Q 2766 2663 2505 2880 
Q 2244 3097 1772 3097 
Q 1472 3097 1187 3025 
Q 903 2953 641 2809 
L 641 3341 
Q 956 3463 1253 3523 
Q 1550 3584 1831 3584 
Q 2591 3584 2966 3190 
Q 3341 2797 3341 1997 
z
" transform="scale(0.015625)"/>
       <path id="DejaVuSans-70" d="M 1159 525 
L 1159 -1331 
L 581 -1331 
L 581 3500 
L 1159 3500 
L 1159 2969 
Q 1341 3281 1617 3432 
Q 1894 3584 2278 3584 
Q 2916 3584 3314 3078 
Q 3713 2572 3713 1747 
Q 3713 922 3314 415 
Q 2916 -91 2278 -91 
Q 1894 -91 1617 61 
Q 1341 213 1159 525 
z
M 3116 1747 
Q 3116 2381 2855 2742 
Q 2594 3103 2138 3103 
Q 1681 3103 1420 2742 
Q 1159 2381 1159 1747 
Q 1159 1113 1420 752 
Q 1681 391 2138 391 
Q 2594 391 2855 752 
Q 3116 1113 3116 1747 
z
" transform="scale(0.015625)"/>
       <path id="DejaVuSans-68" d="M 3513 2113 
L 3513 0 
L 2938 0 
L 2938 2094 
Q 2938 2591 2744 2837 
Q 2550 3084 2163 3084 
Q 1697 3084 1428 2787 
Q 1159 2491 1159 1978 
L 1159 0 
L 581 0 
L 581 4863 
L 1159 4863 
L 1159 2956 
Q 1366 3272 1645 3428 
Q 1925 3584 2291 3584 
Q 2894 3584 3203 3211 
Q 3513 2838 3513 2113 
z
" transform="scale(0.015625)"/>
       <path id="DejaVuSans-20" transform="scale(0.015625)"/>
       <path id="DejaVuSans-73" d="M 2834 3397 
L 2834 2853 
Q 2591 2978 2328 3040 
Q 2066 3103 1784 3103 
Q 1356 3103 1142 2972 
Q 928 2841 928 2578 
Q 928 2378 1081 2264 
Q 1234 2150 1697 2047 
L 1894 2003 
Q 2506 1872 2764 1633 
Q 3022 1394 3022 966 
Q 3022 478 2636 193 
Q 2250 -91 1575 -91 
Q 1294 -91 989 -36 
Q 684 19 347 128 
L 347 722 
Q 666 556 975 473 
Q 1284 391 1588 391 
Q 1994 391 2212 530 
Q 2431 669 2431 922 
Q 2431 1156 2273 1281 
Q 2116 1406 1581 1522 
L 1381 1569 
Q 847 1681 609 1914 
Q 372 2147 372 2553 
Q 372 3047 722 3315 
Q 1072 3584 1716 3584 
Q 2034 3584 2315 3537 
Q 2597 3491 2834 3397 
z
" transform="scale(0.015625)"/>
       <path id="DejaVuSans-69" d="M 603 3500 
L 1178 3500 
L 1178 0 
L 603 0 
L 603 3500 
z
M 603 4863 
L 1178 4863 
L 1178 4134 
L 603 4134 
L 603 4863 
z
" transform="scale(0.015625)"/>
       <path id="DejaVuSans-7a" d="M 353 3500 
L 3084 3500 
L 3084 2975 
L 922 459 
L 3084 459 
L 3084 0 
L 275 0 
L 275 525 
L 2438 3041 
L 353 3041 
L 353 3500 
z
" transform="scale(0.015625)"/>
       <path id="DejaVuSans-65" d="M 3597 1894 
L 3597 1613 
L 953 1613 
Q 991 1019 1311 708 
Q 1631 397 2203 397 
Q 2534 397 2845 478 
Q 3156 559 3463 722 
L 3463 178 
Q 3153 47 2828 -22 
Q 2503 -91 2169 -91 
Q 1331 -91 842 396 
Q 353 884 353 1716 
Q 353 2575 817 3079 
Q 1281 3584 2069 3584 
Q 2775 3584 3186 3129 
Q 3597 2675 3597 1894 
z
M 3022 2063 
Q 3016 2534 2758 2815 
Q 2500 3097 2075 3097 
Q 1594 3097 1305 2825 
Q 1016 2553 972 2059 
L 3022 2063 
z
" transform="scale(0.015625)"/>
       <path id="DejaVuSans-7c" d="M 1344 4891 
L 1344 -1509 
L 813 -1509 
L 813 4891 
L 1344 4891 
z
" transform="scale(0.015625)"/>
       <path id="DejaVuSans-4e" d="M 628 4666 
L 1478 4666 
L 3547 763 
L 3547 4666 
L 4159 4666 
L 4159 0 
L 3309 0 
L 1241 3903 
L 1241 0 
L 628 0 
L 628 4666 
z
" transform="scale(0.015625)"/>
       <path id="DejaVuSans-75" d="M 544 1381 
L 544 3500 
L 1119 3500 
L 1119 1403 
Q 1119 906 1312 657 
Q 1506 409 1894 409 
Q 2359 409 2629 706 
Q 2900 1003 2900 1516 
L 2900 3500 
L 3475 3500 
L 3475 0 
L 2900 0 
L 2900 538 
Q 2691 219 2414 64 
Q 2138 -91 1772 -91 
Q 1169 -91 856 284 
Q 544 659 544 1381 
z
M 1991 3584 
L 1991 3584 
z
" transform="scale(0.015625)"/>
       <path id="DejaVuSans-6d" d="M 3328 2828 
Q 3544 3216 3844 3400 
Q 4144 3584 4550 3584 
Q 5097 3584 5394 3201 
Q 5691 2819 5691 2113 
L 5691 0 
L 5113 0 
L 5113 2094 
Q 5113 2597 4934 2840 
Q 4756 3084 4391 3084 
Q 3944 3084 3684 2787 
Q 3425 2491 3425 1978 
L 3425 0 
L 2847 0 
L 2847 2094 
Q 2847 2600 2669 2842 
Q 2491 3084 2119 3084 
Q 1678 3084 1418 2786 
Q 1159 2488 1159 1978 
L 1159 0 
L 581 0 
L 581 3500 
L 1159 3500 
L 1159 2956 
Q 1356 3278 1631 3431 
Q 1906 3584 2284 3584 
Q 2666 3584 2933 3390 
Q 3200 3197 3328 2828 
z
" transform="scale(0.015625)"/>
       <path id="DejaVuSans-62" d="M 3116 1747 
Q 3116 2381 2855 2742 
Q 2594 3103 2138 3103 
Q 1681 3103 1420 2742 
Q 1159 2381 1159 1747 
Q 1159 1113 1420 752 
Q 1681 391 2138 391 
Q 2594 391 2855 752 
Q 3116 1113 3116 1747 
z
M 1159 2969 
Q 1341 3281 1617 3432 
Q 1894 3584 2278 3584 
Q 2916 3584 3314 3078 
Q 3713 2572 3713 1747 
Q 3713 922 3314 415 
Q 2916 -91 2278 -91 
Q 1894 -91 1617 61 
Q 1341 213 1159 525 
L 1159 0 
L 581 0 
L 581 4863 
L 1159 4863 
L 1159 2969 
z
" transform="scale(0.015625)"/>
       <path id="DejaVuSans-76" d="M 191 3500 
L 800 3500 
L 1894 563 
L 2988 3500 
L 3597 3500 
L 2284 0 
L 1503 0 
L 191 3500 
z
" transform="scale(0.015625)"/>
       <path id="DejaVuSans-79" d="M 2059 -325 
Q 1816 -950 1584 -1140 
Q 1353 -1331 966 -1331 
L 506 -1331 
L 506 -850 
L 844 -850 
Q 1081 -850 1212 -737 
Q 1344 -625 1503 -206 
L 1606 56 
L 191 3500 
L 800 3500 
L 1894 763 
L 2988 3500 
L 3597 3500 
L 2059 -325 
z
" transform="scale(0.015625)"/>
       <path id="DejaVuSans-74" d="M 1172 4494 
L 1172 3500 
L 2356 3500 
L 2356 3053 
L 1172 3053 
L 1172 1153 
Q 1172 725 1289 603 
Q 1406 481 1766 481 
L 2356 481 
L 2356 0 
L 1766 0 
Q 1100 0 847 248 
Q 594 497 594 1153 
L 594 3053 
L 172 3053 
L 172 3500 
L 594 3500 
L 594 4494 
L 1172 4494 
z
" transform="scale(0.015625)"/>
       <path id="DejaVuSans-6f" d="M 1959 3097 
Q 1497 3097 1228 2736 
Q 959 2375 959 1747 
Q 959 1119 1226 758 
Q 1494 397 1959 397 
Q 2419 397 2687 759 
Q 2956 1122 2956 1747 
Q 2956 2369 2687 2733 
Q 2419 3097 1959 3097 
z
M 1959 3584 
Q 2709 3584 3137 3096 
Q 3566 2609 3566 1747 
Q 3566 888 3137 398 
Q 2709 -91 1959 -91 
Q 1206 -91 779 398 
Q 353 888 353 1747 
Q 353 2609 779 3096 
Q 1206 3584 1959 3584 
z
" transform="scale(0.015625)"/>
      </defs>
      <use xlink:href="#DejaVuSans-47"/>
      <use xlink:href="#DejaVuSans-72" x="77.490234"/>
      <use xlink:href="#DejaVuSans-61" x="118.603516"/>
      <use xlink:href="#DejaVuSans-70" x="179.882812"/>
      <use xlink:href="#DejaVuSans-68" x="243.359375"/>
      <use xlink:href="#DejaVuSans-20" x="306.738281"/>
      <use xlink:href="#DejaVuSans-73" x="338.525391"/>
      <use xlink:href="#DejaVuSans-69" x="390.625"/>
      <use xlink:href="#DejaVuSans-7a" x="418.408203"/>
      <use xlink:href="#DejaVuSans-65" x="470.898438"/>
      <use xlink:href="#DejaVuSans-20" x="532.421875"/>
      <use xlink:href="#DejaVuSans-7c" x="564.208984"/>
      <use xlink:href="#DejaVuSans-7c" x="597.900391"/>
      <use xlink:href="#DejaVuSans-20" x="631.591797"/>
      <use xlink:href="#DejaVuSans-4e" x="663.378906"/>
      <use xlink:href="#DejaVuSans-75" x="738.183594"/>
      <use xlink:href="#DejaVuSans-6d" x="801.5625"/>
      <use xlink:href="#DejaVuSans-62" x="898.974609"/>
      <use xlink:href="#DejaVuSans-65" x="962.451172"/>
      <use xlink:href="#DejaVuSans-72" x="1023.974609"/>
      <use xlink:href="#DejaVuSans-20" x="1065.087891"/>
      <use xlink:href="#DejaVuSans-68" x="1096.875"/>
      <use xlink:href="#DejaVuSans-65" x="1160.253906"/>
      <use xlink:href="#DejaVuSans-61" x="1221.777344"/>
      <use xlink:href="#DejaVuSans-76" x="1283.056641"/>
      <use xlink:href="#DejaVuSans-79" x="1342.236328"/>
      <use xlink:href="#DejaVuSans-20" x="1401.416016"/>
      <use xlink:href="#DejaVuSans-61" x="1433.203125"/>
      <use xlink:href="#DejaVuSans-74" x="1494.482422"/>
      <use xlink:href="#DejaVuSans-6f" x="1533.691406"/>
      <use xlink:href="#DejaVuSans-6d" x="1594.873047"/>
      <use xlink:href="#DejaVuSans-73" x="1692.285156"/>
     </g>
    </g>
   </g>
   <g id="matplotlib.axis_2">
    <g id="ytick_1">
     <g id="line2d_6">
      <defs>
       <path id="m45c062935e" d="M 0 0 
L -3.5 0 
" style="stroke: #000000; stroke-width: 0.8"/>
      </defs>
      <g>
       <use xlink:href="#m45c062935e" x="57.6" y="302.466462" style="stroke: #000000; stroke-width: 0.8"/>
      </g>
     </g>
     <g id="text_7">
      <!-- 0 -->
      <g transform="translate(44.2375 306.26568) scale(0.1 -0.1)">
       <use xlink:href="#DejaVuSans-30"/>
      </g>
     </g>
    </g>
    <g id="ytick_2">
     <g id="line2d_7">
      <g>
       <use xlink:href="#m45c062935e" x="57.6" y="251.291077" style="stroke: #000000; stroke-width: 0.8"/>
      </g>
     </g>
     <g id="text_8">
      <!-- 20 -->
      <g transform="translate(37.875 255.090296) scale(0.1 -0.1)">
       <use xlink:href="#DejaVuSans-32"/>
       <use xlink:href="#DejaVuSans-30" x="63.623047"/>
      </g>
     </g>
    </g>
    <g id="ytick_3">
     <g id="line2d_8">
      <g>
       <use xlink:href="#m45c062935e" x="57.6" y="200.115692" style="stroke: #000000; stroke-width: 0.8"/>
      </g>
     </g>
     <g id="text_9">
      <!-- 40 -->
      <g transform="translate(37.875 203.914911) scale(0.1 -0.1)">
       <use xlink:href="#DejaVuSans-34"/>
       <use xlink:href="#DejaVuSans-30" x="63.623047"/>
      </g>
     </g>
    </g>
    <g id="ytick_4">
     <g id="line2d_9">
      <g>
       <use xlink:href="#m45c062935e" x="57.6" y="148.940308" style="stroke: #000000; stroke-width: 0.8"/>
      </g>
     </g>
     <g id="text_10">
      <!-- 60 -->
      <g transform="translate(37.875 152.739526) scale(0.1 -0.1)">
       <defs>
        <path id="DejaVuSans-36" d="M 2113 2584 
Q 1688 2584 1439 2293 
Q 1191 2003 1191 1497 
Q 1191 994 1439 701 
Q 1688 409 2113 409 
Q 2538 409 2786 701 
Q 3034 994 3034 1497 
Q 3034 2003 2786 2293 
Q 2538 2584 2113 2584 
z
M 3366 4563 
L 3366 3988 
Q 3128 4100 2886 4159 
Q 2644 4219 2406 4219 
Q 1781 4219 1451 3797 
Q 1122 3375 1075 2522 
Q 1259 2794 1537 2939 
Q 1816 3084 2150 3084 
Q 2853 3084 3261 2657 
Q 3669 2231 3669 1497 
Q 3669 778 3244 343 
Q 2819 -91 2113 -91 
Q 1303 -91 875 529 
Q 447 1150 447 2328 
Q 447 3434 972 4092 
Q 1497 4750 2381 4750 
Q 2619 4750 2861 4703 
Q 3103 4656 3366 4563 
z
" transform="scale(0.015625)"/>
       </defs>
       <use xlink:href="#DejaVuSans-36"/>
       <use xlink:href="#DejaVuSans-30" x="63.623047"/>
      </g>
     </g>
    </g>
    <g id="ytick_5">
     <g id="line2d_10">
      <g>
       <use xlink:href="#m45c062935e" x="57.6" y="97.764923" style="stroke: #000000; stroke-width: 0.8"/>
      </g>
     </g>
     <g id="text_11">
      <!-- 80 -->
      <g transform="translate(37.875 101.564142) scale(0.1 -0.1)">
       <defs>
        <path id="DejaVuSans-38" d="M 2034 2216 
Q 1584 2216 1326 1975 
Q 1069 1734 1069 1313 
Q 1069 891 1326 650 
Q 1584 409 2034 409 
Q 2484 409 2743 651 
Q 3003 894 3003 1313 
Q 3003 1734 2745 1975 
Q 2488 2216 2034 2216 
z
M 1403 2484 
Q 997 2584 770 2862 
Q 544 3141 544 3541 
Q 544 4100 942 4425 
Q 1341 4750 2034 4750 
Q 2731 4750 3128 4425 
Q 3525 4100 3525 3541 
Q 3525 3141 3298 2862 
Q 3072 2584 2669 2484 
Q 3125 2378 3379 2068 
Q 3634 1759 3634 1313 
Q 3634 634 3220 271 
Q 2806 -91 2034 -91 
Q 1263 -91 848 271 
Q 434 634 434 1313 
Q 434 1759 690 2068 
Q 947 2378 1403 2484 
z
M 1172 3481 
Q 1172 3119 1398 2916 
Q 1625 2713 2034 2713 
Q 2441 2713 2670 2916 
Q 2900 3119 2900 3481 
Q 2900 3844 2670 4047 
Q 2441 4250 2034 4250 
Q 1625 4250 1398 4047 
Q 1172 3844 1172 3481 
z
" transform="scale(0.015625)"/>
       </defs>
       <use xlink:href="#DejaVuSans-38"/>
       <use xlink:href="#DejaVuSans-30" x="63.623047"/>
      </g>
     </g>
    </g>
    <g id="ytick_6">
     <g id="line2d_11">
      <g>
       <use xlink:href="#m45c062935e" x="57.6" y="46.589538" style="stroke: #000000; stroke-width: 0.8"/>
      </g>
     </g>
     <g id="text_12">
      <!-- 100 -->
      <g transform="translate(31.5125 50.388757) scale(0.1 -0.1)">
       <use xlink:href="#DejaVuSans-31"/>
       <use xlink:href="#DejaVuSans-30" x="63.623047"/>
       <use xlink:href="#DejaVuSans-30" x="127.246094"/>
      </g>
     </g>
    </g>
    <g id="text_13">
     <!-- Time / s -->
     <g transform="translate(25.432812 194.228781) rotate(-90) scale(0.1 -0.1)">
      <defs>
       <path id="DejaVuSans-54" d="M -19 4666 
L 3928 4666 
L 3928 4134 
L 2272 4134 
L 2272 0 
L 1638 0 
L 1638 4134 
L -19 4134 
L -19 4666 
z
" transform="scale(0.015625)"/>
       <path id="DejaVuSans-2f" d="M 1625 4666 
L 2156 4666 
L 531 -594 
L 0 -594 
L 1625 4666 
z
" transform="scale(0.015625)"/>
      </defs>
      <use xlink:href="#DejaVuSans-54"/>
      <use xlink:href="#DejaVuSans-69" x="57.958984"/>
      <use xlink:href="#DejaVuSans-6d" x="85.742188"/>
      <use xlink:href="#DejaVuSans-65" x="183.154297"/>
      <use xlink:href="#DejaVuSans-20" x="244.677734"/>
      <use xlink:href="#DejaVuSans-2f" x="276.464844"/>
      <use xlink:href="#DejaVuSans-20" x="310.15625"/>
      <use xlink:href="#DejaVuSans-73" x="341.943359"/>
     </g>
    </g>
   </g>
   <g id="line2d_12">
    <path d="M 73.832727 302.197369 
L 81.751131 302.134443 
L 89.669534 302.147525 
L 97.587938 302.107798 
L 105.506341 302.034679 
L 113.424745 301.960494 
L 121.343149 301.887208 
L 129.261552 301.923736 
L 137.179956 301.824033 
L 145.098359 301.816262 
L 153.016763 301.706465 
L 160.935166 301.710115 
L 168.85357 301.629706 
L 176.771973 301.533355 
L 184.690377 301.573358 
L 192.60878 301.506997 
L 200.527184 301.380103 
L 208.445588 301.39156 
L 216.363991 301.40421 
L 224.282395 301.216065 
L 232.200798 301.141435 
L 240.119202 301.241362 
L 248.037605 301.086876 
L 255.956009 301.031639 
L 263.874412 300.868192 
L 271.792816 301.042705 
L 279.71122 300.950051 
L 287.629623 300.841988 
L 295.548027 300.795349 
L 303.46643 300.832242 
L 311.384834 300.713755 
L 319.303237 300.664514 
L 327.221641 300.552911 
L 335.140044 300.540109 
L 343.058448 300.503441 
L 350.976851 300.383728 
L 358.895255 300.327056 
L 366.813659 300.305158 
L 374.732062 300.165176 
L 382.650466 300.112299 
L 390.568869 300.105225 
L 398.487273 299.99425 
" clip-path="url(#pa28c0c7dff)" style="fill: none; stroke: #1f77b4; stroke-width: 1.5; stroke-linecap: square"/>
   </g>
   <g id="line2d_13">
    <path d="M 73.832727 301.949754 
L 81.751131 301.681414 
L 89.669534 301.466322 
L 97.587938 301.427107 
L 105.506341 301.051436 
L 113.424745 300.940979 
L 121.343149 300.502978 
L 129.261552 300.210196 
L 137.179956 299.989011 
L 145.098359 300.062307 
L 153.016763 299.810858 
L 160.935166 299.592521 
L 168.85357 299.164935 
L 176.771973 298.812103 
L 184.690377 298.918317 
L 192.60878 298.545956 
L 200.527184 298.266184 
L 208.445588 297.7957 
L 216.363991 297.859934 
L 224.282395 297.540882 
L 232.200798 297.060063 
L 240.119202 297.578514 
L 248.037605 297.005664 
L 255.956009 296.005077 
L 263.874412 296.142081 
L 271.792816 295.987668 
L 279.71122 296.189675 
L 287.629623 295.640295 
L 295.548027 295.14154 
L 303.46643 295.510474 
L 311.384834 295.073644 
L 319.303237 294.86518 
L 327.221641 294.864589 
L 335.140044 294.34365 
L 343.058448 293.945494 
L 350.976851 293.46444 
L 358.895255 293.162016 
L 366.813659 293.350566 
L 374.732062 292.765636 
L 382.650466 292.256795 
L 390.568869 292.580652 
L 398.487273 293.022178 
" clip-path="url(#pa28c0c7dff)" style="fill: none; stroke: #ff7f0e; stroke-width: 1.5; stroke-linecap: square"/>
   </g>
   <g id="line2d_14">
    <path d="M 73.832727 301.753415 
L 81.751131 301.343099 
L 89.669534 300.902963 
L 97.587938 300.735489 
L 105.506341 299.781486 
L 113.424745 299.391219 
L 121.343149 298.244349 
L 129.261552 297.072155 
L 137.179956 296.523353 
L 145.098359 296.204501 
L 153.016763 295.995618 
L 160.935166 294.138642 
L 168.85357 293.340566 
L 176.771973 292.759984 
L 184.690377 292.185653 
L 192.60878 291.645667 
L 200.527184 290.188247 
L 208.445588 288.15136 
L 216.363991 287.844269 
L 224.282395 287.218956 
L 232.200798 285.008997 
L 240.119202 285.768711 
L 248.037605 285.244865 
L 255.956009 282.231438 
L 263.874412 283.04745 
L 271.792816 280.787393 
L 279.71122 281.02086 
L 287.629623 280.675143 
L 295.548027 277.662262 
L 303.46643 278.520379 
L 311.384834 277.880413 
L 319.303237 275.544805 
L 327.221641 276.068851 
L 335.140044 273.897352 
L 343.058448 273.303704 
L 350.976851 271.319708 
L 358.895255 273.467157 
L 366.813659 270.107402 
L 374.732062 268.445141 
L 382.650466 265.956493 
L 390.568869 265.90398 
L 398.487273 268.707952 
" clip-path="url(#pa28c0c7dff)" style="fill: none; stroke: #2ca02c; stroke-width: 1.5; stroke-linecap: square"/>
   </g>
   <g id="line2d_15">
    <path d="M 73.832727 301.556113 
L 81.751131 301.119992 
L 89.669534 300.619981 
L 97.587938 300.341808 
L 105.506341 298.993311 
L 113.424745 298.3952 
L 121.343149 297.059271 
L 129.261552 295.06035 
L 137.179956 294.174956 
L 145.098359 293.712026 
L 153.016763 293.061893 
L 160.935166 290.028949 
L 168.85357 288.60948 
L 176.771973 287.939307 
L 184.690377 285.541139 
L 192.60878 285.863552 
L 200.527184 283.246943 
L 208.445588 278.935661 
L 216.363991 277.981749 
L 224.282395 279.323755 
L 232.200798 273.646235 
L 240.119202 274.886579 
L 248.037605 275.508603 
L 255.956009 269.753623 
L 263.874412 270.409495 
L 271.792816 266.086161 
L 279.71122 263.988615 
L 287.629623 265.900662 
L 295.548027 260.700093 
L 303.46643 261.196789 
L 311.384834 259.514818 
L 319.303237 255.135846 
L 327.221641 254.060721 
L 335.140044 253.05127 
L 343.058448 252.697945 
L 350.976851 249.345785 
L 358.895255 252.087944 
L 366.813659 247.258437 
L 374.732062 239.278473 
L 382.650466 236.224333 
L 390.568869 238.000875 
L 398.487273 244.530738 
" clip-path="url(#pa28c0c7dff)" style="fill: none; stroke: #d62728; stroke-width: 1.5; stroke-linecap: square"/>
   </g>
   <g id="line2d_16">
    <path d="M 73.832727 299.981006 
L 81.751131 299.386316 
L 89.669534 298.693696 
L 97.587938 298.184349 
L 105.506341 296.366429 
L 113.424745 294.954928 
L 121.343149 291.665996 
L 129.261552 287.824404 
L 137.179956 284.067294 
L 145.098359 282.07417 
L 153.016763 279.404823 
L 160.935166 271.13108 
L 168.85357 263.828292 
L 176.771973 264.572691 
L 184.690377 255.42441 
L 192.60878 254.914797 
L 200.527184 246.257682 
L 208.445588 232.658545 
L 216.363991 227.591073 
L 224.282395 227.821198 
L 232.200798 213.063288 
L 240.119202 212.418776 
L 248.037605 212.19725 
L 255.956009 198.53325 
L 263.874412 195.573171 
L 271.792816 175.302196 
L 279.71122 180.733334 
L 287.629623 174.328264 
L 295.548027 161.994874 
L 303.46643 156.599814 
L 311.384834 160.227541 
L 319.303237 141.047649 
L 327.221641 138.265503 
L 335.140044 116.65042 
L 343.058448 121.554286 
L 350.976851 103.367673 
L 358.895255 126.027854 
L 366.813659 96.350286 
L 374.732062 80.419094 
L 382.650466 46.856244 
L 390.568869 53.129918 
L 398.487273 88.291354 
" clip-path="url(#pa28c0c7dff)" style="fill: none; stroke: #9467bd; stroke-width: 1.5; stroke-linecap: square"/>
   </g>
   <g id="line2d_17">
    <path d="M 73.832727 301.913212 
L 81.751131 301.715979 
L 89.669534 301.082254 
L 97.587938 300.779827 
L 105.506341 299.38639 
L 113.424745 297.849306 
L 121.343149 294.012973 
L 129.261552 287.12745 
L 137.179956 277.198929 
L 145.098359 257.478503 
L 153.016763 217.479095 
L 160.935166 126.422291 
L 166.294531 -1 
" clip-path="url(#pa28c0c7dff)" style="fill: none; stroke: #8c564b; stroke-width: 1.5; stroke-linecap: square"/>
   </g>
   <g id="line2d_18"/>
   <g id="line2d_19"/>
   <g id="line2d_20"/>
   <g id="line2d_21"/>
   <g id="line2d_22"/>
   <g id="line2d_23"/>
   <g id="patch_3">
    <path d="M 57.6 307.584 
L 57.6 41.472 
" style="fill: none; stroke: #000000; stroke-width: 0.8; stroke-linejoin: miter; stroke-linecap: square"/>
   </g>
   <g id="patch_4">
    <path d="M 414.72 307.584 
L 414.72 41.472 
" style="fill: none; stroke: #000000; stroke-width: 0.8; stroke-linejoin: miter; stroke-linecap: square"/>
   </g>
   <g id="patch_5">
    <path d="M 57.6 307.584 
L 414.72 307.584 
" style="fill: none; stroke: #000000; stroke-width: 0.8; stroke-linejoin: miter; stroke-linecap: square"/>
   </g>
   <g id="patch_6">
    <path d="M 57.6 41.472 
L 414.72 41.472 
" style="fill: none; stroke: #000000; stroke-width: 0.8; stroke-linejoin: miter; stroke-linecap: square"/>
   </g>
   <g id="legend_1">
    <g id="patch_7">
     <path d="M 64.6 152.218875 
L 124.04375 152.218875 
Q 126.04375 152.218875 126.04375 150.218875 
L 126.04375 48.472 
Q 126.04375 46.472 124.04375 46.472 
L 64.6 46.472 
Q 62.6 46.472 62.6 48.472 
L 62.6 150.218875 
Q 62.6 152.218875 64.6 152.218875 
z
" style="fill: #ffffff; opacity: 0.8; stroke: #cccccc; stroke-linejoin: miter"/>
    </g>
    <g id="text_14">
     <!-- Samples -->
     <g transform="translate(72.96875 58.070438) scale(0.1 -0.1)">
      <defs>
       <path id="DejaVuSans-53" d="M 3425 4513 
L 3425 3897 
Q 3066 4069 2747 4153 
Q 2428 4238 2131 4238 
Q 1616 4238 1336 4038 
Q 1056 3838 1056 3469 
Q 1056 3159 1242 3001 
Q 1428 2844 1947 2747 
L 2328 2669 
Q 3034 2534 3370 2195 
Q 3706 1856 3706 1288 
Q 3706 609 3251 259 
Q 2797 -91 1919 -91 
Q 1588 -91 1214 -16 
Q 841 59 441 206 
L 441 856 
Q 825 641 1194 531 
Q 1563 422 1919 422 
Q 2459 422 2753 634 
Q 3047 847 3047 1241 
Q 3047 1584 2836 1778 
Q 2625 1972 2144 2069 
L 1759 2144 
Q 1053 2284 737 2584 
Q 422 2884 422 3419 
Q 422 4038 858 4394 
Q 1294 4750 2059 4750 
Q 2388 4750 2728 4690 
Q 3069 4631 3425 4513 
z
" transform="scale(0.015625)"/>
       <path id="DejaVuSans-6c" d="M 603 4863 
L 1178 4863 
L 1178 0 
L 603 0 
L 603 4863 
z
" transform="scale(0.015625)"/>
      </defs>
      <use xlink:href="#DejaVuSans-53"/>
      <use xlink:href="#DejaVuSans-61" x="63.476562"/>
      <use xlink:href="#DejaVuSans-6d" x="124.755859"/>
      <use xlink:href="#DejaVuSans-70" x="222.167969"/>
      <use xlink:href="#DejaVuSans-6c" x="285.644531"/>
      <use xlink:href="#DejaVuSans-65" x="313.427734"/>
      <use xlink:href="#DejaVuSans-73" x="374.951172"/>
     </g>
    </g>
    <g id="line2d_24">
     <path d="M 66.6 69.248563 
L 76.6 69.248563 
L 86.6 69.248563 
" style="fill: none; stroke: #1f77b4; stroke-width: 1.5; stroke-linecap: square"/>
    </g>
    <g id="text_15">
     <!-- 10 -->
     <g transform="translate(94.6 72.748563) scale(0.1 -0.1)">
      <use xlink:href="#DejaVuSans-31"/>
      <use xlink:href="#DejaVuSans-30" x="63.623047"/>
     </g>
    </g>
    <g id="line2d_25">
     <path d="M 66.6 83.926688 
L 76.6 83.926688 
L 86.6 83.926688 
" style="fill: none; stroke: #ff7f0e; stroke-width: 1.5; stroke-linecap: square"/>
    </g>
    <g id="text_16">
     <!-- 100 -->
     <g transform="translate(94.6 87.426688) scale(0.1 -0.1)">
      <use xlink:href="#DejaVuSans-31"/>
      <use xlink:href="#DejaVuSans-30" x="63.623047"/>
      <use xlink:href="#DejaVuSans-30" x="127.246094"/>
     </g>
    </g>
    <g id="line2d_26">
     <path d="M 66.6 98.604813 
L 76.6 98.604813 
L 86.6 98.604813 
" style="fill: none; stroke: #2ca02c; stroke-width: 1.5; stroke-linecap: square"/>
    </g>
    <g id="text_17">
     <!-- 500 -->
     <g transform="translate(94.6 102.104813) scale(0.1 -0.1)">
      <use xlink:href="#DejaVuSans-35"/>
      <use xlink:href="#DejaVuSans-30" x="63.623047"/>
      <use xlink:href="#DejaVuSans-30" x="127.246094"/>
     </g>
    </g>
    <g id="line2d_27">
     <path d="M 66.6 113.282938 
L 76.6 113.282938 
L 86.6 113.282938 
" style="fill: none; stroke: #d62728; stroke-width: 1.5; stroke-linecap: square"/>
    </g>
    <g id="text_18">
     <!-- 1000 -->
     <g transform="translate(94.6 116.782938) scale(0.1 -0.1)">
      <use xlink:href="#DejaVuSans-31"/>
      <use xlink:href="#DejaVuSans-30" x="63.623047"/>
      <use xlink:href="#DejaVuSans-30" x="127.246094"/>
      <use xlink:href="#DejaVuSans-30" x="190.869141"/>
     </g>
    </g>
    <g id="line2d_28">
     <path d="M 66.6 127.961063 
L 76.6 127.961063 
L 86.6 127.961063 
" style="fill: none; stroke: #9467bd; stroke-width: 1.5; stroke-linecap: square"/>
    </g>
    <g id="text_19">
     <!-- 5000 -->
     <g transform="translate(94.6 131.461063) scale(0.1 -0.1)">
      <use xlink:href="#DejaVuSans-35"/>
      <use xlink:href="#DejaVuSans-30" x="63.623047"/>
      <use xlink:href="#DejaVuSans-30" x="127.246094"/>
      <use xlink:href="#DejaVuSans-30" x="190.869141"/>
     </g>
    </g>
    <g id="line2d_29">
     <path d="M 66.6 142.639188 
L 76.6 142.639188 
L 86.6 142.639188 
" style="fill: none; stroke: #8c564b; stroke-width: 1.5; stroke-linecap: square"/>
    </g>
    <g id="text_20">
     <!-- exact -->
     <g transform="translate(94.6 146.139188) scale(0.1 -0.1)">
      <defs>
       <path id="DejaVuSans-78" d="M 3513 3500 
L 2247 1797 
L 3578 0 
L 2900 0 
L 1881 1375 
L 863 0 
L 184 0 
L 1544 1831 
L 300 3500 
L 978 3500 
L 1906 2253 
L 2834 3500 
L 3513 3500 
z
" transform="scale(0.015625)"/>
       <path id="DejaVuSans-63" d="M 3122 3366 
L 3122 2828 
Q 2878 2963 2633 3030 
Q 2388 3097 2138 3097 
Q 1578 3097 1268 2742 
Q 959 2388 959 1747 
Q 959 1106 1268 751 
Q 1578 397 2138 397 
Q 2388 397 2633 464 
Q 2878 531 3122 666 
L 3122 134 
Q 2881 22 2623 -34 
Q 2366 -91 2075 -91 
Q 1284 -91 818 406 
Q 353 903 353 1747 
Q 353 2603 823 3093 
Q 1294 3584 2113 3584 
Q 2378 3584 2631 3529 
Q 2884 3475 3122 3366 
z
" transform="scale(0.015625)"/>
      </defs>
      <use xlink:href="#DejaVuSans-65"/>
      <use xlink:href="#DejaVuSans-78" x="59.773438"/>
      <use xlink:href="#DejaVuSans-61" x="118.953125"/>
      <use xlink:href="#DejaVuSans-63" x="180.232422"/>
      <use xlink:href="#DejaVuSans-74" x="235.212891"/>
     </g>
    </g>
   </g>
  </g>
 </g>
 <defs>
  <clipPath id="pa28c0c7dff">
   <rect x="57.6" y="41.472" width="357.12" height="266.112"/>
  </clipPath>
 </defs>
</svg>
