<?xml version="1.0" encoding="utf-8" standalone="no"?>
<!DOCTYPE svg PUBLIC "-//W3C//DTD SVG 1.1//EN"
  "http://www.w3.org/Graphics/SVG/1.1/DTD/svg11.dtd">
<svg xmlns:xlink="http://www.w3.org/1999/xlink" width="460.8pt" height="345.6pt" viewBox="0 0 460.8 345.6" xmlns="http://www.w3.org/2000/svg" version="1.1">
 <metadata>
  <rdf:RDF xmlns:dc="http://purl.org/dc/elements/1.1/" xmlns:cc="http://creativecommons.org/ns#" xmlns:rdf="http://www.w3.org/1999/02/22-rdf-syntax-ns#">
   <cc:Work>
    <dc:type rdf:resource="http://purl.org/dc/dcmitype/StillImage"/>
    <dc:date>2024-04-26T18:19:08.030015</dc:date>
    <dc:format>image/svg+xml</dc:format>
    <dc:creator>
     <cc:Agent>
      <dc:title>Matplotlib v3.7.1, https://matplotlib.org/</dc:title>
     </cc:Agent>
    </dc:creator>
   </cc:Work>
  </rdf:RDF>
 </metadata>
 <defs>
  <style type="text/css">*{stroke-linejoin: round; stroke-linecap: butt}</style>
 </defs>
 <g id="figure_1">
  <g id="patch_1">
   <path d="M 0 345.6 
L 460.8 345.6 
L 460.8 0 
L 0 0 
z
" style="fill: #ffffff"/>
  </g>
  <g id="axes_1">
   <g id="patch_2">
    <path d="M 57.6 307.584 
L 414.72 307.584 
L 414.72 41.472 
L 57.6 41.472 
z
" style="fill: #ffffff"/>
   </g>
   <g id="PolyCollection_1">
    <defs>
     <path id="m0981f02e3c" d="M 73.832727 -292.032 
L 73.832727 -161.275008 
L 74.483338 -111.83637 
L 75.133948 -87.512511 
L 75.784558 -85.611988 
L 76.435169 -84.6895 
L 77.085779 -79.77893 
L 77.736389 -83.137556 
L 78.386999 -84.340261 
L 79.03761 -67.240491 
L 79.68822 -64.925513 
L 80.33883 -66.43997 
L 80.989441 -81.979774 
L 81.640051 -60.272996 
L 82.290661 -66.443704 
L 82.941272 -76.428864 
L 83.591882 -64.164846 
L 84.242492 -67.968185 
L 84.893103 -72.393575 
L 85.543713 -62.12563 
L 86.194323 -60.027979 
L 86.844934 -65.136313 
L 87.495544 -69.063928 
L 88.146154 -69.30395 
L 88.796764 -60.913959 
L 89.447375 -72.505738 
L 90.097985 -71.548255 
L 90.748595 -66.651602 
L 91.399206 -58.460709 
L 92.049816 -65.97475 
L 92.700426 -59.97152 
L 93.351037 -63.183572 
L 94.001647 -61.207189 
L 94.652257 -61.44734 
L 95.302868 -61.655598 
L 95.953478 -68.29828 
L 96.604088 -60.022836 
L 97.254698 -57.637469 
L 97.905309 -57.393329 
L 98.555919 -58.84541 
L 99.206529 -60.358291 
L 99.85714 -62.151414 
L 100.50775 -58.298866 
L 101.15836 -59.675437 
L 101.808971 -53.224818 
L 102.459581 -57.08753 
L 103.110191 -66.945749 
L 103.760802 -63.186862 
L 104.411412 -59.004086 
L 105.062022 -59.553824 
L 105.712633 -64.078491 
L 106.363243 -58.796418 
L 107.013853 -56.654628 
L 107.664463 -58.815678 
L 108.315074 -65.226744 
L 108.965684 -56.954173 
L 109.616294 -60.954114 
L 110.266905 -59.753077 
L 110.917515 -62.670619 
L 111.568125 -57.087376 
L 112.218736 -58.037533 
L 112.869346 -55.032382 
L 113.519956 -57.603573 
L 114.170567 -56.853662 
L 114.821177 -58.399679 
L 115.471787 -57.582061 
L 116.122398 -58.25742 
L 116.773008 -55.317111 
L 117.423618 -55.95682 
L 118.074228 -54.509028 
L 118.724839 -58.028663 
L 119.375449 -54.537536 
L 120.026059 -58.407061 
L 120.67667 -56.403304 
L 121.32728 -55.663304 
L 121.97789 -55.883802 
L 122.628501 -58.264597 
L 123.279111 -59.711932 
L 123.929721 -52.579417 
L 124.580332 -60.091939 
L 125.230942 -54.690873 
L 125.881552 -61.415255 
L 126.532163 -57.568283 
L 127.182773 -57.16935 
L 127.833383 -54.153229 
L 128.483993 -57.70739 
L 129.134604 -56.920062 
L 129.785214 -60.508445 
L 130.435824 -57.009402 
L 131.086435 -55.63714 
L 131.737045 -52.890908 
L 132.387655 -53.564105 
L 133.038266 -57.55171 
L 133.688876 -59.384099 
L 134.339486 -57.403057 
L 134.990097 -53.904983 
L 135.640707 -52.746288 
L 136.291317 -59.393179 
L 136.941927 -56.701271 
L 137.592538 -52.954978 
L 138.243148 -57.293695 
L 138.893758 -55.083803 
L 139.544369 -55.696526 
L 140.194979 -54.952235 
L 140.845589 -57.383595 
L 141.4962 -58.486197 
L 142.14681 -57.283405 
L 142.79742 -54.809043 
L 143.448031 -53.830515 
L 144.098641 -54.059174 
L 144.749251 -58.908243 
L 145.399862 -55.376911 
L 146.050472 -56.409371 
L 146.701082 -56.485839 
L 147.351692 -51.430067 
L 148.002303 -55.951436 
L 148.652913 -57.901334 
L 149.303523 -59.689337 
L 149.954134 -57.792359 
L 150.604744 -54.358689 
L 151.255354 -53.310946 
L 151.905965 -56.252904 
L 152.556575 -54.411729 
L 153.207185 -59.746035 
L 153.857796 -54.028536 
L 154.508406 -58.372003 
L 155.159016 -55.251246 
L 155.809627 -54.680313 
L 156.460237 -60.978073 
L 157.110847 -55.622384 
L 157.761457 -57.94516 
L 158.412068 -56.17312 
L 159.062678 -54.054288 
L 159.713288 -53.692772 
L 160.363899 -58.958914 
L 161.014509 -55.796835 
L 161.665119 -51.931568 
L 162.31573 -55.233326 
L 162.96634 -57.254509 
L 163.61695 -54.905422 
L 164.267561 -53.588476 
L 164.918171 -53.922376 
L 165.568781 -56.047952 
L 166.219392 -52.956234 
L 166.870002 -56.237266 
L 167.520612 -59.227089 
L 168.171222 -53.461231 
L 168.821833 -53.735814 
L 169.472443 -54.294691 
L 170.123053 -55.132985 
L 170.773664 -54.855769 
L 171.424274 -52.80468 
L 172.074884 -55.065313 
L 172.725495 -55.306672 
L 173.376105 -52.018987 
L 174.026715 -54.075159 
L 174.677326 -52.416693 
L 175.327936 -57.245554 
L 175.978546 -53.760789 
L 176.629156 -53.862721 
L 177.279767 -52.867273 
L 177.930377 -56.186595 
L 178.580987 -55.156537 
L 179.231598 -60.641748 
L 179.882208 -52.129153 
L 180.532818 -52.827737 
L 181.183429 -55.929254 
L 181.834039 -54.501209 
L 182.484649 -53.578891 
L 183.13526 -51.52986 
L 183.78587 -54.386872 
L 184.43648 -52.843683 
L 185.087091 -56.322941 
L 185.737701 -56.393312 
L 186.388311 -55.477624 
L 187.038921 -54.562257 
L 187.689532 -52.761775 
L 188.340142 -55.509552 
L 188.990752 -58.345315 
L 189.641363 -53.664904 
L 190.291973 -55.396184 
L 190.942583 -55.247693 
L 191.593194 -53.302169 
L 192.243804 -53.030982 
L 192.894414 -52.923882 
L 193.545025 -52.810329 
L 194.195635 -54.529135 
L 194.846245 -55.364873 
L 195.496856 -53.370399 
L 196.147466 -55.90198 
L 196.798076 -53.408493 
L 197.448686 -52.641369 
L 198.099297 -55.543965 
L 198.749907 -57.14031 
L 199.400517 -56.851343 
L 200.051128 -54.740452 
L 200.701738 -55.440562 
L 201.352348 -56.555888 
L 202.002959 -56.257693 
L 202.653569 -53.357282 
L 203.304179 -53.826067 
L 203.95479 -57.25034 
L 204.6054 -53.408448 
L 205.25601 -56.865712 
L 205.906621 -55.893723 
L 206.557231 -54.909823 
L 207.207841 -56.028334 
L 207.858451 -53.76965 
L 208.509062 -55.351217 
L 209.159672 -52.85848 
L 209.810282 -54.556501 
L 210.460893 -53.923661 
L 211.111503 -56.010361 
L 211.762113 -53.971629 
L 212.412724 -56.940348 
L 213.063334 -52.359302 
L 213.713944 -52.13971 
L 214.364555 -56.430003 
L 215.015165 -52.433345 
L 215.665775 -51.989865 
L 216.316385 -53.781317 
L 216.966996 -55.365624 
L 217.617606 -57.714939 
L 218.268216 -54.949058 
L 218.918827 -52.099695 
L 219.569437 -54.907739 
L 220.220047 -51.334414 
L 220.870658 -55.275461 
L 221.521268 -53.010721 
L 222.171878 -52.752925 
L 222.822489 -53.774194 
L 223.473099 -51.390565 
L 224.123709 -54.797801 
L 224.77432 -52.521642 
L 225.42493 -55.03135 
L 226.07554 -53.52902 
L 226.72615 -53.032624 
L 227.376761 -58.242461 
L 228.027371 -53.748949 
L 228.677981 -53.638218 
L 229.328592 -54.607511 
L 229.979202 -53.925183 
L 230.629812 -55.432455 
L 231.280423 -54.642362 
L 231.931033 -51.421938 
L 232.581643 -53.072841 
L 233.232254 -53.49837 
L 233.882864 -55.015013 
L 234.533474 -51.607531 
L 235.184085 -52.173094 
L 235.834695 -54.640658 
L 236.485305 -52.298626 
L 237.135915 -57.025101 
L 237.786526 -51.852023 
L 238.437136 -54.266496 
L 239.087746 -52.037799 
L 239.738357 -52.466379 
L 240.388967 -57.700368 
L 241.039577 -52.548139 
L 241.690188 -54.529566 
L 242.340798 -51.850254 
L 242.991408 -53.298507 
L 243.642019 -51.511854 
L 244.292629 -52.150429 
L 244.943239 -53.068787 
L 245.59385 -52.50521 
L 246.24446 -56.838926 
L 246.89507 -54.093683 
L 247.54568 -52.006052 
L 248.196291 -55.040225 
L 248.846901 -53.377704 
L 249.497511 -53.562767 
L 250.148122 -53.445989 
L 250.798732 -54.192389 
L 251.449342 -53.378824 
L 252.099953 -53.26799 
L 252.750563 -53.310466 
L 253.401173 -54.3377 
L 254.051784 -54.04423 
L 254.702394 -52.788004 
L 255.353004 -52.249648 
L 256.003615 -55.951567 
L 256.654225 -53.612794 
L 257.304835 -53.262089 
L 257.955445 -54.340898 
L 258.606056 -53.003095 
L 259.256666 -54.1037 
L 259.907276 -54.15729 
L 260.557887 -52.644035 
L 261.208497 -55.509859 
L 261.859107 -56.116758 
L 262.509718 -52.274394 
L 263.160328 -51.974933 
L 263.810938 -52.696832 
L 264.461549 -52.071301 
L 265.112159 -53.338239 
L 265.762769 -52.102501 
L 266.413379 -53.498709 
L 267.06399 -53.075581 
L 267.7146 -53.724141 
L 268.36521 -50.112 
L 269.015821 -51.994413 
L 269.666431 -54.307416 
L 270.317041 -54.312378 
L 270.967652 -54.47527 
L 271.618262 -52.17422 
L 272.268872 -53.844703 
L 272.919483 -51.102841 
L 273.570093 -53.187804 
L 274.220703 -52.089259 
L 274.871314 -52.45865 
L 275.521924 -54.982334 
L 276.172534 -53.536949 
L 276.823144 -53.951829 
L 277.473755 -53.279727 
L 278.124365 -56.742728 
L 278.774975 -52.043214 
L 279.425586 -50.416324 
L 280.076196 -52.872973 
L 280.726806 -53.101241 
L 281.377417 -54.06033 
L 282.028027 -52.587269 
L 282.678637 -54.093487 
L 283.329248 -52.626092 
L 283.979858 -51.594183 
L 284.630468 -51.70415 
L 285.281079 -54.035996 
L 285.931689 -53.740997 
L 286.582299 -50.439206 
L 287.232909 -53.302278 
L 287.88352 -53.489435 
L 288.53413 -54.550291 
L 289.18474 -53.280294 
L 289.835351 -50.686541 
L 290.485961 -52.954588 
L 291.136571 -52.281106 
L 291.787182 -51.34987 
L 292.437792 -50.619983 
L 293.088402 -52.317277 
L 293.739013 -55.103989 
L 294.389623 -53.104826 
L 295.040233 -52.76086 
L 295.690844 -52.220772 
L 296.341454 -54.668012 
L 296.992064 -53.344098 
L 297.642674 -50.69274 
L 298.293285 -52.153641 
L 298.943895 -52.763921 
L 299.594505 -52.96684 
L 300.245116 -51.189099 
L 300.895726 -52.327671 
L 301.546336 -52.98379 
L 302.196947 -53.569169 
L 302.847557 -51.712083 
L 303.498167 -54.503329 
L 304.148778 -51.888536 
L 304.799388 -53.370943 
L 305.449998 -53.074186 
L 306.100608 -52.533843 
L 306.751219 -51.930487 
L 307.401829 -51.686401 
L 308.052439 -51.759749 
L 308.70305 -53.988613 
L 309.35366 -52.189124 
L 310.00427 -52.287153 
L 310.654881 -51.913265 
L 311.305491 -52.88649 
L 311.956101 -52.039203 
L 312.606712 -52.820265 
L 313.257322 -54.322757 
L 313.907932 -52.072701 
L 314.558543 -53.470643 
L 315.209153 -52.609535 
L 315.859763 -52.942415 
L 316.510373 -54.947799 
L 317.160984 -53.829901 
L 317.811594 -53.604416 
L 318.462204 -51.547554 
L 319.112815 -53.095458 
L 319.763425 -52.041962 
L 320.414035 -52.207585 
L 321.064646 -52.218792 
L 321.715256 -52.679776 
L 322.365866 -52.513307 
L 323.016477 -51.082419 
L 323.667087 -52.119803 
L 324.317697 -52.873306 
L 324.968308 -51.683828 
L 325.618918 -53.076901 
L 326.269528 -50.833923 
L 326.920138 -52.197667 
L 327.570749 -51.677058 
L 328.221359 -52.844873 
L 328.871969 -53.447642 
L 329.52258 -54.31253 
L 330.17319 -54.550312 
L 330.8238 -52.861878 
L 331.474411 -53.365577 
L 332.125021 -53.217796 
L 332.775631 -53.825351 
L 333.426242 -51.823554 
L 334.076852 -52.197775 
L 334.727462 -55.737616 
L 335.378073 -54.624261 
L 336.028683 -52.279877 
L 336.679293 -53.150043 
L 337.329903 -52.999856 
L 337.980514 -53.903378 
L 338.631124 -51.95987 
L 339.281734 -51.988744 
L 339.932345 -53.797173 
L 340.582955 -51.311211 
L 341.233565 -52.409486 
L 341.884176 -53.412706 
L 342.534786 -52.492012 
L 343.185396 -53.300963 
L 343.836007 -53.343038 
L 344.486617 -53.32979 
L 345.137227 -52.805092 
L 345.787837 -51.852659 
L 346.438448 -53.190057 
L 347.089058 -52.297098 
L 347.739668 -52.755091 
L 348.390279 -51.784536 
L 349.040889 -52.312706 
L 349.691499 -54.62801 
L 350.34211 -51.155508 
L 350.99272 -53.352066 
L 351.64333 -52.583469 
L 352.293941 -53.025841 
L 352.944551 -54.108174 
L 353.595161 -50.476551 
L 354.245772 -52.964392 
L 354.896382 -53.026814 
L 355.546992 -52.496539 
L 356.197602 -52.587159 
L 356.848213 -52.689218 
L 357.498823 -52.258719 
L 358.149433 -52.7765 
L 358.800044 -53.266593 
L 359.450654 -52.45238 
L 360.101264 -52.518728 
L 360.751875 -51.79223 
L 361.402485 -53.172903 
L 362.053095 -51.730463 
L 362.703706 -54.05824 
L 363.354316 -50.483945 
L 364.004926 -53.500231 
L 364.655537 -53.143339 
L 365.306147 -53.166753 
L 365.956757 -51.674452 
L 366.607367 -52.75515 
L 367.257978 -50.865515 
L 367.908588 -50.456331 
L 368.559198 -53.743436 
L 369.209809 -51.79043 
L 369.860419 -56.155962 
L 370.511029 -51.24876 
L 371.16164 -52.417973 
L 371.81225 -51.829669 
L 372.46286 -53.918841 
L 373.113471 -53.187759 
L 373.764081 -52.318705 
L 374.414691 -55.617174 
L 375.065302 -52.001594 
L 375.715912 -52.338588 
L 376.366522 -51.886424 
L 377.017132 -52.906242 
L 377.667743 -53.442165 
L 378.318353 -51.223838 
L 378.968963 -52.167142 
L 379.619574 -53.140909 
L 380.270184 -51.881571 
L 380.920794 -52.926919 
L 381.571405 -52.483583 
L 382.222015 -50.79321 
L 382.872625 -52.040926 
L 383.523236 -52.639608 
L 384.173846 -53.470713 
L 384.824456 -52.952514 
L 385.475066 -53.939013 
L 386.125677 -51.782876 
L 386.776287 -51.601565 
L 387.426897 -52.598969 
L 388.077508 -52.658202 
L 388.728118 -50.514962 
L 389.378728 -52.06708 
L 390.029339 -52.277951 
L 390.679949 -53.258703 
L 391.330559 -52.743655 
L 391.98117 -52.713363 
L 392.63178 -53.841531 
L 393.28239 -51.513226 
L 393.933001 -51.614334 
L 394.583611 -52.73925 
L 395.234221 -51.30786 
L 395.884831 -51.662117 
L 396.535442 -52.835489 
L 397.186052 -51.593181 
L 397.836662 -52.718703 
L 398.487273 -51.757699 
L 398.487273 -56.514304 
L 398.487273 -56.514304 
L 397.836662 -58.67446 
L 397.186052 -56.525027 
L 396.535442 -57.22794 
L 395.884831 -56.056952 
L 395.234221 -56.622954 
L 394.583611 -58.962805 
L 393.933001 -57.685738 
L 393.28239 -56.480896 
L 392.63178 -60.769324 
L 391.98117 -58.145163 
L 391.330559 -58.871811 
L 390.679949 -60.317832 
L 390.029339 -57.349698 
L 389.378728 -56.69925 
L 388.728118 -53.657779 
L 388.077508 -57.529999 
L 387.426897 -58.110722 
L 386.776287 -54.525117 
L 386.125677 -55.544734 
L 385.475066 -56.799243 
L 384.824456 -59.692364 
L 384.173846 -57.663569 
L 383.523236 -55.291456 
L 382.872625 -55.425531 
L 382.222015 -60.125106 
L 381.571405 -58.390791 
L 380.920794 -59.533859 
L 380.270184 -57.208351 
L 379.619574 -60.51377 
L 378.968963 -59.037792 
L 378.318353 -54.438495 
L 377.667743 -59.990931 
L 377.017132 -59.696115 
L 376.366522 -56.877796 
L 375.715912 -55.325772 
L 375.065302 -55.650165 
L 374.414691 -61.809199 
L 373.764081 -58.592571 
L 373.113471 -57.081017 
L 372.46286 -60.615747 
L 371.81225 -57.412457 
L 371.16164 -55.067186 
L 370.511029 -56.94785 
L 369.860419 -60.332948 
L 369.209809 -57.362073 
L 368.559198 -60.528556 
L 367.908588 -52.882864 
L 367.257978 -57.54031 
L 366.607367 -55.84604 
L 365.956757 -56.408075 
L 365.306147 -57.620747 
L 364.655537 -62.621291 
L 364.004926 -59.584435 
L 363.354316 -53.293525 
L 362.703706 -60.998647 
L 362.053095 -56.506908 
L 361.402485 -56.447383 
L 360.751875 -55.625928 
L 360.101264 -56.916544 
L 359.450654 -58.271895 
L 358.800044 -58.319658 
L 358.149433 -57.508068 
L 357.498823 -57.795059 
L 356.848213 -56.485675 
L 356.197602 -56.886876 
L 355.546992 -56.543988 
L 354.896382 -58.86869 
L 354.245772 -65.813295 
L 353.595161 -53.40752 
L 352.944551 -59.118504 
L 352.293941 -58.108982 
L 351.64333 -60.313734 
L 350.99272 -56.944128 
L 350.34211 -54.985854 
L 349.691499 -62.449565 
L 349.040889 -59.47984 
L 348.390279 -57.759672 
L 347.739668 -63.78632 
L 347.089058 -59.391295 
L 346.438448 -59.210322 
L 345.787837 -55.70358 
L 345.137227 -59.269664 
L 344.486617 -59.67952 
L 343.836007 -56.751341 
L 343.185396 -60.039575 
L 342.534786 -59.197137 
L 341.884176 -57.953902 
L 341.233565 -64.183747 
L 340.582955 -57.53935 
L 339.932345 -59.920485 
L 339.281734 -59.035151 
L 338.631124 -57.366269 
L 337.980514 -63.130281 
L 337.329903 -57.239798 
L 336.679293 -63.48769 
L 336.028683 -58.695201 
L 335.378073 -66.4254 
L 334.727462 -63.001594 
L 334.076852 -60.623315 
L 333.426242 -58.707771 
L 332.775631 -64.483889 
L 332.125021 -60.1295 
L 331.474411 -60.630737 
L 330.8238 -57.909491 
L 330.17319 -58.643877 
L 329.52258 -62.467485 
L 328.871969 -60.617101 
L 328.221359 -57.617084 
L 327.570749 -57.602923 
L 326.920138 -60.206036 
L 326.269528 -59.324906 
L 325.618918 -57.216274 
L 324.968308 -55.280139 
L 324.317697 -62.982541 
L 323.667087 -60.173443 
L 323.016477 -55.567533 
L 322.365866 -57.093004 
L 321.715256 -58.829 
L 321.064646 -56.760954 
L 320.414035 -56.247204 
L 319.763425 -58.07208 
L 319.112815 -55.972168 
L 318.462204 -57.827053 
L 317.811594 -58.623265 
L 317.160984 -58.128456 
L 316.510373 -63.452878 
L 315.859763 -59.806006 
L 315.209153 -58.543702 
L 314.558543 -59.66004 
L 313.907932 -56.715966 
L 313.257322 -61.52175 
L 312.606712 -60.827299 
L 311.956101 -57.655977 
L 311.305491 -58.757924 
L 310.654881 -60.161089 
L 310.00427 -57.023245 
L 309.35366 -61.194774 
L 308.70305 -58.886563 
L 308.052439 -55.067401 
L 307.401829 -60.902283 
L 306.751219 -55.788762 
L 306.100608 -60.091367 
L 305.449998 -57.234586 
L 304.799388 -60.112427 
L 304.148778 -56.499899 
L 303.498167 -60.150879 
L 302.847557 -57.921937 
L 302.196947 -59.03042 
L 301.546336 -59.353615 
L 300.895726 -60.366709 
L 300.245116 -54.931722 
L 299.594505 -55.253161 
L 298.943895 -61.688963 
L 298.293285 -56.175852 
L 297.642674 -57.752152 
L 296.992064 -63.13951 
L 296.341454 -60.614255 
L 295.690844 -59.502965 
L 295.040233 -58.000497 
L 294.389623 -58.537137 
L 293.739013 -61.820441 
L 293.088402 -61.671324 
L 292.437792 -57.219976 
L 291.787182 -56.587004 
L 291.136571 -55.586669 
L 290.485961 -56.509678 
L 289.835351 -55.377864 
L 289.18474 -59.211328 
L 288.53413 -59.383998 
L 287.88352 -58.741138 
L 287.232909 -58.960706 
L 286.582299 -53.204843 
L 285.931689 -60.678013 
L 285.281079 -60.543148 
L 284.630468 -56.341631 
L 283.979858 -56.849701 
L 283.329248 -58.268168 
L 282.678637 -58.011744 
L 282.028027 -58.358953 
L 281.377417 -59.007425 
L 280.726806 -58.900687 
L 280.076196 -60.685564 
L 279.425586 -54.291756 
L 278.774975 -54.838246 
L 278.124365 -63.284258 
L 277.473755 -58.158991 
L 276.823144 -62.846769 
L 276.172534 -59.158042 
L 275.521924 -61.210255 
L 274.871314 -58.729688 
L 274.220703 -56.105732 
L 273.570093 -62.372035 
L 272.919483 -62.680555 
L 272.268872 -58.371208 
L 271.618262 -57.912953 
L 270.967652 -61.940967 
L 270.317041 -59.482296 
L 269.666431 -62.895956 
L 269.015821 -56.752436 
L 268.36521 -56.392597 
L 267.7146 -65.086056 
L 267.06399 -60.879958 
L 266.413379 -64.379635 
L 265.762769 -58.562786 
L 265.112159 -63.362138 
L 264.461549 -66.288174 
L 263.810938 -61.418783 
L 263.160328 -61.667435 
L 262.509718 -60.478216 
L 261.859107 -71.831885 
L 261.208497 -66.522886 
L 260.557887 -63.323683 
L 259.907276 -59.946079 
L 259.256666 -60.463828 
L 258.606056 -59.408667 
L 257.955445 -60.108707 
L 257.304835 -58.303421 
L 256.654225 -59.897005 
L 256.003615 -62.282111 
L 255.353004 -57.451529 
L 254.702394 -66.664546 
L 254.051784 -60.286877 
L 253.401173 -63.545984 
L 252.750563 -64.991909 
L 252.099953 -59.007299 
L 251.449342 -61.26957 
L 250.798732 -65.342525 
L 250.148122 -62.232689 
L 249.497511 -67.858852 
L 248.846901 -60.474851 
L 248.196291 -64.379742 
L 247.54568 -59.107837 
L 246.89507 -59.008829 
L 246.24446 -61.702338 
L 245.59385 -58.168734 
L 244.943239 -59.947033 
L 244.292629 -58.908377 
L 243.642019 -55.345859 
L 242.991408 -63.792811 
L 242.340798 -59.430193 
L 241.690188 -58.505198 
L 241.039577 -57.702025 
L 240.388967 -63.344862 
L 239.738357 -57.030016 
L 239.087746 -61.586519 
L 238.437136 -62.545252 
L 237.786526 -62.076922 
L 237.135915 -68.463773 
L 236.485305 -59.44859 
L 235.834695 -60.832837 
L 235.184085 -60.932367 
L 234.533474 -55.272594 
L 233.882864 -60.965256 
L 233.232254 -62.095905 
L 232.581643 -56.879541 
L 231.931033 -59.430946 
L 231.280423 -62.232105 
L 230.629812 -59.773904 
L 229.979202 -60.9952 
L 229.328592 -64.296401 
L 228.677981 -61.798815 
L 228.027371 -63.805239 
L 227.376761 -62.880776 
L 226.72615 -63.657899 
L 226.07554 -58.475069 
L 225.42493 -61.674583 
L 224.77432 -59.389081 
L 224.123709 -61.574622 
L 223.473099 -58.43132 
L 222.822489 -62.703469 
L 222.171878 -55.332998 
L 221.521268 -62.876566 
L 220.870658 -60.173097 
L 220.220047 -67.240095 
L 219.569437 -67.023051 
L 218.918827 -56.663062 
L 218.268216 -60.942298 
L 217.617606 -65.466599 
L 216.966996 -67.174242 
L 216.316385 -62.906148 
L 215.665775 -59.345475 
L 215.015165 -58.538094 
L 214.364555 -63.863915 
L 213.713944 -61.553412 
L 213.063334 -62.966739 
L 212.412724 -66.866007 
L 211.762113 -64.636655 
L 211.111503 -67.201884 
L 210.460893 -62.182701 
L 209.810282 -61.943034 
L 209.159672 -63.747073 
L 208.509062 -67.572597 
L 207.858451 -59.629207 
L 207.207841 -63.049616 
L 206.557231 -60.131982 
L 205.906621 -73.553557 
L 205.25601 -65.768224 
L 204.6054 -65.060058 
L 203.95479 -67.257283 
L 203.304179 -60.810482 
L 202.653569 -62.648597 
L 202.002959 -61.236933 
L 201.352348 -63.557483 
L 200.701738 -63.306033 
L 200.051128 -66.596181 
L 199.400517 -68.298675 
L 198.749907 -69.440685 
L 198.099297 -68.450986 
L 197.448686 -57.88897 
L 196.798076 -63.554471 
L 196.147466 -62.642426 
L 195.496856 -59.636158 
L 194.846245 -62.379052 
L 194.195635 -67.742245 
L 193.545025 -65.958514 
L 192.894414 -64.05642 
L 192.243804 -60.052475 
L 191.593194 -58.925575 
L 190.942583 -69.396469 
L 190.291973 -62.740317 
L 189.641363 -59.631735 
L 188.990752 -67.915692 
L 188.340142 -63.918018 
L 187.689532 -60.530507 
L 187.038921 -63.902569 
L 186.388311 -62.410766 
L 185.737701 -61.299423 
L 185.087091 -65.709076 
L 184.43648 -58.245484 
L 183.78587 -61.652108 
L 183.13526 -59.192335 
L 182.484649 -62.72426 
L 181.834039 -58.12352 
L 181.183429 -62.489327 
L 180.532818 -62.081474 
L 179.882208 -58.138524 
L 179.231598 -82.073668 
L 178.580987 -71.240242 
L 177.930377 -66.546695 
L 177.279767 -69.170842 
L 176.629156 -69.787288 
L 175.978546 -58.262431 
L 175.327936 -67.494025 
L 174.677326 -58.503838 
L 174.026715 -60.790332 
L 173.376105 -58.079012 
L 172.725495 -64.698358 
L 172.074884 -64.533576 
L 171.424274 -60.24311 
L 170.773664 -62.718813 
L 170.123053 -60.230825 
L 169.472443 -68.862278 
L 168.821833 -65.510974 
L 168.171222 -64.756778 
L 167.520612 -69.074736 
L 166.870002 -63.612194 
L 166.219392 -57.047236 
L 165.568781 -63.013018 
L 164.918171 -61.014213 
L 164.267561 -59.703486 
L 163.61695 -65.74374 
L 162.96634 -69.280212 
L 162.31573 -67.043115 
L 161.665119 -61.785163 
L 161.014509 -61.565466 
L 160.363899 -75.428147 
L 159.713288 -70.446108 
L 159.062678 -76.239344 
L 158.412068 -64.491241 
L 157.761457 -68.121596 
L 157.110847 -65.949771 
L 156.460237 -76.98515 
L 155.809627 -66.399736 
L 155.159016 -69.829501 
L 154.508406 -67.051602 
L 153.857796 -62.70532 
L 153.207185 -79.417775 
L 152.556575 -66.202861 
L 151.905965 -66.573659 
L 151.255354 -61.316887 
L 150.604744 -72.827945 
L 149.954134 -74.8839 
L 149.303523 -69.127899 
L 148.652913 -66.997194 
L 148.002303 -62.90236 
L 147.351692 -58.761333 
L 146.701082 -66.059628 
L 146.050472 -78.924436 
L 145.399862 -68.454499 
L 144.749251 -67.165447 
L 144.098641 -71.65589 
L 143.448031 -62.449134 
L 142.79742 -60.965275 
L 142.14681 -71.439958 
L 141.4962 -75.286594 
L 140.845589 -67.884657 
L 140.194979 -63.660867 
L 139.544369 -65.772446 
L 138.893758 -62.331192 
L 138.243148 -70.115871 
L 137.592538 -62.615549 
L 136.941927 -70.328152 
L 136.291317 -70.55216 
L 135.640707 -58.424099 
L 134.990097 -65.491588 
L 134.339486 -71.716679 
L 133.688876 -68.623601 
L 133.038266 -73.783256 
L 132.387655 -64.557787 
L 131.737045 -71.825343 
L 131.086435 -70.527512 
L 130.435824 -70.133819 
L 129.785214 -74.158329 
L 129.134604 -73.21442 
L 128.483993 -68.238454 
L 127.833383 -66.343988 
L 127.182773 -63.838861 
L 126.532163 -75.39929 
L 125.881552 -72.694145 
L 125.230942 -68.273351 
L 124.580332 -71.211113 
L 123.929721 -61.787664 
L 123.279111 -72.477984 
L 122.628501 -81.850705 
L 121.97789 -69.113633 
L 121.32728 -62.244648 
L 120.67667 -70.968611 
L 120.026059 -67.421003 
L 119.375449 -66.883671 
L 118.724839 -70.627842 
L 118.074228 -72.464833 
L 117.423618 -72.977095 
L 116.773008 -68.568505 
L 116.122398 -72.624585 
L 115.471787 -70.399847 
L 114.821177 -79.825159 
L 114.170567 -72.06126 
L 113.519956 -67.583886 
L 112.869346 -66.493388 
L 112.218736 -78.146357 
L 111.568125 -80.216661 
L 110.917515 -82.599295 
L 110.266905 -84.824466 
L 109.616294 -77.929383 
L 108.965684 -75.08948 
L 108.315074 -79.411841 
L 107.664463 -75.268979 
L 107.013853 -70.888177 
L 106.363243 -73.092306 
L 105.712633 -77.735108 
L 105.062022 -78.193804 
L 104.411412 -74.213466 
L 103.760802 -80.000639 
L 103.110191 -82.736046 
L 102.459581 -77.719274 
L 101.808971 -60.640005 
L 101.15836 -76.928802 
L 100.50775 -66.167567 
L 99.85714 -71.997337 
L 99.206529 -86.361078 
L 98.555919 -72.66532 
L 97.905309 -67.699417 
L 97.254698 -80.908017 
L 96.604088 -83.784548 
L 95.953478 -84.760561 
L 95.302868 -78.426174 
L 94.652257 -85.048329 
L 94.001647 -80.589798 
L 93.351037 -82.907246 
L 92.700426 -74.450437 
L 92.049816 -107.177636 
L 91.399206 -81.215583 
L 90.748595 -99.959433 
L 90.097985 -89.04797 
L 89.447375 -99.46401 
L 88.796764 -95.85136 
L 88.146154 -95.805967 
L 87.495544 -90.103697 
L 86.844934 -91.635528 
L 86.194323 -93.777941 
L 85.543713 -101.301118 
L 84.893103 -92.464565 
L 84.242492 -107.079683 
L 83.591882 -89.336441 
L 82.941272 -99.436148 
L 82.290661 -79.859037 
L 81.640051 -97.296691 
L 80.989441 -137.897252 
L 80.33883 -105.34055 
L 79.68822 -96.210607 
L 79.03761 -109.361681 
L 78.386999 -120.207752 
L 77.736389 -113.825637 
L 77.085779 -138.631091 
L 76.435169 -161.643647 
L 75.784558 -133.990167 
L 75.133948 -150.862535 
L 74.483338 -228.931413 
L 73.832727 -292.032 
z
" style="stroke: #1f77b4; stroke-opacity: 0.2"/>
    </defs>
    <g clip-path="url(#p42f69aea73)">
     <use xlink:href="#m0981f02e3c" x="0" y="345.6" style="fill: #1f77b4; fill-opacity: 0.2; stroke: #1f77b4; stroke-opacity: 0.2"/>
    </g>
   </g>
   <g id="matplotlib.axis_1">
    <g id="xtick_1">
     <g id="line2d_1">
      <defs>
       <path id="m2c9aac6bd4" d="M 0 0 
L 0 3.5 
" style="stroke: #000000; stroke-width: 0.8"/>
      </defs>
      <g>
       <use xlink:href="#m2c9aac6bd4" x="73.182117" y="307.584" style="stroke: #000000; stroke-width: 0.8"/>
      </g>
     </g>
     <g id="text_1">
      <!-- 0 -->
      <g transform="translate(70.000867 322.182437) scale(0.1 -0.1)">
       <defs>
        <path id="DejaVuSans-30" d="M 2034 4250 
Q 1547 4250 1301 3770 
Q 1056 3291 1056 2328 
Q 1056 1369 1301 889 
Q 1547 409 2034 409 
Q 2525 409 2770 889 
Q 3016 1369 3016 2328 
Q 3016 3291 2770 3770 
Q 2525 4250 2034 4250 
z
M 2034 4750 
Q 2819 4750 3233 4129 
Q 3647 3509 3647 2328 
Q 3647 1150 3233 529 
Q 2819 -91 2034 -91 
Q 1250 -91 836 529 
Q 422 1150 422 2328 
Q 422 3509 836 4129 
Q 1250 4750 2034 4750 
z
" transform="scale(0.015625)"/>
       </defs>
       <use xlink:href="#DejaVuSans-30"/>
      </g>
     </g>
    </g>
    <g id="xtick_2">
     <g id="line2d_2">
      <g>
       <use xlink:href="#m2c9aac6bd4" x="138.243148" y="307.584" style="stroke: #000000; stroke-width: 0.8"/>
      </g>
     </g>
     <g id="text_2">
      <!-- 1000 -->
      <g transform="translate(125.518148 322.182437) scale(0.1 -0.1)">
       <defs>
        <path id="DejaVuSans-31" d="M 794 531 
L 1825 531 
L 1825 4091 
L 703 3866 
L 703 4441 
L 1819 4666 
L 2450 4666 
L 2450 531 
L 3481 531 
L 3481 0 
L 794 0 
L 794 531 
z
" transform="scale(0.015625)"/>
       </defs>
       <use xlink:href="#DejaVuSans-31"/>
       <use xlink:href="#DejaVuSans-30" x="63.623047"/>
       <use xlink:href="#DejaVuSans-30" x="127.246094"/>
       <use xlink:href="#DejaVuSans-30" x="190.869141"/>
      </g>
     </g>
    </g>
    <g id="xtick_3">
     <g id="line2d_3">
      <g>
       <use xlink:href="#m2c9aac6bd4" x="203.304179" y="307.584" style="stroke: #000000; stroke-width: 0.8"/>
      </g>
     </g>
     <g id="text_3">
      <!-- 2000 -->
      <g transform="translate(190.579179 322.182437) scale(0.1 -0.1)">
       <defs>
        <path id="DejaVuSans-32" d="M 1228 531 
L 3431 531 
L 3431 0 
L 469 0 
L 469 531 
Q 828 903 1448 1529 
Q 2069 2156 2228 2338 
Q 2531 2678 2651 2914 
Q 2772 3150 2772 3378 
Q 2772 3750 2511 3984 
Q 2250 4219 1831 4219 
Q 1534 4219 1204 4116 
Q 875 4013 500 3803 
L 500 4441 
Q 881 4594 1212 4672 
Q 1544 4750 1819 4750 
Q 2544 4750 2975 4387 
Q 3406 4025 3406 3419 
Q 3406 3131 3298 2873 
Q 3191 2616 2906 2266 
Q 2828 2175 2409 1742 
Q 1991 1309 1228 531 
z
" transform="scale(0.015625)"/>
       </defs>
       <use xlink:href="#DejaVuSans-32"/>
       <use xlink:href="#DejaVuSans-30" x="63.623047"/>
       <use xlink:href="#DejaVuSans-30" x="127.246094"/>
       <use xlink:href="#DejaVuSans-30" x="190.869141"/>
      </g>
     </g>
    </g>
    <g id="xtick_4">
     <g id="line2d_4">
      <g>
       <use xlink:href="#m2c9aac6bd4" x="268.36521" y="307.584" style="stroke: #000000; stroke-width: 0.8"/>
      </g>
     </g>
     <g id="text_4">
      <!-- 3000 -->
      <g transform="translate(255.64021 322.182437) scale(0.1 -0.1)">
       <defs>
        <path id="DejaVuSans-33" d="M 2597 2516 
Q 3050 2419 3304 2112 
Q 3559 1806 3559 1356 
Q 3559 666 3084 287 
Q 2609 -91 1734 -91 
Q 1441 -91 1130 -33 
Q 819 25 488 141 
L 488 750 
Q 750 597 1062 519 
Q 1375 441 1716 441 
Q 2309 441 2620 675 
Q 2931 909 2931 1356 
Q 2931 1769 2642 2001 
Q 2353 2234 1838 2234 
L 1294 2234 
L 1294 2753 
L 1863 2753 
Q 2328 2753 2575 2939 
Q 2822 3125 2822 3475 
Q 2822 3834 2567 4026 
Q 2313 4219 1838 4219 
Q 1578 4219 1281 4162 
Q 984 4106 628 3988 
L 628 4550 
Q 988 4650 1302 4700 
Q 1616 4750 1894 4750 
Q 2613 4750 3031 4423 
Q 3450 4097 3450 3541 
Q 3450 3153 3228 2886 
Q 3006 2619 2597 2516 
z
" transform="scale(0.015625)"/>
       </defs>
       <use xlink:href="#DejaVuSans-33"/>
       <use xlink:href="#DejaVuSans-30" x="63.623047"/>
       <use xlink:href="#DejaVuSans-30" x="127.246094"/>
       <use xlink:href="#DejaVuSans-30" x="190.869141"/>
      </g>
     </g>
    </g>
    <g id="xtick_5">
     <g id="line2d_5">
      <g>
       <use xlink:href="#m2c9aac6bd4" x="333.426242" y="307.584" style="stroke: #000000; stroke-width: 0.8"/>
      </g>
     </g>
     <g id="text_5">
      <!-- 4000 -->
      <g transform="translate(320.701242 322.182437) scale(0.1 -0.1)">
       <defs>
        <path id="DejaVuSans-34" d="M 2419 4116 
L 825 1625 
L 2419 1625 
L 2419 4116 
z
M 2253 4666 
L 3047 4666 
L 3047 1625 
L 3713 1625 
L 3713 1100 
L 3047 1100 
L 3047 0 
L 2419 0 
L 2419 1100 
L 313 1100 
L 313 1709 
L 2253 4666 
z
" transform="scale(0.015625)"/>
       </defs>
       <use xlink:href="#DejaVuSans-34"/>
       <use xlink:href="#DejaVuSans-30" x="63.623047"/>
       <use xlink:href="#DejaVuSans-30" x="127.246094"/>
       <use xlink:href="#DejaVuSans-30" x="190.869141"/>
      </g>
     </g>
    </g>
    <g id="xtick_6">
     <g id="line2d_6">
      <g>
       <use xlink:href="#m2c9aac6bd4" x="398.487273" y="307.584" style="stroke: #000000; stroke-width: 0.8"/>
      </g>
     </g>
     <g id="text_6">
      <!-- 5000 -->
      <g transform="translate(385.762273 322.182437) scale(0.1 -0.1)">
       <defs>
        <path id="DejaVuSans-35" d="M 691 4666 
L 3169 4666 
L 3169 4134 
L 1269 4134 
L 1269 2991 
Q 1406 3038 1543 3061 
Q 1681 3084 1819 3084 
Q 2600 3084 3056 2656 
Q 3513 2228 3513 1497 
Q 3513 744 3044 326 
Q 2575 -91 1722 -91 
Q 1428 -91 1123 -41 
Q 819 9 494 109 
L 494 744 
Q 775 591 1075 516 
Q 1375 441 1709 441 
Q 2250 441 2565 725 
Q 2881 1009 2881 1497 
Q 2881 1984 2565 2268 
Q 2250 2553 1709 2553 
Q 1456 2553 1204 2497 
Q 953 2441 691 2322 
L 691 4666 
z
" transform="scale(0.015625)"/>
       </defs>
       <use xlink:href="#DejaVuSans-35"/>
       <use xlink:href="#DejaVuSans-30" x="63.623047"/>
       <use xlink:href="#DejaVuSans-30" x="127.246094"/>
       <use xlink:href="#DejaVuSans-30" x="190.869141"/>
      </g>
     </g>
    </g>
    <g id="text_7">
     <!-- Samples -->
     <g transform="translate(214.806875 335.860562) scale(0.1 -0.1)">
      <defs>
       <path id="DejaVuSans-53" d="M 3425 4513 
L 3425 3897 
Q 3066 4069 2747 4153 
Q 2428 4238 2131 4238 
Q 1616 4238 1336 4038 
Q 1056 3838 1056 3469 
Q 1056 3159 1242 3001 
Q 1428 2844 1947 2747 
L 2328 2669 
Q 3034 2534 3370 2195 
Q 3706 1856 3706 1288 
Q 3706 609 3251 259 
Q 2797 -91 1919 -91 
Q 1588 -91 1214 -16 
Q 841 59 441 206 
L 441 856 
Q 825 641 1194 531 
Q 1563 422 1919 422 
Q 2459 422 2753 634 
Q 3047 847 3047 1241 
Q 3047 1584 2836 1778 
Q 2625 1972 2144 2069 
L 1759 2144 
Q 1053 2284 737 2584 
Q 422 2884 422 3419 
Q 422 4038 858 4394 
Q 1294 4750 2059 4750 
Q 2388 4750 2728 4690 
Q 3069 4631 3425 4513 
z
" transform="scale(0.015625)"/>
       <path id="DejaVuSans-61" d="M 2194 1759 
Q 1497 1759 1228 1600 
Q 959 1441 959 1056 
Q 959 750 1161 570 
Q 1363 391 1709 391 
Q 2188 391 2477 730 
Q 2766 1069 2766 1631 
L 2766 1759 
L 2194 1759 
z
M 3341 1997 
L 3341 0 
L 2766 0 
L 2766 531 
Q 2569 213 2275 61 
Q 1981 -91 1556 -91 
Q 1019 -91 701 211 
Q 384 513 384 1019 
Q 384 1609 779 1909 
Q 1175 2209 1959 2209 
L 2766 2209 
L 2766 2266 
Q 2766 2663 2505 2880 
Q 2244 3097 1772 3097 
Q 1472 3097 1187 3025 
Q 903 2953 641 2809 
L 641 3341 
Q 956 3463 1253 3523 
Q 1550 3584 1831 3584 
Q 2591 3584 2966 3190 
Q 3341 2797 3341 1997 
z
" transform="scale(0.015625)"/>
       <path id="DejaVuSans-6d" d="M 3328 2828 
Q 3544 3216 3844 3400 
Q 4144 3584 4550 3584 
Q 5097 3584 5394 3201 
Q 5691 2819 5691 2113 
L 5691 0 
L 5113 0 
L 5113 2094 
Q 5113 2597 4934 2840 
Q 4756 3084 4391 3084 
Q 3944 3084 3684 2787 
Q 3425 2491 3425 1978 
L 3425 0 
L 2847 0 
L 2847 2094 
Q 2847 2600 2669 2842 
Q 2491 3084 2119 3084 
Q 1678 3084 1418 2786 
Q 1159 2488 1159 1978 
L 1159 0 
L 581 0 
L 581 3500 
L 1159 3500 
L 1159 2956 
Q 1356 3278 1631 3431 
Q 1906 3584 2284 3584 
Q 2666 3584 2933 3390 
Q 3200 3197 3328 2828 
z
" transform="scale(0.015625)"/>
       <path id="DejaVuSans-70" d="M 1159 525 
L 1159 -1331 
L 581 -1331 
L 581 3500 
L 1159 3500 
L 1159 2969 
Q 1341 3281 1617 3432 
Q 1894 3584 2278 3584 
Q 2916 3584 3314 3078 
Q 3713 2572 3713 1747 
Q 3713 922 3314 415 
Q 2916 -91 2278 -91 
Q 1894 -91 1617 61 
Q 1341 213 1159 525 
z
M 3116 1747 
Q 3116 2381 2855 2742 
Q 2594 3103 2138 3103 
Q 1681 3103 1420 2742 
Q 1159 2381 1159 1747 
Q 1159 1113 1420 752 
Q 1681 391 2138 391 
Q 2594 391 2855 752 
Q 3116 1113 3116 1747 
z
" transform="scale(0.015625)"/>
       <path id="DejaVuSans-6c" d="M 603 4863 
L 1178 4863 
L 1178 0 
L 603 0 
L 603 4863 
z
" transform="scale(0.015625)"/>
       <path id="DejaVuSans-65" d="M 3597 1894 
L 3597 1613 
L 953 1613 
Q 991 1019 1311 708 
Q 1631 397 2203 397 
Q 2534 397 2845 478 
Q 3156 559 3463 722 
L 3463 178 
Q 3153 47 2828 -22 
Q 2503 -91 2169 -91 
Q 1331 -91 842 396 
Q 353 884 353 1716 
Q 353 2575 817 3079 
Q 1281 3584 2069 3584 
Q 2775 3584 3186 3129 
Q 3597 2675 3597 1894 
z
M 3022 2063 
Q 3016 2534 2758 2815 
Q 2500 3097 2075 3097 
Q 1594 3097 1305 2825 
Q 1016 2553 972 2059 
L 3022 2063 
z
" transform="scale(0.015625)"/>
       <path id="DejaVuSans-73" d="M 2834 3397 
L 2834 2853 
Q 2591 2978 2328 3040 
Q 2066 3103 1784 3103 
Q 1356 3103 1142 2972 
Q 928 2841 928 2578 
Q 928 2378 1081 2264 
Q 1234 2150 1697 2047 
L 1894 2003 
Q 2506 1872 2764 1633 
Q 3022 1394 3022 966 
Q 3022 478 2636 193 
Q 2250 -91 1575 -91 
Q 1294 -91 989 -36 
Q 684 19 347 128 
L 347 722 
Q 666 556 975 473 
Q 1284 391 1588 391 
Q 1994 391 2212 530 
Q 2431 669 2431 922 
Q 2431 1156 2273 1281 
Q 2116 1406 1581 1522 
L 1381 1569 
Q 847 1681 609 1914 
Q 372 2147 372 2553 
Q 372 3047 722 3315 
Q 1072 3584 1716 3584 
Q 2034 3584 2315 3537 
Q 2597 3491 2834 3397 
z
" transform="scale(0.015625)"/>
      </defs>
      <use xlink:href="#DejaVuSans-53"/>
      <use xlink:href="#DejaVuSans-61" x="63.476562"/>
      <use xlink:href="#DejaVuSans-6d" x="124.755859"/>
      <use xlink:href="#DejaVuSans-70" x="222.167969"/>
      <use xlink:href="#DejaVuSans-6c" x="285.644531"/>
      <use xlink:href="#DejaVuSans-65" x="313.427734"/>
      <use xlink:href="#DejaVuSans-73" x="374.951172"/>
     </g>
    </g>
   </g>
   <g id="matplotlib.axis_2">
    <g id="ytick_1">
     <g id="line2d_7">
      <defs>
       <path id="m0b207f503c" d="M 0 0 
L -3.5 0 
" style="stroke: #000000; stroke-width: 0.8"/>
      </defs>
      <g>
       <use xlink:href="#m0b207f503c" x="57.6" y="296.660232" style="stroke: #000000; stroke-width: 0.8"/>
      </g>
     </g>
     <g id="text_8">
      <!-- 0.00 -->
      <g transform="translate(28.334375 300.45945) scale(0.1 -0.1)">
       <defs>
        <path id="DejaVuSans-2e" d="M 684 794 
L 1344 794 
L 1344 0 
L 684 0 
L 684 794 
z
" transform="scale(0.015625)"/>
       </defs>
       <use xlink:href="#DejaVuSans-30"/>
       <use xlink:href="#DejaVuSans-2e" x="63.623047"/>
       <use xlink:href="#DejaVuSans-30" x="95.410156"/>
       <use xlink:href="#DejaVuSans-30" x="159.033203"/>
      </g>
     </g>
    </g>
    <g id="ytick_2">
     <g id="line2d_8">
      <g>
       <use xlink:href="#m0b207f503c" x="57.6" y="262.240046" style="stroke: #000000; stroke-width: 0.8"/>
      </g>
     </g>
     <g id="text_9">
      <!-- 0.05 -->
      <g transform="translate(28.334375 266.039265) scale(0.1 -0.1)">
       <use xlink:href="#DejaVuSans-30"/>
       <use xlink:href="#DejaVuSans-2e" x="63.623047"/>
       <use xlink:href="#DejaVuSans-30" x="95.410156"/>
       <use xlink:href="#DejaVuSans-35" x="159.033203"/>
      </g>
     </g>
    </g>
    <g id="ytick_3">
     <g id="line2d_9">
      <g>
       <use xlink:href="#m0b207f503c" x="57.6" y="227.81986" style="stroke: #000000; stroke-width: 0.8"/>
      </g>
     </g>
     <g id="text_10">
      <!-- 0.10 -->
      <g transform="translate(28.334375 231.619079) scale(0.1 -0.1)">
       <use xlink:href="#DejaVuSans-30"/>
       <use xlink:href="#DejaVuSans-2e" x="63.623047"/>
       <use xlink:href="#DejaVuSans-31" x="95.410156"/>
       <use xlink:href="#DejaVuSans-30" x="159.033203"/>
      </g>
     </g>
    </g>
    <g id="ytick_4">
     <g id="line2d_10">
      <g>
       <use xlink:href="#m0b207f503c" x="57.6" y="193.399675" style="stroke: #000000; stroke-width: 0.8"/>
      </g>
     </g>
     <g id="text_11">
      <!-- 0.15 -->
      <g transform="translate(28.334375 197.198894) scale(0.1 -0.1)">
       <use xlink:href="#DejaVuSans-30"/>
       <use xlink:href="#DejaVuSans-2e" x="63.623047"/>
       <use xlink:href="#DejaVuSans-31" x="95.410156"/>
       <use xlink:href="#DejaVuSans-35" x="159.033203"/>
      </g>
     </g>
    </g>
    <g id="ytick_5">
     <g id="line2d_11">
      <g>
       <use xlink:href="#m0b207f503c" x="57.6" y="158.979489" style="stroke: #000000; stroke-width: 0.8"/>
      </g>
     </g>
     <g id="text_12">
      <!-- 0.20 -->
      <g transform="translate(28.334375 162.778708) scale(0.1 -0.1)">
       <use xlink:href="#DejaVuSans-30"/>
       <use xlink:href="#DejaVuSans-2e" x="63.623047"/>
       <use xlink:href="#DejaVuSans-32" x="95.410156"/>
       <use xlink:href="#DejaVuSans-30" x="159.033203"/>
      </g>
     </g>
    </g>
    <g id="ytick_6">
     <g id="line2d_12">
      <g>
       <use xlink:href="#m0b207f503c" x="57.6" y="124.559304" style="stroke: #000000; stroke-width: 0.8"/>
      </g>
     </g>
     <g id="text_13">
      <!-- 0.25 -->
      <g transform="translate(28.334375 128.358523) scale(0.1 -0.1)">
       <use xlink:href="#DejaVuSans-30"/>
       <use xlink:href="#DejaVuSans-2e" x="63.623047"/>
       <use xlink:href="#DejaVuSans-32" x="95.410156"/>
       <use xlink:href="#DejaVuSans-35" x="159.033203"/>
      </g>
     </g>
    </g>
    <g id="ytick_7">
     <g id="line2d_13">
      <g>
       <use xlink:href="#m0b207f503c" x="57.6" y="90.139118" style="stroke: #000000; stroke-width: 0.8"/>
      </g>
     </g>
     <g id="text_14">
      <!-- 0.30 -->
      <g transform="translate(28.334375 93.938337) scale(0.1 -0.1)">
       <use xlink:href="#DejaVuSans-30"/>
       <use xlink:href="#DejaVuSans-2e" x="63.623047"/>
       <use xlink:href="#DejaVuSans-33" x="95.410156"/>
       <use xlink:href="#DejaVuSans-30" x="159.033203"/>
      </g>
     </g>
    </g>
    <g id="ytick_8">
     <g id="line2d_14">
      <g>
       <use xlink:href="#m0b207f503c" x="57.6" y="55.718933" style="stroke: #000000; stroke-width: 0.8"/>
      </g>
     </g>
     <g id="text_15">
      <!-- 0.35 -->
      <g transform="translate(28.334375 59.518152) scale(0.1 -0.1)">
       <use xlink:href="#DejaVuSans-30"/>
       <use xlink:href="#DejaVuSans-2e" x="63.623047"/>
       <use xlink:href="#DejaVuSans-33" x="95.410156"/>
       <use xlink:href="#DejaVuSans-35" x="159.033203"/>
      </g>
     </g>
    </g>
    <g id="text_16">
     <!-- Absolute error Σ(Myerson) -->
     <g transform="translate(22.254687 239.960812) rotate(-90) scale(0.1 -0.1)">
      <defs>
       <path id="DejaVuSans-41" d="M 2188 4044 
L 1331 1722 
L 3047 1722 
L 2188 4044 
z
M 1831 4666 
L 2547 4666 
L 4325 0 
L 3669 0 
L 3244 1197 
L 1141 1197 
L 716 0 
L 50 0 
L 1831 4666 
z
" transform="scale(0.015625)"/>
       <path id="DejaVuSans-62" d="M 3116 1747 
Q 3116 2381 2855 2742 
Q 2594 3103 2138 3103 
Q 1681 3103 1420 2742 
Q 1159 2381 1159 1747 
Q 1159 1113 1420 752 
Q 1681 391 2138 391 
Q 2594 391 2855 752 
Q 3116 1113 3116 1747 
z
M 1159 2969 
Q 1341 3281 1617 3432 
Q 1894 3584 2278 3584 
Q 2916 3584 3314 3078 
Q 3713 2572 3713 1747 
Q 3713 922 3314 415 
Q 2916 -91 2278 -91 
Q 1894 -91 1617 61 
Q 1341 213 1159 525 
L 1159 0 
L 581 0 
L 581 4863 
L 1159 4863 
L 1159 2969 
z
" transform="scale(0.015625)"/>
       <path id="DejaVuSans-6f" d="M 1959 3097 
Q 1497 3097 1228 2736 
Q 959 2375 959 1747 
Q 959 1119 1226 758 
Q 1494 397 1959 397 
Q 2419 397 2687 759 
Q 2956 1122 2956 1747 
Q 2956 2369 2687 2733 
Q 2419 3097 1959 3097 
z
M 1959 3584 
Q 2709 3584 3137 3096 
Q 3566 2609 3566 1747 
Q 3566 888 3137 398 
Q 2709 -91 1959 -91 
Q 1206 -91 779 398 
Q 353 888 353 1747 
Q 353 2609 779 3096 
Q 1206 3584 1959 3584 
z
" transform="scale(0.015625)"/>
       <path id="DejaVuSans-75" d="M 544 1381 
L 544 3500 
L 1119 3500 
L 1119 1403 
Q 1119 906 1312 657 
Q 1506 409 1894 409 
Q 2359 409 2629 706 
Q 2900 1003 2900 1516 
L 2900 3500 
L 3475 3500 
L 3475 0 
L 2900 0 
L 2900 538 
Q 2691 219 2414 64 
Q 2138 -91 1772 -91 
Q 1169 -91 856 284 
Q 544 659 544 1381 
z
M 1991 3584 
L 1991 3584 
z
" transform="scale(0.015625)"/>
       <path id="DejaVuSans-74" d="M 1172 4494 
L 1172 3500 
L 2356 3500 
L 2356 3053 
L 1172 3053 
L 1172 1153 
Q 1172 725 1289 603 
Q 1406 481 1766 481 
L 2356 481 
L 2356 0 
L 1766 0 
Q 1100 0 847 248 
Q 594 497 594 1153 
L 594 3053 
L 172 3053 
L 172 3500 
L 594 3500 
L 594 4494 
L 1172 4494 
z
" transform="scale(0.015625)"/>
       <path id="DejaVuSans-20" transform="scale(0.015625)"/>
       <path id="DejaVuSans-72" d="M 2631 2963 
Q 2534 3019 2420 3045 
Q 2306 3072 2169 3072 
Q 1681 3072 1420 2755 
Q 1159 2438 1159 1844 
L 1159 0 
L 581 0 
L 581 3500 
L 1159 3500 
L 1159 2956 
Q 1341 3275 1631 3429 
Q 1922 3584 2338 3584 
Q 2397 3584 2469 3576 
Q 2541 3569 2628 3553 
L 2631 2963 
z
" transform="scale(0.015625)"/>
       <path id="DejaVuSans-3a3" d="M 1353 531 
L 3634 531 
L 3634 0 
L 628 0 
L 628 531 
L 2125 2481 
L 628 4134 
L 628 4666 
L 3578 4666 
L 3578 4134 
L 1353 4134 
L 2850 2494 
L 1353 531 
z
" transform="scale(0.015625)"/>
       <path id="DejaVuSans-28" d="M 1984 4856 
Q 1566 4138 1362 3434 
Q 1159 2731 1159 2009 
Q 1159 1288 1364 580 
Q 1569 -128 1984 -844 
L 1484 -844 
Q 1016 -109 783 600 
Q 550 1309 550 2009 
Q 550 2706 781 3412 
Q 1013 4119 1484 4856 
L 1984 4856 
z
" transform="scale(0.015625)"/>
       <path id="DejaVuSans-4d" d="M 628 4666 
L 1569 4666 
L 2759 1491 
L 3956 4666 
L 4897 4666 
L 4897 0 
L 4281 0 
L 4281 4097 
L 3078 897 
L 2444 897 
L 1241 4097 
L 1241 0 
L 628 0 
L 628 4666 
z
" transform="scale(0.015625)"/>
       <path id="DejaVuSans-79" d="M 2059 -325 
Q 1816 -950 1584 -1140 
Q 1353 -1331 966 -1331 
L 506 -1331 
L 506 -850 
L 844 -850 
Q 1081 -850 1212 -737 
Q 1344 -625 1503 -206 
L 1606 56 
L 191 3500 
L 800 3500 
L 1894 763 
L 2988 3500 
L 3597 3500 
L 2059 -325 
z
" transform="scale(0.015625)"/>
       <path id="DejaVuSans-6e" d="M 3513 2113 
L 3513 0 
L 2938 0 
L 2938 2094 
Q 2938 2591 2744 2837 
Q 2550 3084 2163 3084 
Q 1697 3084 1428 2787 
Q 1159 2491 1159 1978 
L 1159 0 
L 581 0 
L 581 3500 
L 1159 3500 
L 1159 2956 
Q 1366 3272 1645 3428 
Q 1925 3584 2291 3584 
Q 2894 3584 3203 3211 
Q 3513 2838 3513 2113 
z
" transform="scale(0.015625)"/>
       <path id="DejaVuSans-29" d="M 513 4856 
L 1013 4856 
Q 1481 4119 1714 3412 
Q 1947 2706 1947 2009 
Q 1947 1309 1714 600 
Q 1481 -109 1013 -844 
L 513 -844 
Q 928 -128 1133 580 
Q 1338 1288 1338 2009 
Q 1338 2731 1133 3434 
Q 928 4138 513 4856 
z
" transform="scale(0.015625)"/>
      </defs>
      <use xlink:href="#DejaVuSans-41"/>
      <use xlink:href="#DejaVuSans-62" x="68.408203"/>
      <use xlink:href="#DejaVuSans-73" x="131.884766"/>
      <use xlink:href="#DejaVuSans-6f" x="183.984375"/>
      <use xlink:href="#DejaVuSans-6c" x="245.166016"/>
      <use xlink:href="#DejaVuSans-75" x="272.949219"/>
      <use xlink:href="#DejaVuSans-74" x="336.328125"/>
      <use xlink:href="#DejaVuSans-65" x="375.537109"/>
      <use xlink:href="#DejaVuSans-20" x="437.060547"/>
      <use xlink:href="#DejaVuSans-65" x="468.847656"/>
      <use xlink:href="#DejaVuSans-72" x="530.371094"/>
      <use xlink:href="#DejaVuSans-72" x="569.734375"/>
      <use xlink:href="#DejaVuSans-6f" x="608.597656"/>
      <use xlink:href="#DejaVuSans-72" x="669.779297"/>
      <use xlink:href="#DejaVuSans-20" x="710.892578"/>
      <use xlink:href="#DejaVuSans-3a3" x="742.679688"/>
      <use xlink:href="#DejaVuSans-28" x="805.863281"/>
      <use xlink:href="#DejaVuSans-4d" x="844.876953"/>
      <use xlink:href="#DejaVuSans-79" x="931.15625"/>
      <use xlink:href="#DejaVuSans-65" x="990.335938"/>
      <use xlink:href="#DejaVuSans-72" x="1051.859375"/>
      <use xlink:href="#DejaVuSans-73" x="1092.972656"/>
      <use xlink:href="#DejaVuSans-6f" x="1145.072266"/>
      <use xlink:href="#DejaVuSans-6e" x="1206.253906"/>
      <use xlink:href="#DejaVuSans-29" x="1269.632812"/>
     </g>
    </g>
   </g>
   <g id="line2d_15">
    <path d="M 73.832727 123.928887 
L 75.133948 231.59432 
L 75.784558 237.919706 
L 76.435169 225.045088 
L 77.085779 237.762698 
L 77.736389 246.804287 
L 78.386999 244.375543 
L 79.03761 258.162191 
L 79.68822 265.481978 
L 80.33883 262.462829 
L 80.989441 240.26402 
L 81.640051 270.317254 
L 82.290661 272.348357 
L 82.941272 257.85412 
L 83.591882 269.220563 
L 84.242492 259.659544 
L 84.893103 263.50524 
L 85.543713 265.400953 
L 86.194323 271.422696 
L 86.844934 268.62832 
L 87.495544 266.654785 
L 88.146154 263.699657 
L 88.796764 268.529571 
L 89.447375 260.161099 
L 90.097985 265.400563 
L 90.748595 263.793393 
L 91.399206 276.87778 
L 92.049816 261.31522 
L 92.700426 278.197388 
L 93.351037 272.91441 
L 94.001647 275.619646 
L 94.652257 273.651946 
L 95.302868 275.219391 
L 95.953478 269.531066 
L 97.905309 283.163093 
L 98.555919 280.163333 
L 99.206529 273.482902 
L 100.50775 283.172913 
L 101.15836 277.409577 
L 101.808971 289.197231 
L 103.110191 271.084863 
L 103.760802 274.638582 
L 104.411412 279.246033 
L 105.062022 277.132735 
L 105.712633 274.292254 
L 106.363243 280.149029 
L 107.013853 282.037849 
L 107.664463 279.059496 
L 108.315074 273.522371 
L 108.965684 280.228038 
L 109.616294 276.758276 
L 110.266905 275.384195 
L 110.917515 273.136834 
L 111.568125 277.948545 
L 112.218736 278.430776 
L 112.869346 285.032631 
L 113.519956 282.918792 
L 114.170567 281.384526 
L 114.821177 276.916174 
L 115.471787 281.946218 
L 116.122398 280.503437 
L 116.773008 283.716272 
L 117.423618 281.023315 
L 118.074228 283.326375 
L 118.724839 281.969421 
L 119.375449 285.124482 
L 120.026059 282.534392 
L 120.67667 282.388721 
L 121.32728 286.507766 
L 121.97789 282.968132 
L 122.628501 277.175378 
L 123.279111 279.388917 
L 123.929721 289.045948 
L 124.580332 279.955319 
L 125.230942 284.570669 
L 125.881552 278.491734 
L 126.532163 279.302765 
L 127.182773 285.0441 
L 127.833383 285.277443 
L 128.483993 282.621255 
L 129.785214 278.426072 
L 130.435824 282.541395 
L 131.086435 283.327824 
L 131.737045 285.537195 
L 132.387655 287.008867 
L 133.038266 280.443993 
L 133.688876 281.493383 
L 134.339486 282.020709 
L 134.990097 286.550969 
L 135.640707 290.136052 
L 136.291317 281.076655 
L 136.941927 282.801234 
L 137.592538 288.199337 
L 138.243148 281.994766 
L 138.893758 286.91367 
L 139.544369 285.047993 
L 140.194979 286.597432 
L 141.4962 278.910059 
L 142.14681 282.104175 
L 142.79742 287.490764 
L 143.448031 287.375708 
L 144.098641 284.091924 
L 144.749251 282.564943 
L 145.399862 284.404989 
L 146.050472 279.898232 
L 146.701082 284.424837 
L 147.351692 290.842078 
L 148.002303 286.633324 
L 149.303523 280.673791 
L 149.954134 280.264314 
L 150.604744 282.782194 
L 151.255354 288.970721 
L 151.905965 284.548743 
L 152.556575 285.977501 
L 153.207185 277.322618 
L 153.857796 287.337195 
L 154.508406 282.73889 
L 155.159016 283.768849 
L 155.809627 285.636166 
L 156.460237 277.602914 
L 157.110847 285.140803 
L 157.761457 282.416204 
L 158.412068 285.392409 
L 159.062678 281.990296 
L 159.713288 284.90224 
L 160.363899 278.62518 
L 161.014509 286.98274 
L 161.665119 289.042035 
L 162.31573 285.258921 
L 162.96634 282.788801 
L 163.61695 285.548283 
L 164.267561 289.108409 
L 164.918171 288.463599 
L 165.568781 286.197047 
L 166.219392 290.648219 
L 166.870002 285.463379 
L 167.520612 281.689992 
L 168.171222 287.367456 
L 168.821833 286.807019 
L 169.472443 285.429354 
L 170.123053 287.970382 
L 170.773664 286.973835 
L 171.424274 289.38679 
L 172.074884 286.231141 
L 172.725495 285.495205 
L 173.376105 290.752623 
L 174.026715 288.44098 
L 174.677326 290.501224 
L 175.327936 283.392475 
L 175.978546 289.555418 
L 176.629156 284.946404 
L 177.279767 285.814525 
L 177.930377 284.812853 
L 178.580987 283.067947 
L 179.231598 274.972316 
L 179.882208 290.747095 
L 180.532818 289.0504 
L 181.183429 286.624235 
L 181.834039 289.177174 
L 182.484649 287.799818 
L 183.13526 290.570873 
L 183.78587 287.561784 
L 184.43648 290.166566 
L 185.087091 285.334412 
L 185.737701 286.77553 
L 186.388311 286.743076 
L 187.038921 286.556316 
L 187.689532 289.302351 
L 188.340142 286.289992 
L 188.990752 282.359182 
L 189.641363 288.918254 
L 190.291973 286.676057 
L 190.942583 283.806763 
L 191.593194 289.797588 
L 192.243804 289.445718 
L 192.894414 287.311715 
L 193.545025 286.74921 
L 194.195635 284.829621 
L 194.846245 286.780943 
L 195.496856 289.243655 
L 196.147466 286.355122 
L 196.798076 287.800438 
L 197.448686 290.431756 
L 198.099297 283.7939 
L 198.749907 283.169318 
L 199.400517 283.46126 
L 200.051128 285.529255 
L 200.701738 286.382244 
L 201.352348 285.789069 
L 202.653569 287.894804 
L 203.304179 288.243873 
L 203.95479 283.990474 
L 204.6054 286.8707 
L 205.906621 282.598601 
L 206.557231 288.135536 
L 207.207841 286.157662 
L 207.858451 288.879306 
L 208.509062 284.744122 
L 209.159672 288.080334 
L 209.810282 287.916381 
L 210.460893 287.935319 
L 211.111503 284.997053 
L 211.762113 286.754964 
L 212.412724 284.458642 
L 213.063334 288.597483 
L 213.713944 289.400912 
L 214.364555 285.786021 
L 215.015165 290.259956 
L 215.665775 290.277043 
L 216.966996 285.08954 
L 217.617606 284.032779 
L 218.918827 291.514616 
L 219.569437 284.923547 
L 220.220047 287.97899 
L 220.870658 287.772675 
L 221.521268 288.062941 
L 222.171878 291.715964 
L 222.822489 287.482266 
L 223.473099 290.959527 
L 224.123709 287.720886 
L 224.77432 290.04744 
L 225.42493 287.858471 
L 226.07554 289.926317 
L 227.376761 285.32925 
L 228.027371 287.035018 
L 228.677981 288.230095 
L 229.328592 286.362949 
L 229.979202 288.262451 
L 230.629812 288.071931 
L 231.280423 287.642469 
L 231.931033 290.852964 
L 232.581643 290.655141 
L 233.232254 288.158868 
L 233.882864 287.860416 
L 234.533474 292.182659 
L 235.184085 289.72424 
L 235.834695 288.031285 
L 236.485305 289.976963 
L 237.135915 283.115211 
L 237.786526 289.176195 
L 238.437136 287.625901 
L 239.087746 290.13617 
L 239.738357 290.92485 
L 240.388967 285.126052 
L 241.039577 290.733098 
L 241.690188 289.278459 
L 242.340798 290.632237 
L 242.991408 287.150356 
L 243.642019 292.474545 
L 244.292629 290.372781 
L 244.943239 289.181298 
L 245.59385 290.301485 
L 246.24446 286.430181 
L 246.89507 289.136805 
L 247.54568 289.919689 
L 248.196291 286.103836 
L 248.846901 289.041351 
L 249.497511 285.957318 
L 250.148122 287.788588 
L 250.798732 286.025823 
L 251.449342 288.658921 
L 252.099953 289.493856 
L 252.750563 287.82283 
L 253.401173 286.987977 
L 254.051784 288.629685 
L 254.702394 286.762243 
L 255.353004 290.821892 
L 256.003615 286.533303 
L 256.654225 289.188098 
L 257.304835 289.811886 
L 257.955445 288.545252 
L 258.606056 289.470709 
L 259.256666 288.484118 
L 259.907276 288.774081 
L 260.557887 288.255516 
L 261.208497 284.95247 
L 261.859107 282.496331 
L 262.509718 289.504636 
L 263.160328 289.180352 
L 263.810938 289.051612 
L 264.461549 287.24762 
L 265.112159 287.913921 
L 265.762769 290.519086 
L 266.413379 287.296138 
L 267.06399 289.058005 
L 267.7146 286.872296 
L 268.36521 292.880135 
L 269.015821 291.411149 
L 269.666431 286.976534 
L 270.317041 288.751956 
L 270.967652 287.674199 
L 271.618262 290.652163 
L 272.268872 289.682058 
L 272.919483 289.778948 
L 273.570093 288.429183 
L 274.220703 291.442316 
L 274.871314 290.079912 
L 275.521924 287.517507 
L 276.172534 289.277029 
L 276.823144 287.404734 
L 277.473755 289.857281 
L 278.124365 285.792257 
L 278.774975 292.204761 
L 279.425586 293.488708 
L 280.076196 289.336274 
L 280.726806 289.566643 
L 281.377417 289.145032 
L 282.028027 290.474655 
L 282.678637 289.570134 
L 283.979858 291.321218 
L 284.630468 291.72091 
L 285.281079 288.473716 
L 285.931689 288.69136 
L 286.582299 293.72417 
L 287.232909 289.581593 
L 287.88352 289.806896 
L 288.53413 288.650208 
L 289.18474 289.759513 
L 289.835351 292.960422 
L 290.485961 290.882595 
L 291.136571 291.620527 
L 291.787182 291.74462 
L 292.437792 292.166901 
L 293.088402 289.288188 
L 293.739013 287.140595 
L 294.389623 289.977703 
L 295.040233 290.429248 
L 295.690844 289.894849 
L 296.341454 288.132534 
L 296.992064 287.648159 
L 297.642674 291.919017 
L 298.293285 291.712846 
L 298.943895 288.927929 
L 299.594505 291.514682 
L 300.245116 292.544139 
L 300.895726 289.943639 
L 302.196947 289.362293 
L 302.847557 290.909498 
L 303.498167 288.368009 
L 304.148778 291.392182 
L 304.799388 288.971786 
L 305.449998 290.700467 
L 306.100608 289.491796 
L 306.751219 291.811772 
L 307.401829 290.189872 
L 308.052439 292.357363 
L 308.70305 289.170976 
L 309.35366 289.338151 
L 310.00427 291.040737 
L 310.654881 290.181252 
L 311.305491 289.752413 
L 311.956101 290.888574 
L 312.606712 289.136549 
L 313.257322 288.016394 
L 313.907932 291.275842 
L 314.558543 289.145991 
L 315.209153 290.215376 
L 315.859763 289.221661 
L 316.510373 286.871493 
L 317.160984 289.658498 
L 317.811594 289.354302 
L 318.462204 291.220719 
L 319.112815 291.1512 
L 319.763425 290.945313 
L 320.414035 291.437451 
L 321.064646 291.190232 
L 321.715256 290.392128 
L 322.365866 290.889194 
L 323.016477 292.313223 
L 323.667087 289.924141 
L 324.317697 288.059567 
L 324.968308 292.169194 
L 325.618918 290.474909 
L 326.269528 291.659632 
L 326.920138 289.768814 
L 327.570749 291.172861 
L 328.221359 290.482904 
L 328.871969 288.799699 
L 329.52258 287.654935 
L 330.17319 289.207772 
L 330.8238 290.302137 
L 331.474411 288.864311 
L 332.125021 289.463693 
L 332.775631 286.928481 
L 333.426242 290.705286 
L 334.076852 290.172666 
L 334.727462 286.711511 
L 335.378073 285.963593 
L 336.028683 290.622688 
L 336.679293 288.155801 
L 337.329903 290.490862 
L 337.980514 287.295651 
L 338.631124 290.989745 
L 339.281734 290.511763 
L 339.932345 288.746583 
L 340.582955 291.305327 
L 341.233565 287.834722 
L 341.884176 290.12802 
L 342.534786 290.16938 
L 343.185396 289.102079 
L 343.836007 290.428563 
L 344.486617 289.485811 
L 345.137227 289.689247 
L 345.787837 291.941694 
L 346.438448 289.463822 
L 347.089058 289.889034 
L 347.739668 288.267872 
L 348.390279 291.266355 
L 349.040889 289.758274 
L 349.691499 287.748062 
L 350.34211 292.480102 
L 350.99272 290.553831 
L 351.64333 289.33072 
L 352.293941 289.970988 
L 352.944551 289.016152 
L 353.595161 293.701504 
L 354.245772 286.712189 
L 354.896382 289.854627 
L 355.546992 291.120783 
L 356.197602 290.763897 
L 356.848213 291.070158 
L 358.149433 290.686732 
L 358.800044 289.823632 
L 359.450654 290.567033 
L 360.101264 290.99642 
L 360.751875 291.946269 
L 361.402485 290.758121 
L 362.053095 291.567435 
L 362.703706 288.396849 
L 363.354316 293.907015 
L 364.004926 289.119218 
L 364.655537 288.916145 
L 365.306147 290.518534 
L 365.956757 291.695109 
L 366.607367 291.35805 
L 367.257978 291.837923 
L 367.908588 293.961264 
L 368.559198 288.851071 
L 369.209809 291.064279 
L 369.860419 287.418197 
L 370.511029 291.524282 
L 371.16164 291.930314 
L 371.81225 291.044556 
L 372.46286 288.559274 
L 373.113471 290.552641 
L 373.764081 289.962705 
L 374.414691 286.821421 
L 375.065302 291.742295 
L 376.366522 291.635988 
L 377.017132 289.772474 
L 377.667743 288.974439 
L 378.318353 292.775202 
L 378.968963 290.126261 
L 379.619574 289.199903 
L 380.270184 291.102862 
L 380.920794 289.714642 
L 381.571405 290.451403 
L 382.222015 291.019308 
L 382.872625 291.938407 
L 383.523236 291.603943 
L 384.824456 289.259723 
L 385.475066 290.222801 
L 386.125677 291.956615 
L 386.776287 292.624066 
L 387.426897 290.366924 
L 388.077508 290.567516 
L 388.728118 293.678887 
L 389.378728 291.337737 
L 390.029339 290.878001 
L 390.679949 289.086255 
L 391.330559 289.97721 
L 391.98117 290.395303 
L 392.63178 288.611838 
L 393.28239 291.812992 
L 393.933001 291.181432 
L 394.583611 290.011047 
L 395.234221 291.854249 
L 395.884831 291.895765 
L 396.535442 290.498666 
L 397.186052 291.595655 
L 397.836662 289.909225 
L 398.487273 291.595614 
L 398.487273 291.595614 
" clip-path="url(#p42f69aea73)" style="fill: none; stroke: #1f77b4; stroke-width: 1.5; stroke-linecap: square"/>
   </g>
   <g id="patch_3">
    <path d="M 57.6 307.584 
L 57.6 41.472 
" style="fill: none; stroke: #000000; stroke-width: 0.8; stroke-linejoin: miter; stroke-linecap: square"/>
   </g>
   <g id="patch_4">
    <path d="M 414.72 307.584 
L 414.72 41.472 
" style="fill: none; stroke: #000000; stroke-width: 0.8; stroke-linejoin: miter; stroke-linecap: square"/>
   </g>
   <g id="patch_5">
    <path d="M 57.6 307.584 
L 414.72 307.584 
" style="fill: none; stroke: #000000; stroke-width: 0.8; stroke-linejoin: miter; stroke-linecap: square"/>
   </g>
   <g id="patch_6">
    <path d="M 57.6 41.472 
L 414.72 41.472 
" style="fill: none; stroke: #000000; stroke-width: 0.8; stroke-linejoin: miter; stroke-linecap: square"/>
   </g>
  </g>
 </g>
 <defs>
  <clipPath id="p42f69aea73">
   <rect x="57.6" y="41.472" width="357.12" height="266.112"/>
  </clipPath>
 </defs>
</svg>
