<?xml version="1.0" encoding="utf-8" standalone="no"?>
<!DOCTYPE svg PUBLIC "-//W3C//DTD SVG 1.1//EN"
  "http://www.w3.org/Graphics/SVG/1.1/DTD/svg11.dtd">
<svg xmlns:xlink="http://www.w3.org/1999/xlink" width="460.8pt" height="345.6pt" viewBox="0 0 460.8 345.6" xmlns="http://www.w3.org/2000/svg" version="1.1">
 <metadata>
  <rdf:RDF xmlns:dc="http://purl.org/dc/elements/1.1/" xmlns:cc="http://creativecommons.org/ns#" xmlns:rdf="http://www.w3.org/1999/02/22-rdf-syntax-ns#">
   <cc:Work>
    <dc:type rdf:resource="http://purl.org/dc/dcmitype/StillImage"/>
    <dc:date>2024-04-26T18:17:44.142990</dc:date>
    <dc:format>image/svg+xml</dc:format>
    <dc:creator>
     <cc:Agent>
      <dc:title>Matplotlib v3.7.1, https://matplotlib.org/</dc:title>
     </cc:Agent>
    </dc:creator>
   </cc:Work>
  </rdf:RDF>
 </metadata>
 <defs>
  <style type="text/css">*{stroke-linejoin: round; stroke-linecap: butt}</style>
 </defs>
 <g id="figure_1">
  <g id="patch_1">
   <path d="M 0 345.6 
L 460.8 345.6 
L 460.8 0 
L 0 0 
z
" style="fill: #ffffff"/>
  </g>
  <g id="axes_1">
   <g id="patch_2">
    <path d="M 57.6 307.584 
L 414.72 307.584 
L 414.72 41.472 
L 57.6 41.472 
z
" style="fill: #ffffff"/>
   </g>
   <g id="PolyCollection_1">
    <defs>
     <path id="m492556af77" d="M 73.832727 -57.273209 
L 73.832727 -50.726348 
L 81.751131 -54.477557 
L 89.669534 -56.833037 
L 97.587938 -58.944134 
L 105.506341 -61.316662 
L 113.424745 -65.618853 
L 121.343149 -69.924725 
L 129.261552 -67.477105 
L 137.179956 -71.428672 
L 145.098359 -72.208861 
L 153.016763 -75.677348 
L 160.935166 -75.793129 
L 168.85357 -79.130469 
L 176.771973 -81.446755 
L 184.690377 -79.765641 
L 192.60878 -80.573349 
L 200.527184 -82.467752 
L 208.445588 -84.068138 
L 216.363991 -84.848993 
L 224.282395 -86.87299 
L 232.200798 -89.040995 
L 240.119202 -87.382665 
L 248.037605 -88.649611 
L 255.956009 -89.986897 
L 263.874412 -92.179024 
L 271.792816 -90.340573 
L 279.71122 -92.539437 
L 287.629623 -92.923284 
L 295.548027 -94.735273 
L 303.46643 -94.361783 
L 311.384834 -95.857693 
L 319.303237 -96.557139 
L 327.221641 -97.101925 
L 335.140044 -97.721229 
L 343.058448 -98.897997 
L 350.976851 -99.803095 
L 358.895255 -99.531981 
L 366.813659 -100.707094 
L 374.732062 -102.260077 
L 382.650466 -102.789132 
L 390.568869 -102.127464 
L 398.487273 -104.301681 
L 398.487273 -106.501557 
L 398.487273 -106.501557 
L 390.568869 -106.52697 
L 382.650466 -105.713296 
L 374.732062 -105.108686 
L 366.813659 -103.921024 
L 358.895255 -104.87481 
L 350.976851 -103.191526 
L 343.058448 -101.07732 
L 335.140044 -101.418956 
L 327.221641 -101.507956 
L 319.303237 -99.294486 
L 311.384834 -99.214474 
L 303.46643 -97.13245 
L 295.548027 -97.890648 
L 287.629623 -97.861383 
L 279.71122 -95.534615 
L 271.792816 -94.832145 
L 263.874412 -99.270339 
L 255.956009 -95.721351 
L 248.037605 -95.413918 
L 240.119202 -90.638072 
L 232.200798 -93.117766 
L 224.282395 -93.025607 
L 216.363991 -86.673347 
L 208.445588 -88.090087 
L 200.527184 -90.010556 
L 192.60878 -86.856247 
L 184.690377 -83.749464 
L 176.771973 -83.995663 
L 168.85357 -81.563943 
L 160.935166 -80.117915 
L 153.016763 -80.863251 
L 145.098359 -76.5248 
L 137.179956 -76.704365 
L 129.261552 -73.03474 
L 121.343149 -73.598593 
L 113.424745 -71.74706 
L 105.506341 -68.891414 
L 97.587938 -62.19581 
L 89.669534 -59.140339 
L 81.751131 -63.089841 
L 73.832727 -57.273209 
z
" style="stroke: #1f77b4; stroke-opacity: 0.2"/>
    </defs>
    <g clip-path="url(#pe143ce4ca9)">
     <use xlink:href="#m492556af77" x="0" y="345.6" style="fill: #1f77b4; fill-opacity: 0.2; stroke: #1f77b4; stroke-opacity: 0.2"/>
    </g>
   </g>
   <g id="PolyCollection_2">
    <defs>
     <path id="mb722dab925" d="M 73.832727 -71.282482 
L 73.832727 -66.600171 
L 81.751131 -74.591778 
L 89.669534 -81.662027 
L 97.587938 -82.368088 
L 105.506341 -89.30162 
L 113.424745 -91.49297 
L 121.343149 -97.43378 
L 129.261552 -101.129092 
L 137.179956 -103.05362 
L 145.098359 -102.466302 
L 153.016763 -103.361838 
L 160.935166 -107.08676 
L 168.85357 -110.226792 
L 176.771973 -112.116748 
L 184.690377 -111.726986 
L 192.60878 -114.324521 
L 200.527184 -115.372531 
L 208.445588 -118.281884 
L 216.363991 -117.458518 
L 224.282395 -119.226356 
L 232.200798 -121.829883 
L 240.119202 -119.725492 
L 248.037605 -121.739354 
L 255.956009 -123.271358 
L 263.874412 -124.721299 
L 271.792816 -126.374491 
L 279.71122 -126.178 
L 287.629623 -127.702794 
L 295.548027 -128.401712 
L 303.46643 -127.842747 
L 311.384834 -129.611729 
L 319.303237 -130.488093 
L 327.221641 -130.60278 
L 335.140044 -132.154753 
L 343.058448 -132.928428 
L 350.976851 -133.970845 
L 358.895255 -133.988223 
L 366.813659 -134.3936 
L 374.732062 -136.456962 
L 382.650466 -137.106737 
L 390.568869 -136.820083 
L 398.487273 -135.180665 
L 398.487273 -137.911641 
L 398.487273 -137.911641 
L 390.568869 -138.375735 
L 382.650466 -139.787277 
L 374.732062 -138.087171 
L 366.813659 -136.910746 
L 358.895255 -138.89546 
L 350.976851 -137.294039 
L 343.058448 -135.642243 
L 335.140044 -134.226427 
L 327.221641 -132.455506 
L 319.303237 -132.618453 
L 311.384834 -131.974423 
L 303.46643 -131.365235 
L 295.548027 -133.421613 
L 287.629623 -130.497179 
L 279.71122 -128.032638 
L 271.792816 -129.576372 
L 263.874412 -130.473371 
L 255.956009 -132.604083 
L 248.037605 -126.004872 
L 240.119202 -122.656821 
L 232.200798 -125.748627 
L 224.282395 -124.2406 
L 216.363991 -122.258262 
L 208.445588 -122.09356 
L 200.527184 -120.737983 
L 192.60878 -118.234292 
L 184.690377 -115.899163 
L 176.771973 -117.254612 
L 168.85357 -114.397822 
L 160.935166 -110.525229 
L 153.016763 -111.087496 
L 145.098359 -107.662864 
L 137.179956 -107.942021 
L 129.261552 -105.407947 
L 121.343149 -102.364336 
L 113.424745 -97.226841 
L 105.506341 -95.096266 
L 97.587938 -88.076474 
L 89.669534 -86.756149 
L 81.751131 -82.86601 
L 73.832727 -71.282482 
z
" style="stroke: #ff7f0e; stroke-opacity: 0.2"/>
    </defs>
    <g clip-path="url(#pe143ce4ca9)">
     <use xlink:href="#mb722dab925" x="0" y="345.6" style="fill: #ff7f0e; fill-opacity: 0.2; stroke: #ff7f0e; stroke-opacity: 0.2"/>
    </g>
   </g>
   <g id="PolyCollection_3">
    <defs>
     <path id="mb714332ec6" d="M 73.832727 -78.190361 
L 73.832727 -74.458368 
L 81.751131 -83.680066 
L 89.669534 -92.002415 
L 97.587938 -94.070679 
L 105.506341 -104.56534 
L 113.424745 -106.920357 
L 121.343149 -115.614806 
L 129.261552 -120.820989 
L 137.179956 -122.950988 
L 145.098359 -124.734808 
L 153.016763 -123.230964 
L 160.935166 -131.424989 
L 168.85357 -131.887694 
L 176.771973 -132.930307 
L 184.690377 -135.265716 
L 192.60878 -137.111808 
L 200.527184 -140.498845 
L 208.445588 -143.671864 
L 216.363991 -143.277396 
L 224.282395 -144.278773 
L 232.200798 -148.014848 
L 240.119202 -147.492787 
L 248.037605 -148.240125 
L 255.956009 -151.607853 
L 263.874412 -152.241358 
L 271.792816 -154.476027 
L 279.71122 -153.720363 
L 287.629623 -155.237089 
L 295.548027 -156.954033 
L 303.46643 -156.605127 
L 311.384834 -157.387555 
L 319.303237 -159.409269 
L 327.221641 -159.533525 
L 335.140044 -160.567562 
L 343.058448 -161.421641 
L 350.976851 -162.590476 
L 358.895255 -160.885155 
L 366.813659 -163.378163 
L 374.732062 -165.478449 
L 382.650466 -166.389184 
L 390.568869 -166.757957 
L 398.487273 -164.202155 
L 398.487273 -167.937659 
L 398.487273 -167.937659 
L 390.568869 -169.620318 
L 382.650466 -169.639337 
L 374.732062 -167.238564 
L 366.813659 -167.188842 
L 358.895255 -164.171038 
L 350.976851 -166.77439 
L 343.058448 -164.055 
L 335.140044 -164.438859 
L 327.221641 -161.412597 
L 319.303237 -162.295253 
L 311.384834 -159.973301 
L 303.46643 -159.629194 
L 295.548027 -161.845916 
L 287.629623 -156.822391 
L 279.71122 -157.392635 
L 271.792816 -157.942017 
L 263.874412 -154.37841 
L 255.956009 -156.81588 
L 248.037605 -152.895757 
L 240.119202 -151.81346 
L 232.200798 -154.044648 
L 224.282395 -151.994707 
L 216.363991 -150.017875 
L 208.445588 -148.767673 
L 200.527184 -144.813303 
L 192.60878 -142.457588 
L 184.690377 -141.328619 
L 176.771973 -141.775017 
L 168.85357 -139.785844 
L 160.935166 -135.621666 
L 153.016763 -132.887061 
L 145.098359 -129.48036 
L 137.179956 -128.607156 
L 129.261552 -125.844475 
L 121.343149 -119.658478 
L 113.424745 -113.514494 
L 105.506341 -109.845993 
L 97.587938 -99.639985 
L 89.669534 -97.494358 
L 81.751131 -90.410516 
L 73.832727 -78.190361 
z
" style="stroke: #2ca02c; stroke-opacity: 0.2"/>
    </defs>
    <g clip-path="url(#pe143ce4ca9)">
     <use xlink:href="#mb714332ec6" x="0" y="345.6" style="fill: #2ca02c; fill-opacity: 0.2; stroke: #2ca02c; stroke-opacity: 0.2"/>
    </g>
   </g>
   <g id="PolyCollection_4">
    <defs>
     <path id="m317634c772" d="M 73.832727 -83.646374 
L 73.832727 -80.633395 
L 81.751131 -88.468989 
L 89.669534 -96.23516 
L 97.587938 -99.285127 
L 105.506341 -109.83144 
L 113.424745 -113.914626 
L 121.343149 -121.113763 
L 129.261552 -128.177437 
L 137.179956 -130.645972 
L 145.098359 -132.066229 
L 153.016763 -132.344054 
L 160.935166 -140.036708 
L 168.85357 -140.710148 
L 176.771973 -142.738664 
L 184.690377 -146.124784 
L 192.60878 -146.975418 
L 200.527184 -151.480852 
L 208.445588 -154.337872 
L 216.363991 -154.119783 
L 224.282395 -154.904215 
L 232.200798 -159.479711 
L 240.119202 -159.19078 
L 248.037605 -159.128502 
L 255.956009 -162.486413 
L 263.874412 -163.646718 
L 271.792816 -166.233274 
L 279.71122 -166.767764 
L 287.629623 -166.802008 
L 295.548027 -168.697995 
L 303.46643 -168.872125 
L 311.384834 -169.829912 
L 319.303237 -172.124417 
L 327.221641 -172.800342 
L 335.140044 -173.062266 
L 343.058448 -173.392458 
L 350.976851 -174.650072 
L 358.895255 -173.97281 
L 366.813659 -175.67525 
L 374.732062 -179.240464 
L 382.650466 -179.583542 
L 390.568869 -179.372951 
L 398.487273 -176.876541 
L 398.487273 -180.496565 
L 398.487273 -180.496565 
L 390.568869 -183.320418 
L 382.650466 -184.306438 
L 374.732062 -182.608799 
L 366.813659 -179.761908 
L 358.895255 -176.952672 
L 350.976851 -179.29868 
L 343.058448 -176.956809 
L 335.140044 -177.179043 
L 327.221641 -176.560439 
L 319.303237 -175.969088 
L 311.384834 -173.701277 
L 303.46643 -172.746989 
L 295.548027 -173.941516 
L 287.629623 -169.016061 
L 279.71122 -171.725938 
L 271.792816 -170.100741 
L 263.874412 -166.351188 
L 255.956009 -168.628775 
L 248.037605 -162.701445 
L 240.119202 -163.370908 
L 232.200798 -165.870919 
L 224.282395 -159.651082 
L 216.363991 -163.365456 
L 208.445588 -160.938576 
L 200.527184 -154.231414 
L 192.60878 -152.849571 
L 184.690377 -153.613855 
L 176.771973 -150.489761 
L 168.85357 -149.780601 
L 160.935166 -145.290644 
L 153.016763 -140.467026 
L 145.098359 -137.777096 
L 137.179956 -136.301028 
L 129.261552 -133.248085 
L 121.343149 -126.135993 
L 113.424745 -120.041852 
L 105.506341 -116.328287 
L 97.587938 -104.231806 
L 89.669534 -101.083919 
L 81.751131 -94.291836 
L 73.832727 -83.646374 
z
" style="stroke: #d62728; stroke-opacity: 0.2"/>
    </defs>
    <g clip-path="url(#pe143ce4ca9)">
     <use xlink:href="#m317634c772" x="0" y="345.6" style="fill: #d62728; fill-opacity: 0.2; stroke: #d62728; stroke-opacity: 0.2"/>
    </g>
   </g>
   <g id="PolyCollection_5">
    <defs>
     <path id="m8f8df4dd8e" d="M 73.832727 -106.063068 
L 73.832727 -105.013277 
L 81.751131 -109.255747 
L 89.669534 -114.067133 
L 97.587938 -116.959528 
L 105.506341 -124.226421 
L 113.424745 -129.293161 
L 121.343149 -137.583076 
L 129.261552 -144.66832 
L 137.179956 -149.392734 
L 145.098359 -151.915903 
L 153.016763 -153.573768 
L 160.935166 -161.251481 
L 168.85357 -164.845175 
L 176.771973 -165.667046 
L 184.690377 -169.886867 
L 192.60878 -171.495194 
L 200.527184 -175.800417 
L 208.445588 -179.240236 
L 216.363991 -179.725984 
L 224.282395 -181.140411 
L 232.200798 -185.995872 
L 240.119202 -185.526409 
L 248.037605 -185.745875 
L 255.956009 -189.436161 
L 263.874412 -190.4182 
L 271.792816 -194.310626 
L 279.71122 -193.929962 
L 287.629623 -195.097396 
L 295.548027 -197.16989 
L 303.46643 -197.804238 
L 311.384834 -197.860041 
L 319.303237 -200.894569 
L 327.221641 -201.239816 
L 335.140044 -202.665539 
L 343.058448 -202.537062 
L 350.976851 -204.42699 
L 358.895255 -202.765992 
L 366.813659 -205.459384 
L 374.732062 -208.741741 
L 382.650466 -210.155265 
L 390.568869 -209.510639 
L 398.487273 -207.03922 
L 398.487273 -210.991743 
L 398.487273 -210.991743 
L 390.568869 -215.828976 
L 382.650466 -216.087938 
L 374.732062 -211.050379 
L 366.813659 -211.822619 
L 358.895255 -206.292978 
L 350.976851 -210.868276 
L 343.058448 -207.981119 
L 335.140044 -209.007018 
L 327.221641 -204.589331 
L 319.303237 -204.35934 
L 311.384834 -201.428718 
L 303.46643 -202.450131 
L 295.548027 -201.513052 
L 287.629623 -199.203414 
L 279.71122 -198.360896 
L 271.792816 -200.220356 
L 263.874412 -195.197027 
L 255.956009 -195.172313 
L 248.037605 -192.594875 
L 240.119202 -191.588176 
L 232.200798 -192.719177 
L 224.282395 -187.910636 
L 216.363991 -189.165296 
L 208.445588 -187.051222 
L 200.527184 -179.714299 
L 192.60878 -176.639131 
L 184.690377 -177.512471 
L 176.771973 -172.148571 
L 168.85357 -173.752921 
L 160.935166 -167.482269 
L 153.016763 -161.297342 
L 145.098359 -157.439463 
L 137.179956 -154.4478 
L 129.261552 -148.607196 
L 121.343149 -141.871208 
L 113.424745 -133.111096 
L 105.506341 -128.348159 
L 97.587938 -119.370031 
L 89.669534 -116.505312 
L 81.751131 -111.931617 
L 73.832727 -106.063068 
z
" style="stroke: #9467bd; stroke-opacity: 0.2"/>
    </defs>
    <g clip-path="url(#pe143ce4ca9)">
     <use xlink:href="#m8f8df4dd8e" x="0" y="345.6" style="fill: #9467bd; fill-opacity: 0.2; stroke: #9467bd; stroke-opacity: 0.2"/>
    </g>
   </g>
   <g id="PolyCollection_6">
    <defs>
     <path id="ma8ba90cf98" d="M 73.832727 -72.528834 
L 73.832727 -68.426574 
L 81.751131 -74.756754 
L 89.669534 -88.578149 
L 97.587938 -93.191389 
L 105.506341 -106.778587 
L 113.424745 -116.802609 
L 121.343149 -131.86679 
L 129.261552 -145.507564 
L 137.179956 -157.539976 
L 145.098359 -171.345586 
L 153.016763 -186.143668 
L 160.935166 -203.486184 
L 168.85357 -219.999303 
L 176.771973 -236.68155 
L 184.690377 -253.665125 
L 192.60878 -270.024214 
L 200.527184 -286.892948 
L 208.445588 -303.907135 
L 208.445588 -304.933307 
L 208.445588 -304.933307 
L 200.527184 -287.25275 
L 192.60878 -270.443364 
L 184.690377 -255.041915 
L 176.771973 -238.1671 
L 168.85357 -222.938282 
L 160.935166 -205.378287 
L 153.016763 -189.479239 
L 145.098359 -174.685925 
L 137.179956 -161.074682 
L 129.261552 -150.0004 
L 121.343149 -135.927483 
L 113.424745 -122.710846 
L 105.506341 -113.674059 
L 97.587938 -99.302724 
L 89.669534 -95.224664 
L 81.751131 -80.425906 
L 73.832727 -72.528834 
z
" style="stroke: #8c564b; stroke-opacity: 0.2"/>
    </defs>
    <g clip-path="url(#pe143ce4ca9)">
     <use xlink:href="#ma8ba90cf98" x="0" y="345.6" style="fill: #8c564b; fill-opacity: 0.2; stroke: #8c564b; stroke-opacity: 0.2"/>
    </g>
   </g>
   <g id="matplotlib.axis_1">
    <g id="xtick_1">
     <g id="line2d_1">
      <defs>
       <path id="m9bb143a8c2" d="M 0 0 
L 0 3.5 
" style="stroke: #000000; stroke-width: 0.8"/>
      </defs>
      <g>
       <use xlink:href="#m9bb143a8c2" x="81.751131" y="307.584" style="stroke: #000000; stroke-width: 0.8"/>
      </g>
     </g>
     <g id="text_1">
      <!-- 10 -->
      <g transform="translate(75.388631 322.182437) scale(0.1 -0.1)">
       <defs>
        <path id="DejaVuSans-31" d="M 794 531 
L 1825 531 
L 1825 4091 
L 703 3866 
L 703 4441 
L 1819 4666 
L 2450 4666 
L 2450 531 
L 3481 531 
L 3481 0 
L 794 0 
L 794 531 
z
" transform="scale(0.015625)"/>
        <path id="DejaVuSans-30" d="M 2034 4250 
Q 1547 4250 1301 3770 
Q 1056 3291 1056 2328 
Q 1056 1369 1301 889 
Q 1547 409 2034 409 
Q 2525 409 2770 889 
Q 3016 1369 3016 2328 
Q 3016 3291 2770 3770 
Q 2525 4250 2034 4250 
z
M 2034 4750 
Q 2819 4750 3233 4129 
Q 3647 3509 3647 2328 
Q 3647 1150 3233 529 
Q 2819 -91 2034 -91 
Q 1250 -91 836 529 
Q 422 1150 422 2328 
Q 422 3509 836 4129 
Q 1250 4750 2034 4750 
z
" transform="scale(0.015625)"/>
       </defs>
       <use xlink:href="#DejaVuSans-31"/>
       <use xlink:href="#DejaVuSans-30" x="63.623047"/>
      </g>
     </g>
    </g>
    <g id="xtick_2">
     <g id="line2d_2">
      <g>
       <use xlink:href="#m9bb143a8c2" x="160.935166" y="307.584" style="stroke: #000000; stroke-width: 0.8"/>
      </g>
     </g>
     <g id="text_2">
      <!-- 20 -->
      <g transform="translate(154.572666 322.182437) scale(0.1 -0.1)">
       <defs>
        <path id="DejaVuSans-32" d="M 1228 531 
L 3431 531 
L 3431 0 
L 469 0 
L 469 531 
Q 828 903 1448 1529 
Q 2069 2156 2228 2338 
Q 2531 2678 2651 2914 
Q 2772 3150 2772 3378 
Q 2772 3750 2511 3984 
Q 2250 4219 1831 4219 
Q 1534 4219 1204 4116 
Q 875 4013 500 3803 
L 500 4441 
Q 881 4594 1212 4672 
Q 1544 4750 1819 4750 
Q 2544 4750 2975 4387 
Q 3406 4025 3406 3419 
Q 3406 3131 3298 2873 
Q 3191 2616 2906 2266 
Q 2828 2175 2409 1742 
Q 1991 1309 1228 531 
z
" transform="scale(0.015625)"/>
       </defs>
       <use xlink:href="#DejaVuSans-32"/>
       <use xlink:href="#DejaVuSans-30" x="63.623047"/>
      </g>
     </g>
    </g>
    <g id="xtick_3">
     <g id="line2d_3">
      <g>
       <use xlink:href="#m9bb143a8c2" x="240.119202" y="307.584" style="stroke: #000000; stroke-width: 0.8"/>
      </g>
     </g>
     <g id="text_3">
      <!-- 30 -->
      <g transform="translate(233.756702 322.182437) scale(0.1 -0.1)">
       <defs>
        <path id="DejaVuSans-33" d="M 2597 2516 
Q 3050 2419 3304 2112 
Q 3559 1806 3559 1356 
Q 3559 666 3084 287 
Q 2609 -91 1734 -91 
Q 1441 -91 1130 -33 
Q 819 25 488 141 
L 488 750 
Q 750 597 1062 519 
Q 1375 441 1716 441 
Q 2309 441 2620 675 
Q 2931 909 2931 1356 
Q 2931 1769 2642 2001 
Q 2353 2234 1838 2234 
L 1294 2234 
L 1294 2753 
L 1863 2753 
Q 2328 2753 2575 2939 
Q 2822 3125 2822 3475 
Q 2822 3834 2567 4026 
Q 2313 4219 1838 4219 
Q 1578 4219 1281 4162 
Q 984 4106 628 3988 
L 628 4550 
Q 988 4650 1302 4700 
Q 1616 4750 1894 4750 
Q 2613 4750 3031 4423 
Q 3450 4097 3450 3541 
Q 3450 3153 3228 2886 
Q 3006 2619 2597 2516 
z
" transform="scale(0.015625)"/>
       </defs>
       <use xlink:href="#DejaVuSans-33"/>
       <use xlink:href="#DejaVuSans-30" x="63.623047"/>
      </g>
     </g>
    </g>
    <g id="xtick_4">
     <g id="line2d_4">
      <g>
       <use xlink:href="#m9bb143a8c2" x="319.303237" y="307.584" style="stroke: #000000; stroke-width: 0.8"/>
      </g>
     </g>
     <g id="text_4">
      <!-- 40 -->
      <g transform="translate(312.940737 322.182437) scale(0.1 -0.1)">
       <defs>
        <path id="DejaVuSans-34" d="M 2419 4116 
L 825 1625 
L 2419 1625 
L 2419 4116 
z
M 2253 4666 
L 3047 4666 
L 3047 1625 
L 3713 1625 
L 3713 1100 
L 3047 1100 
L 3047 0 
L 2419 0 
L 2419 1100 
L 313 1100 
L 313 1709 
L 2253 4666 
z
" transform="scale(0.015625)"/>
       </defs>
       <use xlink:href="#DejaVuSans-34"/>
       <use xlink:href="#DejaVuSans-30" x="63.623047"/>
      </g>
     </g>
    </g>
    <g id="xtick_5">
     <g id="line2d_5">
      <g>
       <use xlink:href="#m9bb143a8c2" x="398.487273" y="307.584" style="stroke: #000000; stroke-width: 0.8"/>
      </g>
     </g>
     <g id="text_5">
      <!-- 50 -->
      <g transform="translate(392.124773 322.182437) scale(0.1 -0.1)">
       <defs>
        <path id="DejaVuSans-35" d="M 691 4666 
L 3169 4666 
L 3169 4134 
L 1269 4134 
L 1269 2991 
Q 1406 3038 1543 3061 
Q 1681 3084 1819 3084 
Q 2600 3084 3056 2656 
Q 3513 2228 3513 1497 
Q 3513 744 3044 326 
Q 2575 -91 1722 -91 
Q 1428 -91 1123 -41 
Q 819 9 494 109 
L 494 744 
Q 775 591 1075 516 
Q 1375 441 1709 441 
Q 2250 441 2565 725 
Q 2881 1009 2881 1497 
Q 2881 1984 2565 2268 
Q 2250 2553 1709 2553 
Q 1456 2553 1204 2497 
Q 953 2441 691 2322 
L 691 4666 
z
" transform="scale(0.015625)"/>
       </defs>
       <use xlink:href="#DejaVuSans-35"/>
       <use xlink:href="#DejaVuSans-30" x="63.623047"/>
      </g>
     </g>
    </g>
    <g id="text_6">
     <!-- Graph size || Number heavy atoms -->
     <g transform="translate(148.942031 335.904313) scale(0.1 -0.1)">
      <defs>
       <path id="DejaVuSans-47" d="M 3809 666 
L 3809 1919 
L 2778 1919 
L 2778 2438 
L 4434 2438 
L 4434 434 
Q 4069 175 3628 42 
Q 3188 -91 2688 -91 
Q 1594 -91 976 548 
Q 359 1188 359 2328 
Q 359 3472 976 4111 
Q 1594 4750 2688 4750 
Q 3144 4750 3555 4637 
Q 3966 4525 4313 4306 
L 4313 3634 
Q 3963 3931 3569 4081 
Q 3175 4231 2741 4231 
Q 1884 4231 1454 3753 
Q 1025 3275 1025 2328 
Q 1025 1384 1454 906 
Q 1884 428 2741 428 
Q 3075 428 3337 486 
Q 3600 544 3809 666 
z
" transform="scale(0.015625)"/>
       <path id="DejaVuSans-72" d="M 2631 2963 
Q 2534 3019 2420 3045 
Q 2306 3072 2169 3072 
Q 1681 3072 1420 2755 
Q 1159 2438 1159 1844 
L 1159 0 
L 581 0 
L 581 3500 
L 1159 3500 
L 1159 2956 
Q 1341 3275 1631 3429 
Q 1922 3584 2338 3584 
Q 2397 3584 2469 3576 
Q 2541 3569 2628 3553 
L 2631 2963 
z
" transform="scale(0.015625)"/>
       <path id="DejaVuSans-61" d="M 2194 1759 
Q 1497 1759 1228 1600 
Q 959 1441 959 1056 
Q 959 750 1161 570 
Q 1363 391 1709 391 
Q 2188 391 2477 730 
Q 2766 1069 2766 1631 
L 2766 1759 
L 2194 1759 
z
M 3341 1997 
L 3341 0 
L 2766 0 
L 2766 531 
Q 2569 213 2275 61 
Q 1981 -91 1556 -91 
Q 1019 -91 701 211 
Q 384 513 384 1019 
Q 384 1609 779 1909 
Q 1175 2209 1959 2209 
L 2766 2209 
L 2766 2266 
Q 2766 2663 2505 2880 
Q 2244 3097 1772 3097 
Q 1472 3097 1187 3025 
Q 903 2953 641 2809 
L 641 3341 
Q 956 3463 1253 3523 
Q 1550 3584 1831 3584 
Q 2591 3584 2966 3190 
Q 3341 2797 3341 1997 
z
" transform="scale(0.015625)"/>
       <path id="DejaVuSans-70" d="M 1159 525 
L 1159 -1331 
L 581 -1331 
L 581 3500 
L 1159 3500 
L 1159 2969 
Q 1341 3281 1617 3432 
Q 1894 3584 2278 3584 
Q 2916 3584 3314 3078 
Q 3713 2572 3713 1747 
Q 3713 922 3314 415 
Q 2916 -91 2278 -91 
Q 1894 -91 1617 61 
Q 1341 213 1159 525 
z
M 3116 1747 
Q 3116 2381 2855 2742 
Q 2594 3103 2138 3103 
Q 1681 3103 1420 2742 
Q 1159 2381 1159 1747 
Q 1159 1113 1420 752 
Q 1681 391 2138 391 
Q 2594 391 2855 752 
Q 3116 1113 3116 1747 
z
" transform="scale(0.015625)"/>
       <path id="DejaVuSans-68" d="M 3513 2113 
L 3513 0 
L 2938 0 
L 2938 2094 
Q 2938 2591 2744 2837 
Q 2550 3084 2163 3084 
Q 1697 3084 1428 2787 
Q 1159 2491 1159 1978 
L 1159 0 
L 581 0 
L 581 4863 
L 1159 4863 
L 1159 2956 
Q 1366 3272 1645 3428 
Q 1925 3584 2291 3584 
Q 2894 3584 3203 3211 
Q 3513 2838 3513 2113 
z
" transform="scale(0.015625)"/>
       <path id="DejaVuSans-20" transform="scale(0.015625)"/>
       <path id="DejaVuSans-73" d="M 2834 3397 
L 2834 2853 
Q 2591 2978 2328 3040 
Q 2066 3103 1784 3103 
Q 1356 3103 1142 2972 
Q 928 2841 928 2578 
Q 928 2378 1081 2264 
Q 1234 2150 1697 2047 
L 1894 2003 
Q 2506 1872 2764 1633 
Q 3022 1394 3022 966 
Q 3022 478 2636 193 
Q 2250 -91 1575 -91 
Q 1294 -91 989 -36 
Q 684 19 347 128 
L 347 722 
Q 666 556 975 473 
Q 1284 391 1588 391 
Q 1994 391 2212 530 
Q 2431 669 2431 922 
Q 2431 1156 2273 1281 
Q 2116 1406 1581 1522 
L 1381 1569 
Q 847 1681 609 1914 
Q 372 2147 372 2553 
Q 372 3047 722 3315 
Q 1072 3584 1716 3584 
Q 2034 3584 2315 3537 
Q 2597 3491 2834 3397 
z
" transform="scale(0.015625)"/>
       <path id="DejaVuSans-69" d="M 603 3500 
L 1178 3500 
L 1178 0 
L 603 0 
L 603 3500 
z
M 603 4863 
L 1178 4863 
L 1178 4134 
L 603 4134 
L 603 4863 
z
" transform="scale(0.015625)"/>
       <path id="DejaVuSans-7a" d="M 353 3500 
L 3084 3500 
L 3084 2975 
L 922 459 
L 3084 459 
L 3084 0 
L 275 0 
L 275 525 
L 2438 3041 
L 353 3041 
L 353 3500 
z
" transform="scale(0.015625)"/>
       <path id="DejaVuSans-65" d="M 3597 1894 
L 3597 1613 
L 953 1613 
Q 991 1019 1311 708 
Q 1631 397 2203 397 
Q 2534 397 2845 478 
Q 3156 559 3463 722 
L 3463 178 
Q 3153 47 2828 -22 
Q 2503 -91 2169 -91 
Q 1331 -91 842 396 
Q 353 884 353 1716 
Q 353 2575 817 3079 
Q 1281 3584 2069 3584 
Q 2775 3584 3186 3129 
Q 3597 2675 3597 1894 
z
M 3022 2063 
Q 3016 2534 2758 2815 
Q 2500 3097 2075 3097 
Q 1594 3097 1305 2825 
Q 1016 2553 972 2059 
L 3022 2063 
z
" transform="scale(0.015625)"/>
       <path id="DejaVuSans-7c" d="M 1344 4891 
L 1344 -1509 
L 813 -1509 
L 813 4891 
L 1344 4891 
z
" transform="scale(0.015625)"/>
       <path id="DejaVuSans-4e" d="M 628 4666 
L 1478 4666 
L 3547 763 
L 3547 4666 
L 4159 4666 
L 4159 0 
L 3309 0 
L 1241 3903 
L 1241 0 
L 628 0 
L 628 4666 
z
" transform="scale(0.015625)"/>
       <path id="DejaVuSans-75" d="M 544 1381 
L 544 3500 
L 1119 3500 
L 1119 1403 
Q 1119 906 1312 657 
Q 1506 409 1894 409 
Q 2359 409 2629 706 
Q 2900 1003 2900 1516 
L 2900 3500 
L 3475 3500 
L 3475 0 
L 2900 0 
L 2900 538 
Q 2691 219 2414 64 
Q 2138 -91 1772 -91 
Q 1169 -91 856 284 
Q 544 659 544 1381 
z
M 1991 3584 
L 1991 3584 
z
" transform="scale(0.015625)"/>
       <path id="DejaVuSans-6d" d="M 3328 2828 
Q 3544 3216 3844 3400 
Q 4144 3584 4550 3584 
Q 5097 3584 5394 3201 
Q 5691 2819 5691 2113 
L 5691 0 
L 5113 0 
L 5113 2094 
Q 5113 2597 4934 2840 
Q 4756 3084 4391 3084 
Q 3944 3084 3684 2787 
Q 3425 2491 3425 1978 
L 3425 0 
L 2847 0 
L 2847 2094 
Q 2847 2600 2669 2842 
Q 2491 3084 2119 3084 
Q 1678 3084 1418 2786 
Q 1159 2488 1159 1978 
L 1159 0 
L 581 0 
L 581 3500 
L 1159 3500 
L 1159 2956 
Q 1356 3278 1631 3431 
Q 1906 3584 2284 3584 
Q 2666 3584 2933 3390 
Q 3200 3197 3328 2828 
z
" transform="scale(0.015625)"/>
       <path id="DejaVuSans-62" d="M 3116 1747 
Q 3116 2381 2855 2742 
Q 2594 3103 2138 3103 
Q 1681 3103 1420 2742 
Q 1159 2381 1159 1747 
Q 1159 1113 1420 752 
Q 1681 391 2138 391 
Q 2594 391 2855 752 
Q 3116 1113 3116 1747 
z
M 1159 2969 
Q 1341 3281 1617 3432 
Q 1894 3584 2278 3584 
Q 2916 3584 3314 3078 
Q 3713 2572 3713 1747 
Q 3713 922 3314 415 
Q 2916 -91 2278 -91 
Q 1894 -91 1617 61 
Q 1341 213 1159 525 
L 1159 0 
L 581 0 
L 581 4863 
L 1159 4863 
L 1159 2969 
z
" transform="scale(0.015625)"/>
       <path id="DejaVuSans-76" d="M 191 3500 
L 800 3500 
L 1894 563 
L 2988 3500 
L 3597 3500 
L 2284 0 
L 1503 0 
L 191 3500 
z
" transform="scale(0.015625)"/>
       <path id="DejaVuSans-79" d="M 2059 -325 
Q 1816 -950 1584 -1140 
Q 1353 -1331 966 -1331 
L 506 -1331 
L 506 -850 
L 844 -850 
Q 1081 -850 1212 -737 
Q 1344 -625 1503 -206 
L 1606 56 
L 191 3500 
L 800 3500 
L 1894 763 
L 2988 3500 
L 3597 3500 
L 2059 -325 
z
" transform="scale(0.015625)"/>
       <path id="DejaVuSans-74" d="M 1172 4494 
L 1172 3500 
L 2356 3500 
L 2356 3053 
L 1172 3053 
L 1172 1153 
Q 1172 725 1289 603 
Q 1406 481 1766 481 
L 2356 481 
L 2356 0 
L 1766 0 
Q 1100 0 847 248 
Q 594 497 594 1153 
L 594 3053 
L 172 3053 
L 172 3500 
L 594 3500 
L 594 4494 
L 1172 4494 
z
" transform="scale(0.015625)"/>
       <path id="DejaVuSans-6f" d="M 1959 3097 
Q 1497 3097 1228 2736 
Q 959 2375 959 1747 
Q 959 1119 1226 758 
Q 1494 397 1959 397 
Q 2419 397 2687 759 
Q 2956 1122 2956 1747 
Q 2956 2369 2687 2733 
Q 2419 3097 1959 3097 
z
M 1959 3584 
Q 2709 3584 3137 3096 
Q 3566 2609 3566 1747 
Q 3566 888 3137 398 
Q 2709 -91 1959 -91 
Q 1206 -91 779 398 
Q 353 888 353 1747 
Q 353 2609 779 3096 
Q 1206 3584 1959 3584 
z
" transform="scale(0.015625)"/>
      </defs>
      <use xlink:href="#DejaVuSans-47"/>
      <use xlink:href="#DejaVuSans-72" x="77.490234"/>
      <use xlink:href="#DejaVuSans-61" x="118.603516"/>
      <use xlink:href="#DejaVuSans-70" x="179.882812"/>
      <use xlink:href="#DejaVuSans-68" x="243.359375"/>
      <use xlink:href="#DejaVuSans-20" x="306.738281"/>
      <use xlink:href="#DejaVuSans-73" x="338.525391"/>
      <use xlink:href="#DejaVuSans-69" x="390.625"/>
      <use xlink:href="#DejaVuSans-7a" x="418.408203"/>
      <use xlink:href="#DejaVuSans-65" x="470.898438"/>
      <use xlink:href="#DejaVuSans-20" x="532.421875"/>
      <use xlink:href="#DejaVuSans-7c" x="564.208984"/>
      <use xlink:href="#DejaVuSans-7c" x="597.900391"/>
      <use xlink:href="#DejaVuSans-20" x="631.591797"/>
      <use xlink:href="#DejaVuSans-4e" x="663.378906"/>
      <use xlink:href="#DejaVuSans-75" x="738.183594"/>
      <use xlink:href="#DejaVuSans-6d" x="801.5625"/>
      <use xlink:href="#DejaVuSans-62" x="898.974609"/>
      <use xlink:href="#DejaVuSans-65" x="962.451172"/>
      <use xlink:href="#DejaVuSans-72" x="1023.974609"/>
      <use xlink:href="#DejaVuSans-20" x="1065.087891"/>
      <use xlink:href="#DejaVuSans-68" x="1096.875"/>
      <use xlink:href="#DejaVuSans-65" x="1160.253906"/>
      <use xlink:href="#DejaVuSans-61" x="1221.777344"/>
      <use xlink:href="#DejaVuSans-76" x="1283.056641"/>
      <use xlink:href="#DejaVuSans-79" x="1342.236328"/>
      <use xlink:href="#DejaVuSans-20" x="1401.416016"/>
      <use xlink:href="#DejaVuSans-61" x="1433.203125"/>
      <use xlink:href="#DejaVuSans-74" x="1494.482422"/>
      <use xlink:href="#DejaVuSans-6f" x="1533.691406"/>
      <use xlink:href="#DejaVuSans-6d" x="1594.873047"/>
      <use xlink:href="#DejaVuSans-73" x="1692.285156"/>
     </g>
    </g>
   </g>
   <g id="matplotlib.axis_2">
    <g id="ytick_1">
     <g id="line2d_6">
      <defs>
       <path id="mc3ba44d16c" d="M 0 0 
L -3.5 0 
" style="stroke: #000000; stroke-width: 0.8"/>
      </defs>
      <g>
       <use xlink:href="#mc3ba44d16c" x="57.6" y="292.836444" style="stroke: #000000; stroke-width: 0.8"/>
      </g>
     </g>
     <g id="text_7">
      <!-- $\mathdefault{10^{-1}}$ -->
      <g transform="translate(27.1 296.635663) scale(0.1 -0.1)">
       <defs>
        <path id="DejaVuSans-2212" d="M 678 2272 
L 4684 2272 
L 4684 1741 
L 678 1741 
L 678 2272 
z
" transform="scale(0.015625)"/>
       </defs>
       <use xlink:href="#DejaVuSans-31" transform="translate(0 0.684375)"/>
       <use xlink:href="#DejaVuSans-30" transform="translate(63.623047 0.684375)"/>
       <use xlink:href="#DejaVuSans-2212" transform="translate(128.203125 38.965625) scale(0.7)"/>
       <use xlink:href="#DejaVuSans-31" transform="translate(186.855469 38.965625) scale(0.7)"/>
      </g>
     </g>
    </g>
    <g id="ytick_2">
     <g id="line2d_7">
      <g>
       <use xlink:href="#mc3ba44d16c" x="57.6" y="239.342924" style="stroke: #000000; stroke-width: 0.8"/>
      </g>
     </g>
     <g id="text_8">
      <!-- $\mathdefault{10^{0}}$ -->
      <g transform="translate(33 243.142143) scale(0.1 -0.1)">
       <use xlink:href="#DejaVuSans-31" transform="translate(0 0.765625)"/>
       <use xlink:href="#DejaVuSans-30" transform="translate(63.623047 0.765625)"/>
       <use xlink:href="#DejaVuSans-30" transform="translate(128.203125 39.046875) scale(0.7)"/>
      </g>
     </g>
    </g>
    <g id="ytick_3">
     <g id="line2d_8">
      <g>
       <use xlink:href="#mc3ba44d16c" x="57.6" y="185.849405" style="stroke: #000000; stroke-width: 0.8"/>
      </g>
     </g>
     <g id="text_9">
      <!-- $\mathdefault{10^{1}}$ -->
      <g transform="translate(33 189.648623) scale(0.1 -0.1)">
       <use xlink:href="#DejaVuSans-31" transform="translate(0 0.684375)"/>
       <use xlink:href="#DejaVuSans-30" transform="translate(63.623047 0.684375)"/>
       <use xlink:href="#DejaVuSans-31" transform="translate(128.203125 38.965625) scale(0.7)"/>
      </g>
     </g>
    </g>
    <g id="ytick_4">
     <g id="line2d_9">
      <g>
       <use xlink:href="#mc3ba44d16c" x="57.6" y="132.355885" style="stroke: #000000; stroke-width: 0.8"/>
      </g>
     </g>
     <g id="text_10">
      <!-- $\mathdefault{10^{2}}$ -->
      <g transform="translate(33 136.155104) scale(0.1 -0.1)">
       <use xlink:href="#DejaVuSans-31" transform="translate(0 0.765625)"/>
       <use xlink:href="#DejaVuSans-30" transform="translate(63.623047 0.765625)"/>
       <use xlink:href="#DejaVuSans-32" transform="translate(128.203125 39.046875) scale(0.7)"/>
      </g>
     </g>
    </g>
    <g id="ytick_5">
     <g id="line2d_10">
      <g>
       <use xlink:href="#mc3ba44d16c" x="57.6" y="78.862366" style="stroke: #000000; stroke-width: 0.8"/>
      </g>
     </g>
     <g id="text_11">
      <!-- $\mathdefault{10^{3}}$ -->
      <g transform="translate(33 82.661584) scale(0.1 -0.1)">
       <use xlink:href="#DejaVuSans-31" transform="translate(0 0.765625)"/>
       <use xlink:href="#DejaVuSans-30" transform="translate(63.623047 0.765625)"/>
       <use xlink:href="#DejaVuSans-33" transform="translate(128.203125 39.046875) scale(0.7)"/>
      </g>
     </g>
    </g>
    <g id="ytick_6">
     <g id="line2d_11">
      <defs>
       <path id="m228d7fb423" d="M 0 0 
L -2 0 
" style="stroke: #000000; stroke-width: 0.6"/>
      </defs>
      <g>
       <use xlink:href="#m228d7fb423" x="57.6" y="304.703914" style="stroke: #000000; stroke-width: 0.6"/>
      </g>
     </g>
    </g>
    <g id="ytick_7">
     <g id="line2d_12">
      <g>
       <use xlink:href="#m228d7fb423" x="57.6" y="301.122695" style="stroke: #000000; stroke-width: 0.6"/>
      </g>
     </g>
    </g>
    <g id="ytick_8">
     <g id="line2d_13">
      <g>
       <use xlink:href="#m228d7fb423" x="57.6" y="298.020501" style="stroke: #000000; stroke-width: 0.6"/>
      </g>
     </g>
    </g>
    <g id="ytick_9">
     <g id="line2d_14">
      <g>
       <use xlink:href="#m228d7fb423" x="57.6" y="295.284173" style="stroke: #000000; stroke-width: 0.6"/>
      </g>
     </g>
    </g>
    <g id="ytick_10">
     <g id="line2d_15">
      <g>
       <use xlink:href="#m228d7fb423" x="57.6" y="276.73329" style="stroke: #000000; stroke-width: 0.6"/>
      </g>
     </g>
    </g>
    <g id="ytick_11">
     <g id="line2d_16">
      <g>
       <use xlink:href="#m228d7fb423" x="57.6" y="267.313549" style="stroke: #000000; stroke-width: 0.6"/>
      </g>
     </g>
    </g>
    <g id="ytick_12">
     <g id="line2d_17">
      <g>
       <use xlink:href="#m228d7fb423" x="57.6" y="260.630136" style="stroke: #000000; stroke-width: 0.6"/>
      </g>
     </g>
    </g>
    <g id="ytick_13">
     <g id="line2d_18">
      <g>
       <use xlink:href="#m228d7fb423" x="57.6" y="255.446078" style="stroke: #000000; stroke-width: 0.6"/>
      </g>
     </g>
    </g>
    <g id="ytick_14">
     <g id="line2d_19">
      <g>
       <use xlink:href="#m228d7fb423" x="57.6" y="251.210395" style="stroke: #000000; stroke-width: 0.6"/>
      </g>
     </g>
    </g>
    <g id="ytick_15">
     <g id="line2d_20">
      <g>
       <use xlink:href="#m228d7fb423" x="57.6" y="247.629175" style="stroke: #000000; stroke-width: 0.6"/>
      </g>
     </g>
    </g>
    <g id="ytick_16">
     <g id="line2d_21">
      <g>
       <use xlink:href="#m228d7fb423" x="57.6" y="244.526982" style="stroke: #000000; stroke-width: 0.6"/>
      </g>
     </g>
    </g>
    <g id="ytick_17">
     <g id="line2d_22">
      <g>
       <use xlink:href="#m228d7fb423" x="57.6" y="241.790653" style="stroke: #000000; stroke-width: 0.6"/>
      </g>
     </g>
    </g>
    <g id="ytick_18">
     <g id="line2d_23">
      <g>
       <use xlink:href="#m228d7fb423" x="57.6" y="223.23977" style="stroke: #000000; stroke-width: 0.6"/>
      </g>
     </g>
    </g>
    <g id="ytick_19">
     <g id="line2d_24">
      <g>
       <use xlink:href="#m228d7fb423" x="57.6" y="213.820029" style="stroke: #000000; stroke-width: 0.6"/>
      </g>
     </g>
    </g>
    <g id="ytick_20">
     <g id="line2d_25">
      <g>
       <use xlink:href="#m228d7fb423" x="57.6" y="207.136616" style="stroke: #000000; stroke-width: 0.6"/>
      </g>
     </g>
    </g>
    <g id="ytick_21">
     <g id="line2d_26">
      <g>
       <use xlink:href="#m228d7fb423" x="57.6" y="201.952559" style="stroke: #000000; stroke-width: 0.6"/>
      </g>
     </g>
    </g>
    <g id="ytick_22">
     <g id="line2d_27">
      <g>
       <use xlink:href="#m228d7fb423" x="57.6" y="197.716875" style="stroke: #000000; stroke-width: 0.6"/>
      </g>
     </g>
    </g>
    <g id="ytick_23">
     <g id="line2d_28">
      <g>
       <use xlink:href="#m228d7fb423" x="57.6" y="194.135656" style="stroke: #000000; stroke-width: 0.6"/>
      </g>
     </g>
    </g>
    <g id="ytick_24">
     <g id="line2d_29">
      <g>
       <use xlink:href="#m228d7fb423" x="57.6" y="191.033462" style="stroke: #000000; stroke-width: 0.6"/>
      </g>
     </g>
    </g>
    <g id="ytick_25">
     <g id="line2d_30">
      <g>
       <use xlink:href="#m228d7fb423" x="57.6" y="188.297134" style="stroke: #000000; stroke-width: 0.6"/>
      </g>
     </g>
    </g>
    <g id="ytick_26">
     <g id="line2d_31">
      <g>
       <use xlink:href="#m228d7fb423" x="57.6" y="169.746251" style="stroke: #000000; stroke-width: 0.6"/>
      </g>
     </g>
    </g>
    <g id="ytick_27">
     <g id="line2d_32">
      <g>
       <use xlink:href="#m228d7fb423" x="57.6" y="160.32651" style="stroke: #000000; stroke-width: 0.6"/>
      </g>
     </g>
    </g>
    <g id="ytick_28">
     <g id="line2d_33">
      <g>
       <use xlink:href="#m228d7fb423" x="57.6" y="153.643097" style="stroke: #000000; stroke-width: 0.6"/>
      </g>
     </g>
    </g>
    <g id="ytick_29">
     <g id="line2d_34">
      <g>
       <use xlink:href="#m228d7fb423" x="57.6" y="148.459039" style="stroke: #000000; stroke-width: 0.6"/>
      </g>
     </g>
    </g>
    <g id="ytick_30">
     <g id="line2d_35">
      <g>
       <use xlink:href="#m228d7fb423" x="57.6" y="144.223356" style="stroke: #000000; stroke-width: 0.6"/>
      </g>
     </g>
    </g>
    <g id="ytick_31">
     <g id="line2d_36">
      <g>
       <use xlink:href="#m228d7fb423" x="57.6" y="140.642136" style="stroke: #000000; stroke-width: 0.6"/>
      </g>
     </g>
    </g>
    <g id="ytick_32">
     <g id="line2d_37">
      <g>
       <use xlink:href="#m228d7fb423" x="57.6" y="137.539943" style="stroke: #000000; stroke-width: 0.6"/>
      </g>
     </g>
    </g>
    <g id="ytick_33">
     <g id="line2d_38">
      <g>
       <use xlink:href="#m228d7fb423" x="57.6" y="134.803614" style="stroke: #000000; stroke-width: 0.6"/>
      </g>
     </g>
    </g>
    <g id="ytick_34">
     <g id="line2d_39">
      <g>
       <use xlink:href="#m228d7fb423" x="57.6" y="116.252731" style="stroke: #000000; stroke-width: 0.6"/>
      </g>
     </g>
    </g>
    <g id="ytick_35">
     <g id="line2d_40">
      <g>
       <use xlink:href="#m228d7fb423" x="57.6" y="106.83299" style="stroke: #000000; stroke-width: 0.6"/>
      </g>
     </g>
    </g>
    <g id="ytick_36">
     <g id="line2d_41">
      <g>
       <use xlink:href="#m228d7fb423" x="57.6" y="100.149577" style="stroke: #000000; stroke-width: 0.6"/>
      </g>
     </g>
    </g>
    <g id="ytick_37">
     <g id="line2d_42">
      <g>
       <use xlink:href="#m228d7fb423" x="57.6" y="94.96552" style="stroke: #000000; stroke-width: 0.6"/>
      </g>
     </g>
    </g>
    <g id="ytick_38">
     <g id="line2d_43">
      <g>
       <use xlink:href="#m228d7fb423" x="57.6" y="90.729836" style="stroke: #000000; stroke-width: 0.6"/>
      </g>
     </g>
    </g>
    <g id="ytick_39">
     <g id="line2d_44">
      <g>
       <use xlink:href="#m228d7fb423" x="57.6" y="87.148617" style="stroke: #000000; stroke-width: 0.6"/>
      </g>
     </g>
    </g>
    <g id="ytick_40">
     <g id="line2d_45">
      <g>
       <use xlink:href="#m228d7fb423" x="57.6" y="84.046423" style="stroke: #000000; stroke-width: 0.6"/>
      </g>
     </g>
    </g>
    <g id="ytick_41">
     <g id="line2d_46">
      <g>
       <use xlink:href="#m228d7fb423" x="57.6" y="81.310095" style="stroke: #000000; stroke-width: 0.6"/>
      </g>
     </g>
    </g>
    <g id="ytick_42">
     <g id="line2d_47">
      <g>
       <use xlink:href="#m228d7fb423" x="57.6" y="62.759212" style="stroke: #000000; stroke-width: 0.6"/>
      </g>
     </g>
    </g>
    <g id="ytick_43">
     <g id="line2d_48">
      <g>
       <use xlink:href="#m228d7fb423" x="57.6" y="53.33947" style="stroke: #000000; stroke-width: 0.6"/>
      </g>
     </g>
    </g>
    <g id="ytick_44">
     <g id="line2d_49">
      <g>
       <use xlink:href="#m228d7fb423" x="57.6" y="46.656058" style="stroke: #000000; stroke-width: 0.6"/>
      </g>
     </g>
    </g>
    <g id="ytick_45">
     <g id="line2d_50">
      <g>
       <use xlink:href="#m228d7fb423" x="57.6" y="41.472" style="stroke: #000000; stroke-width: 0.6"/>
      </g>
     </g>
    </g>
    <g id="text_12">
     <!-- Time / s -->
     <g transform="translate(21.020312 194.228781) rotate(-90) scale(0.1 -0.1)">
      <defs>
       <path id="DejaVuSans-54" d="M -19 4666 
L 3928 4666 
L 3928 4134 
L 2272 4134 
L 2272 0 
L 1638 0 
L 1638 4134 
L -19 4134 
L -19 4666 
z
" transform="scale(0.015625)"/>
       <path id="DejaVuSans-2f" d="M 1625 4666 
L 2156 4666 
L 531 -594 
L 0 -594 
L 1625 4666 
z
" transform="scale(0.015625)"/>
      </defs>
      <use xlink:href="#DejaVuSans-54"/>
      <use xlink:href="#DejaVuSans-69" x="57.958984"/>
      <use xlink:href="#DejaVuSans-6d" x="85.742188"/>
      <use xlink:href="#DejaVuSans-65" x="183.154297"/>
      <use xlink:href="#DejaVuSans-20" x="244.677734"/>
      <use xlink:href="#DejaVuSans-2f" x="276.464844"/>
      <use xlink:href="#DejaVuSans-20" x="310.15625"/>
      <use xlink:href="#DejaVuSans-73" x="341.943359"/>
     </g>
    </g>
   </g>
   <g id="line2d_51">
    <path d="M 73.832727 291.666506 
L 81.751131 286.784667 
L 89.669534 287.71858 
L 97.587938 284.991261 
L 105.506341 280.680893 
L 113.424745 276.997467 
L 121.343149 273.854918 
L 129.261552 275.368166 
L 137.179956 271.450067 
L 145.098359 271.170751 
L 153.016763 267.545739 
L 160.935166 267.657599 
L 168.85357 265.310413 
L 176.771973 262.778441 
L 184.690377 263.796376 
L 192.60878 262.131281 
L 200.527184 259.245603 
L 208.445588 259.491931 
L 216.363991 259.76695 
L 224.282395 255.97851 
L 232.200798 254.631724 
L 240.119202 256.453341 
L 248.037605 253.6943 
L 255.956009 252.782254 
L 263.874412 250.275992 
L 271.792816 252.962123 
L 279.71122 251.497419 
L 287.629623 249.898185 
L 295.548027 249.240582 
L 303.46643 249.759224 
L 311.384834 248.133076 
L 319.303237 247.489394 
L 327.221641 246.09334 
L 335.140044 245.938432 
L 343.058448 245.500364 
L 350.976851 244.125108 
L 358.895255 243.501401 
L 366.813659 243.264817 
L 374.732062 241.806867 
L 382.650466 241.279106 
L 390.568869 241.209396 
L 398.487273 240.142409 
" clip-path="url(#pe143ce4ca9)" style="fill: none; stroke: #1f77b4; stroke-width: 1.5; stroke-linecap: square"/>
   </g>
   <g id="line2d_52">
    <path d="M 73.832727 276.509472 
L 81.751131 266.792319 
L 89.669534 261.166699 
L 97.587938 260.2732 
L 105.506341 253.105038 
L 113.424745 251.358845 
L 121.343149 245.494886 
L 129.261552 242.26586 
L 137.179956 240.093229 
L 145.098359 240.790931 
L 153.016763 238.479964 
L 160.935166 236.644357 
L 168.85357 233.422063 
L 176.771973 231.063194 
L 184.690377 231.748436 
L 192.60878 229.429992 
L 200.527184 227.828611 
L 208.445588 225.362043 
L 216.363991 225.683751 
L 224.282395 224.127965 
L 232.200798 221.964116 
L 240.119202 224.306139 
L 248.037605 221.731525 
L 255.956009 217.822778 
L 263.874412 218.320673 
L 271.792816 217.760267 
L 279.71122 218.496165 
L 287.629623 216.546887 
L 295.548027 214.908589 
L 303.46643 216.109207 
L 311.384834 214.694241 
L 319.303237 214.048209 
L 327.221641 214.046402 
L 335.140044 212.506548 
L 343.058448 211.394819 
L 350.976851 210.118936 
L 358.895255 209.351281 
L 366.813659 209.8269 
L 374.732062 208.382074 
L 382.650466 207.194366 
L 390.568869 207.943239 
L 398.487273 209.004721 
" clip-path="url(#pe143ce4ca9)" style="fill: none; stroke: #ff7f0e; stroke-width: 1.5; stroke-linecap: square"/>
   </g>
   <g id="line2d_53">
    <path d="M 73.832727 269.027184 
L 81.751131 258.467448 
L 89.669534 250.786984 
L 97.587938 248.42297 
L 105.506341 238.22442 
L 113.424745 235.071561 
L 121.343149 227.708152 
L 129.261552 222.016131 
L 137.179956 219.765231 
L 145.098359 218.551105 
L 153.016763 217.788791 
L 160.935166 211.927484 
L 168.85357 209.80143 
L 176.771973 208.368542 
L 184.690377 207.033044 
L 192.60878 205.843782 
L 200.527184 202.908269 
L 208.445588 199.342432 
L 216.363991 198.849327 
L 224.282395 197.876476 
L 232.200798 194.732001 
L 240.119202 195.765667 
L 248.037605 195.048028 
L 255.956009 191.30186 
L 263.874412 192.258143 
L 271.792816 189.70043 
L 279.71122 189.951977 
L 287.629623 189.580449 
L 295.548027 186.571883 
L 303.46643 187.389839 
L 311.384834 186.77711 
L 319.303237 184.668767 
L 327.221641 185.12545 
L 335.140044 183.288906 
L 343.058448 182.811108 
L 350.976851 181.282039 
L 358.895255 182.941686 
L 366.813659 180.39495 
L 374.732062 179.231184 
L 382.650466 177.591057 
L 390.568869 177.557666 
L 398.487273 179.411345 
" clip-path="url(#pe143ce4ca9)" style="fill: none; stroke: #2ca02c; stroke-width: 1.5; stroke-linecap: square"/>
   </g>
   <g id="line2d_54">
    <path d="M 73.832727 263.352079 
L 81.751131 254.258775 
L 89.669534 246.922223 
L 97.587938 243.662156 
L 105.506341 232.244738 
L 113.424745 228.553396 
L 121.343149 221.960709 
L 129.261552 214.652501 
L 137.179956 212.029013 
L 145.098359 210.766845 
L 153.016763 209.102622 
L 160.935166 202.608796 
L 168.85357 200.098071 
L 176.771973 199.000817 
L 184.690377 195.45118 
L 192.60878 195.897997 
L 200.527184 192.49804 
L 208.445588 187.79627 
L 216.363991 186.873063 
L 224.282395 188.18263 
L 232.200798 183.085594 
L 240.119202 184.107586 
L 248.037605 184.637548 
L 255.956009 180.142336 
L 263.874412 180.612854 
L 271.792816 177.673714 
L 279.71122 176.371442 
L 287.629623 177.555558 
L 295.548027 174.466219 
L 303.46643 174.744155 
L 311.384834 173.816109 
L 319.303237 171.560696 
L 327.221641 171.038881 
L 335.140044 170.559386 
L 343.058448 170.393866 
L 350.976851 168.879523 
L 358.895255 170.110848 
L 366.813659 167.984116 
L 374.732062 164.847666 
L 382.650466 163.751063 
L 390.568869 164.382626 
L 398.487273 166.863735 
" clip-path="url(#pe143ce4ca9)" style="fill: none; stroke: #d62728; stroke-width: 1.5; stroke-linecap: square"/>
   </g>
   <g id="line2d_55">
    <path d="M 73.832727 240.018289 
L 81.751131 235.034551 
L 89.669534 230.322379 
L 97.587938 227.380333 
L 105.506341 219.159763 
L 113.424745 214.324139 
L 121.343149 205.88747 
L 129.261552 198.817786 
L 137.179956 193.511439 
L 145.098359 191.121999 
L 153.016763 188.264154 
L 160.935166 181.141768 
L 168.85357 176.274845 
L 176.771973 176.726797 
L 184.690377 171.702769 
L 192.60878 171.452448 
L 200.527184 167.566762 
L 208.445588 162.532994 
L 216.363991 160.90495 
L 224.282395 160.976462 
L 232.200798 156.785208 
L 240.119202 156.618329 
L 248.037605 156.561246 
L 255.956009 153.286657 
L 263.874412 152.634245 
L 271.792816 148.60005 
L 279.71122 149.61409 
L 287.629623 148.422798 
L 295.548027 146.287878 
L 303.46643 145.412322 
L 311.384834 145.99741 
L 319.303237 143.058707 
L 327.221641 142.661702 
L 335.140044 139.788698 
L 343.058448 140.410047 
L 350.976851 138.184673 
L 358.895255 140.991745 
L 366.813659 137.379945 
L 374.732062 135.65031 
L 382.650466 132.380113 
L 390.568869 132.95743 
L 398.487273 136.488908 
" clip-path="url(#pe143ce4ca9)" style="fill: none; stroke: #9467bd; stroke-width: 1.5; stroke-linecap: square"/>
   </g>
   <g id="line2d_56">
    <path d="M 73.832727 274.922014 
L 81.751131 267.838412 
L 89.669534 253.616591 
L 97.587938 249.025797 
L 105.506341 235.035109 
L 113.424745 225.630217 
L 121.343149 211.579529 
L 129.261552 197.737469 
L 137.179956 186.141923 
L 145.098359 172.740007 
L 153.016763 157.961989 
L 160.935166 141.043739 
L 168.85357 124.14789 
L 176.771973 108.20186 
L 184.690377 91.290926 
L 192.60878 75.374893 
L 200.527184 58.526214 
L 208.445588 41.285128 
" clip-path="url(#pe143ce4ca9)" style="fill: none; stroke: #8c564b; stroke-width: 1.5; stroke-linecap: square"/>
   </g>
   <g id="line2d_57"/>
   <g id="line2d_58"/>
   <g id="line2d_59"/>
   <g id="line2d_60"/>
   <g id="line2d_61"/>
   <g id="line2d_62"/>
   <g id="patch_3">
    <path d="M 57.6 307.584 
L 57.6 41.472 
" style="fill: none; stroke: #000000; stroke-width: 0.8; stroke-linejoin: miter; stroke-linecap: square"/>
   </g>
   <g id="patch_4">
    <path d="M 414.72 307.584 
L 414.72 41.472 
" style="fill: none; stroke: #000000; stroke-width: 0.8; stroke-linejoin: miter; stroke-linecap: square"/>
   </g>
   <g id="patch_5">
    <path d="M 57.6 307.584 
L 414.72 307.584 
" style="fill: none; stroke: #000000; stroke-width: 0.8; stroke-linejoin: miter; stroke-linecap: square"/>
   </g>
   <g id="patch_6">
    <path d="M 57.6 41.472 
L 414.72 41.472 
" style="fill: none; stroke: #000000; stroke-width: 0.8; stroke-linejoin: miter; stroke-linecap: square"/>
   </g>
   <g id="legend_1">
    <g id="patch_7">
     <path d="M 64.6 152.218875 
L 124.04375 152.218875 
Q 126.04375 152.218875 126.04375 150.218875 
L 126.04375 48.472 
Q 126.04375 46.472 124.04375 46.472 
L 64.6 46.472 
Q 62.6 46.472 62.6 48.472 
L 62.6 150.218875 
Q 62.6 152.218875 64.6 152.218875 
z
" style="fill: #ffffff; opacity: 0.8; stroke: #cccccc; stroke-linejoin: miter"/>
    </g>
    <g id="text_13">
     <!-- Samples -->
     <g transform="translate(72.96875 58.070438) scale(0.1 -0.1)">
      <defs>
       <path id="DejaVuSans-53" d="M 3425 4513 
L 3425 3897 
Q 3066 4069 2747 4153 
Q 2428 4238 2131 4238 
Q 1616 4238 1336 4038 
Q 1056 3838 1056 3469 
Q 1056 3159 1242 3001 
Q 1428 2844 1947 2747 
L 2328 2669 
Q 3034 2534 3370 2195 
Q 3706 1856 3706 1288 
Q 3706 609 3251 259 
Q 2797 -91 1919 -91 
Q 1588 -91 1214 -16 
Q 841 59 441 206 
L 441 856 
Q 825 641 1194 531 
Q 1563 422 1919 422 
Q 2459 422 2753 634 
Q 3047 847 3047 1241 
Q 3047 1584 2836 1778 
Q 2625 1972 2144 2069 
L 1759 2144 
Q 1053 2284 737 2584 
Q 422 2884 422 3419 
Q 422 4038 858 4394 
Q 1294 4750 2059 4750 
Q 2388 4750 2728 4690 
Q 3069 4631 3425 4513 
z
" transform="scale(0.015625)"/>
       <path id="DejaVuSans-6c" d="M 603 4863 
L 1178 4863 
L 1178 0 
L 603 0 
L 603 4863 
z
" transform="scale(0.015625)"/>
      </defs>
      <use xlink:href="#DejaVuSans-53"/>
      <use xlink:href="#DejaVuSans-61" x="63.476562"/>
      <use xlink:href="#DejaVuSans-6d" x="124.755859"/>
      <use xlink:href="#DejaVuSans-70" x="222.167969"/>
      <use xlink:href="#DejaVuSans-6c" x="285.644531"/>
      <use xlink:href="#DejaVuSans-65" x="313.427734"/>
      <use xlink:href="#DejaVuSans-73" x="374.951172"/>
     </g>
    </g>
    <g id="line2d_63">
     <path d="M 66.6 69.248563 
L 76.6 69.248563 
L 86.6 69.248563 
" style="fill: none; stroke: #1f77b4; stroke-width: 1.5; stroke-linecap: square"/>
    </g>
    <g id="text_14">
     <!-- 10 -->
     <g transform="translate(94.6 72.748563) scale(0.1 -0.1)">
      <use xlink:href="#DejaVuSans-31"/>
      <use xlink:href="#DejaVuSans-30" x="63.623047"/>
     </g>
    </g>
    <g id="line2d_64">
     <path d="M 66.6 83.926688 
L 76.6 83.926688 
L 86.6 83.926688 
" style="fill: none; stroke: #ff7f0e; stroke-width: 1.5; stroke-linecap: square"/>
    </g>
    <g id="text_15">
     <!-- 100 -->
     <g transform="translate(94.6 87.426688) scale(0.1 -0.1)">
      <use xlink:href="#DejaVuSans-31"/>
      <use xlink:href="#DejaVuSans-30" x="63.623047"/>
      <use xlink:href="#DejaVuSans-30" x="127.246094"/>
     </g>
    </g>
    <g id="line2d_65">
     <path d="M 66.6 98.604813 
L 76.6 98.604813 
L 86.6 98.604813 
" style="fill: none; stroke: #2ca02c; stroke-width: 1.5; stroke-linecap: square"/>
    </g>
    <g id="text_16">
     <!-- 500 -->
     <g transform="translate(94.6 102.104813) scale(0.1 -0.1)">
      <use xlink:href="#DejaVuSans-35"/>
      <use xlink:href="#DejaVuSans-30" x="63.623047"/>
      <use xlink:href="#DejaVuSans-30" x="127.246094"/>
     </g>
    </g>
    <g id="line2d_66">
     <path d="M 66.6 113.282938 
L 76.6 113.282938 
L 86.6 113.282938 
" style="fill: none; stroke: #d62728; stroke-width: 1.5; stroke-linecap: square"/>
    </g>
    <g id="text_17">
     <!-- 1000 -->
     <g transform="translate(94.6 116.782938) scale(0.1 -0.1)">
      <use xlink:href="#DejaVuSans-31"/>
      <use xlink:href="#DejaVuSans-30" x="63.623047"/>
      <use xlink:href="#DejaVuSans-30" x="127.246094"/>
      <use xlink:href="#DejaVuSans-30" x="190.869141"/>
     </g>
    </g>
    <g id="line2d_67">
     <path d="M 66.6 127.961063 
L 76.6 127.961063 
L 86.6 127.961063 
" style="fill: none; stroke: #9467bd; stroke-width: 1.5; stroke-linecap: square"/>
    </g>
    <g id="text_18">
     <!-- 5000 -->
     <g transform="translate(94.6 131.461063) scale(0.1 -0.1)">
      <use xlink:href="#DejaVuSans-35"/>
      <use xlink:href="#DejaVuSans-30" x="63.623047"/>
      <use xlink:href="#DejaVuSans-30" x="127.246094"/>
      <use xlink:href="#DejaVuSans-30" x="190.869141"/>
     </g>
    </g>
    <g id="line2d_68">
     <path d="M 66.6 142.639188 
L 76.6 142.639188 
L 86.6 142.639188 
" style="fill: none; stroke: #8c564b; stroke-width: 1.5; stroke-linecap: square"/>
    </g>
    <g id="text_19">
     <!-- exact -->
     <g transform="translate(94.6 146.139188) scale(0.1 -0.1)">
      <defs>
       <path id="DejaVuSans-78" d="M 3513 3500 
L 2247 1797 
L 3578 0 
L 2900 0 
L 1881 1375 
L 863 0 
L 184 0 
L 1544 1831 
L 300 3500 
L 978 3500 
L 1906 2253 
L 2834 3500 
L 3513 3500 
z
" transform="scale(0.015625)"/>
       <path id="DejaVuSans-63" d="M 3122 3366 
L 3122 2828 
Q 2878 2963 2633 3030 
Q 2388 3097 2138 3097 
Q 1578 3097 1268 2742 
Q 959 2388 959 1747 
Q 959 1106 1268 751 
Q 1578 397 2138 397 
Q 2388 397 2633 464 
Q 2878 531 3122 666 
L 3122 134 
Q 2881 22 2623 -34 
Q 2366 -91 2075 -91 
Q 1284 -91 818 406 
Q 353 903 353 1747 
Q 353 2603 823 3093 
Q 1294 3584 2113 3584 
Q 2378 3584 2631 3529 
Q 2884 3475 3122 3366 
z
" transform="scale(0.015625)"/>
      </defs>
      <use xlink:href="#DejaVuSans-65"/>
      <use xlink:href="#DejaVuSans-78" x="59.773438"/>
      <use xlink:href="#DejaVuSans-61" x="118.953125"/>
      <use xlink:href="#DejaVuSans-63" x="180.232422"/>
      <use xlink:href="#DejaVuSans-74" x="235.212891"/>
     </g>
    </g>
   </g>
  </g>
 </g>
 <defs>
  <clipPath id="pe143ce4ca9">
   <rect x="57.6" y="41.472" width="357.12" height="266.112"/>
  </clipPath>
 </defs>
</svg>
